<svg xmlns="http://www.w3.org/2000/svg" xml:space="preserve" width="147" height="32"><path d="M4 0h139c2.2 0 4 1.8 4 4v24c0 2.2-1.8 4-4 4H4c-2.2 0-4-1.8-4-4V4c0-2.2 1.8-4 4-4" style="fill-rule:evenodd;clip-rule:evenodd;fill:#43a047"/><path d="M44.3 23.3c-.3.6-.8.8-1.4.8h-30c-2.6 0-4.8-1.7-5.4-4.3-.7-3 1.4-6 4.4-6.5.3 0 .5-.1.8-.1.7 0 1.2-.5 1.2-1.1s-.5-1.1-1.2-1.1H8.6c-.7 0-1.2-.4-1.2-1.1 0-.4.5-.9 1.2-.9h4.3c1.8 0 3.2 1.4 3.2 3.2s-1.4 3.3-3.2 3.3-3.1 1.2-3.3 2.9c-.2 1.5.8 3.4 2.9 3.5 1.2.1 2.3 0 3.5 0 .5-4.5 2.5-8 6.3-10.6 2.2-1.5 4.6-2.2 7.1-2.4-.1.5-.3 1-.3 1.5-.4 2.9 1.8 5.6 4.7 6 .3 0 .5.1.8 0 .6-.1 1-.6 1-1.1 0-.6-.5-1-1.1-1-1.3-.1-2.3-.7-2.9-1.8-.6-1.2-.4-2.6.6-3.7.8-.8 2.1-1.2 3.3-.8s2.1 1.6 2.2 2.9c0 .1.1.3.2.4q4.8 3.3 6 9c.1.5.2 1.1.3 1.6s.1 1 .1 1.4m-5.5-5.6c0-.6-.5-1.1-1.1-1.1s-1.1.5-1.1 1.1.5 1.1 1.1 1.1c.6-.1 1.1-.6 1.1-1.1m10.9 2.5v-8.6h3.7c.9 0 1.6.1 2 .2s.7.4 1 .8.4.8.4 1.4-.2 1.2-.6 1.6-.9.7-1.7.8c.4.2.7.5.9.7s.6.7 1 1.4l1 1.7h-2.1L54 18.4c-.4-.7-.8-1.1-.9-1.3s-.3-.3-.5-.4-.5-.1-.9-.1h-.4v3.6zm1.7-4.9h1.3c.8 0 1.4 0 1.6-.1s.4-.2.5-.4.2-.4.2-.6c0-.3-.1-.5-.2-.7s-.4-.3-.7-.3h-2.7zm11 4.9v-.9c-.2.3-.5.6-.9.8s-.8.3-1.2.3-.8-.1-1.1-.3-.6-.4-.7-.8-.2-.8-.2-1.4V14h1.6v2.9c0 .9 0 1.4.1 1.6s.2.4.3.5.4.2.6.2c.3 0 .5-.1.8-.2s.4-.3.5-.6c.1-.2.1-.8.1-1.7V14h1.6v6.2zm8.9 0h-1.6V17c0-.7 0-1.1-.1-1.3s-.2-.4-.3-.5-.3-.2-.6-.2-.5.1-.8.2-.4.4-.5.6-.1.7-.1 1.4V20h-1.6v-6h1.5v.9c.5-.7 1.2-1.1 2.1-1.1.4 0 .7.1 1 .2s.5.3.7.5.3.4.3.7.1.6.1 1.1v3.9z" style="fill:#fff"/><path d="M75.8 17.1c0-1.2.3-2 1-2.6.5-.5 1.2-.7 2-.7.9 0 1.6.3 2.1.8s.8 1.3.8 2.3c0 .8-.1 1.4-.4 1.9s-.6.8-1 1.1-1 .4-1.5.4c-.9 0-1.6-.3-2.1-.8s-.9-1.3-.9-2.4m1.1 0c0 .8.2 1.4.5 1.8s.8.6 1.3.6 1-.2 1.3-.6.5-1 .5-1.8-.2-1.4-.5-1.7-.8-.6-1.3-.6-1 .2-1.3.6-.5.9-.5 1.7m6 3.1V14h.9v.9c.5-.7 1.1-1 2-1 .4 0 .7.1 1 .2s.5.3.7.5.3.5.3.8c0 .2.1.5.1 1v3.8h-1.1v-3.8c0-.4 0-.8-.1-1s-.2-.4-.4-.5-.5-.2-.7-.2c-.4 0-.8.1-1.2.4s-.4.9-.4 1.7v3.4zm10.1 0v-8.6h3.2c.6 0 1 0 1.3.1.4.1.8.2 1.1.4s.5.5.7.8.3.7.3 1.2c0 .7-.2 1.3-.7 1.9s-1.3.8-2.5.8h-2.2v3.5H93zm1.2-4.5h2.2c.7 0 1.3-.1 1.6-.4s.5-.7.5-1.2q0-.6-.3-.9c-.3-.3-.4-.4-.7-.5-.2-.1-.5-.1-1.1-.1h-2.2zm6.7-2.9v-1.2h1.1v1.2zm0 7.4V14h1.1v6.2zm2.7 0v-8.6h1.1v4.9l2.5-2.5h1.4l-2.4 2.3 2.6 3.9h-1.3l-2.1-3.2-.7.7v2.5zm10-.7c-.4.3-.8.6-1.1.7s-.7.2-1.2.2c-.7 0-1.2-.2-1.6-.5s-.6-.8-.6-1.3c0-.3.1-.6.2-.8s.3-.5.5-.6.5-.3.8-.3c.2-.1.5-.1.9-.2.9-.1 1.5-.2 1.9-.4V16q0-.6-.3-.9c-.3-.2-.7-.4-1.2-.4s-.9.1-1.1.3-.4.5-.5.9l-1-.1c.1-.4.2-.8.5-1.1s.5-.5.9-.6.9-.2 1.4-.2 1 .1 1.3.2.6.3.7.5.3.4.3.7c0 .2.1.5.1 1v1.4c0 1 0 1.6.1 1.9s.1.5.3.7h-1.1c-.1-.3-.1-.5-.2-.8m0-2.4c-.4.2-1 .3-1.7.4-.4.1-.7.1-.9.2s-.3.2-.4.3-.1.3-.1.5c0 .3.1.5.3.7s.5.3.9.3.8-.1 1.1-.3.5-.4.7-.7c.1-.2.2-.6.2-1.1v-.3zm2.8 3.1v-8.6h3.2c.6 0 1 0 1.3.1.4.1.8.2 1.1.4s.5.5.7.8.3.7.3 1.2c0 .7-.2 1.3-.7 1.9s-1.3.8-2.5.8h-2.2v3.5h-1.2zm1.1-4.5h2.2c.7 0 1.3-.1 1.6-.4s.5-.7.5-1.2q0-.6-.3-.9c-.3-.3-.4-.4-.7-.5-.2-.1-.5-.1-1.1-.1h-2.2zm6.4 1.4c0-1.2.3-2 1-2.6.5-.5 1.2-.7 2-.7.9 0 1.6.3 2.1.8s.8 1.3.8 2.3c0 .8-.1 1.4-.4 1.9s-.6.8-1 1.1-1 .4-1.5.4c-.9 0-1.6-.3-2.1-.8s-.9-1.3-.9-2.4m1 0c0 .8.2 1.4.5 1.8s.8.6 1.3.6 1-.2 1.3-.6.5-1 .5-1.8-.2-1.4-.5-1.7-.8-.6-1.3-.6-1 .2-1.3.6-.5.9-.5 1.7m10.1 3.1v-.8c-.4.6-1 .9-1.7.9-.5 0-1-.1-1.4-.4s-.7-.7-1-1.1-.3-1.1-.3-1.7.1-1.2.3-1.7.5-.9.9-1.2.9-.4 1.4-.4c.4 0 .7.1 1 .2s.5.4.7.6v-3.1h1v8.6h-.9zm-3.4-3.1c0 .8.2 1.4.5 1.8s.7.6 1.2.6q.75 0 1.2-.6c.45-.6.5-1 .5-1.7 0-.9-.2-1.5-.5-1.9s-.7-.6-1.2-.6q-.75 0-1.2.6c-.45.6-.5 1-.5 1.8m5.6 1.3 1-.2c.1.4.2.7.5 1s.6.3 1.1.3.8-.1 1.1-.3.4-.4.4-.7q0-.3-.3-.6c-.1-.1-.5-.2-1.1-.4-.8-.2-1.3-.4-1.6-.5s-.5-.3-.7-.6-.2-.5-.2-.8.1-.5.2-.8.3-.4.5-.6c.2-.1.4-.2.7-.3s.6-.1.9-.1c.5 0 .9.1 1.3.2s.6.3.8.6.3.6.4 1l-1 .1c0-.3-.2-.6-.4-.8s-.5-.3-1-.3-.8.1-1 .2-.3.3-.3.6c0 .1 0 .3.1.4s.2.2.4.3q.15 0 .9.3c.7.2 1.3.4 1.6.5s.5.3.7.6.3.5.3.9-.1.7-.3 1-.5.6-.9.7-.8.3-1.3.3c-.8 0-1.4-.2-1.8-.5s-.9-.9-1-1.5" style="fill:#fff;opacity:.6"/></svg>