<svg xmlns="http://www.w3.org/2000/svg" width="933.333" height="933.333" version="1.0" viewBox="0 0 700 700"><path d="M495 157.5c-1.8 2.2-.5 6.9 3.8 13.9 5.1 8.2 7 13.1 8.5 22.9 2.3 13.9 1.3 33.2-2.4 51.7-4.3 21.2-15.6 56.5-23.4 73.7-.8 1.7-1.5 3.4-1.5 3.7 0 .7-2.8 6.9-10.8 24.1-29.1 62.6-62.2 109-90.4 126.7-2.3 1.5-2.7 1.5-3.2.2-.7-1.7 0-28.5.8-32.9.3-1.7 1-5.7 1.6-9s1.2-7.4 1.5-9c.3-1.7.8-4.6 1.1-6.5.2-1.9.9-5.8 1.4-8.5.5-2.8 1.2-6.6 1.5-8.5s1.7-8.9 3-15.5 2.6-13.1 2.9-14.5c.2-1.4.9-4.5 1.5-7 1.3-5.4 14.1-63.5 14.7-67 .3-1.4 1.2-4.8 2-7.6s1.6-6 1.8-7c.3-1.1.9-3.9 1.5-6.4 3.2-14.1 3.2-21.7.1-26.3-2.9-4.2-4.9-5.5-27.7-17.6-13.2-7-19.5-9.9-21-9.5-2.4.7-4.5 5-8.8 18.4-1.5 4.7-4.3 12.5-6.2 17.5-1.9 4.9-4.4 11.5-5.5 14.5-1.2 3-2.9 7.3-3.8 9.5-1 2.2-3.9 9.4-6.5 16-8.3 21.3-15.4 38.4-27.2 65-34.7 78.6-60.2 119.2-72.8 116.1-1.8-.5-2.3-1.5-2.8-5.8-.6-5.3-.1-16.2.9-20.8.4-1.4.8-3.9 1-5.5 1.6-10.6 7.2-35.9 13.6-60.5 2.2-8.5 4.1-16.3 4.3-17.4.3-1 1.1-4.2 1.9-7 1.2-4.1 9.5-36 11.1-42.6.5-1.8 4.2-15.1 8.5-30.5 1.8-6.1 3.6-12.8 4.1-14.9.6-2.2 3-10.3 5.4-18 6.4-20.7 7.7-26.5 7-30.3-.8-4.3-5.6-9.8-10.9-12.5-2.3-1.1-9.6-5.4-16.4-9.5-21-12.7-22.5-13-39.7-7-18.1 6.4-61.1 24.4-64.2 26.9-.7.6-1.3.8-1.3.5 0-.9-34 16.2-47.6 23.9-32.2 18.2-49.5 30.3-62.9 43.8-9.9 9.9-13.9 16.1-16.1 24.6-5.8 23 4.8 44 30.7 61 8.7 5.7 13 7.2 14.4 5 .4-.6.8-6.7 1.1-13.6.2-7 1-15.3 1.8-18.5 3.3-12.5 13.2-28 27.8-42.9 8.2-8.5 24.2-23 30.3-27.5 2.2-1.7 4.2-3.2 4.5-3.5 3.6-4 33.9-24.1 48.5-32.3 14.3-7.9 39.1-19.4 40.1-18.5.1.2-1.5 6.9-3.6 14.8-4.5 16.9-7.9 30-12.1 46-1.7 6.3-4.3 16.4-5.9 22.5-4.6 17.3-8.9 34.2-9.4 36.7-.3 1.3-3 12.6-6.1 25.3-3.1 12.6-5.8 23.9-6.1 25-.2 1.1-1.7 8.5-3.3 16.5-1.7 8-3.2 15.6-3.4 17-.3 1.4-.8 3.6-1.1 5-1.1 4.2-1.3 18.1-.4 23.3 3.2 17.5 19.8 33.3 38.6 36.7 17.3 3.1 34.5-6.5 50.9-28.5 22-29.3 42.1-70.5 63.3-129.5 2.9-8 5.9-16.1 6.6-18 1.7-4.1 1.6-2.8-1.4 11.5-1.2 5.5-2.4 11.4-2.6 13.1-1.8 10.4-4.6 27.4-5 30.4-.3 1.9-.7 4.4-.9 5.5-.3 1.1-.8 4.2-1.2 7-.5 2.7-.9 5.2-1 5.5s-.5 3.4-.9 7c-.5 3.6-1 7.2-1.1 8-.2.8-.6 4.4-1 8s-.9 7.3-1 8.2c-2.4 12.1-2.2 29.9.3 36.9 2.6 7.6 9 16.7 15.1 21.8 6.5 5.4 19.9 11.6 28.3 13s13.2.4 23.6-4.8c15.5-7.8 30.9-21 56.5-48.5l6.5-7 .1 6c.3 21.2 13.2 37.8 38.3 49.3 14.7 6.7 25.1 9 43.4 9.6 14.4.4 28.2-2 40.4-7.2 7-3 8.6-3.8 16.4-8.5 4.3-2.7 10.1-5.8 13-7 8-3.4 17.8-10.2 23.6-16.5 9.3-10.3 20.5-28.8 22.5-37.5.6-2.2.3-2.7-1.7-3-1.2-.2-3.9 0-5.8.5-3.1.8-4 1.9-8.7 10.5-12 22.1-31.4 43.1-48.3 52.4-11.4 6.2-29.8 8.7-39.9 5.3-10.4-3.4-18-13.2-22-28.5-2.6-10.1-2.2-31.1.9-45 1.1-5.2 2.3-10.5 2.6-11.8 1-5 5.8-18.9 8.2-24.1 7.1-15.5 18.3-22.7 24.1-15.7 2 2.3 1.8 16.3-.4 26.1-5.6 26.2-15.4 45-28.7 55-7.1 5.4-6 7.3 2.7 4.8 16.7-4.7 23.5-7.2 36.8-13.6 19.7-9.5 34.8-21.6 40.2-32.2 9.3-18.4-2.7-37.1-29.1-45.3-18.6-5.7-38.8-4.8-59.3 2.8-3 1.1-5.6 1.8-5.8 1.7-.1-.2 2.4-4.7 5.7-10.1 3.3-5.3 6-10.1 6-10.6 0-.6.5-1 1-1 .6 0 1-.4 1-.9s2.8-5.7 6.2-11.7c12.2-21.5 21.4-42.2 28.8-64.4 12.4-37.4 13.6-57 4.9-75.6-5.2-11.2-12.5-17.5-25.9-22.2-21.3-7.6-42.1-11.1-45-7.7"/></svg>