<?xml version="1.0" encoding="utf-8"?>
<!-- Generator: Adobe Illustrator 19.1.0, SVG Export Plug-In . SVG Version: 6.00 Build 0)  -->
<!DOCTYPE svg PUBLIC "-//W3C//DTD SVG 1.1//EN" "http://www.w3.org/Graphics/SVG/1.1/DTD/svg11.dtd">
<svg version="1.1" id="Layer_1" xmlns="http://www.w3.org/2000/svg" xmlns:xlink="http://www.w3.org/1999/xlink" x="0px" y="0px"
	 viewBox="0 0 150 150" style="enable-background:new 0 0 150 150;" xml:space="preserve">
<style type="text/css">
	.st0{clip-path:url(#SVGID_2_);fill:url(#SVGID_3_);}
	.st1{clip-path:url(#SVGID_5_);}
	.st2{fill:#FFFFFF;}
	.st3{clip-path:url(#SVGID_7_);fill:none;stroke:#7ADDFC;stroke-miterlimit:10;}
	.st4{clip-path:url(#SVGID_9_);fill:none;stroke:#529FDD;stroke-miterlimit:10;}
	.st5{clip-path:url(#SVGID_11_);fill:none;stroke:#529FDD;stroke-miterlimit:10;}
	.st6{clip-path:url(#SVGID_13_);fill:none;stroke:#529FDD;stroke-miterlimit:10;}
	.st7{clip-path:url(#SVGID_15_);fill:none;stroke:#529FDD;stroke-miterlimit:10;}
	.st8{clip-path:url(#SVGID_17_);fill:none;stroke:#529FDD;stroke-miterlimit:10;}
	.st9{clip-path:url(#SVGID_19_);fill:none;stroke:#529FDD;stroke-miterlimit:10;}
	.st10{clip-path:url(#SVGID_21_);fill:none;}
</style>
<g>
	<g>
		<defs>
			<rect id="SVGID_1_" x="0.1" y="0.2" width="150" height="150"/>
		</defs>
		<clipPath id="SVGID_2_">
			<use xlink:href="#SVGID_1_"  style="overflow:visible;"/>
		</clipPath>
		
			<linearGradient id="SVGID_3_" gradientUnits="userSpaceOnUse" x1="75.1" y1="-0.2" x2="75.1" y2="149.8" gradientTransform="matrix(1 0 0 -1 0 150)">
			<stop  offset="0" style="stop-color:#007C8F"/>
			<stop  offset="0.3707" style="stop-color:#007088"/>
			<stop  offset="1" style="stop-color:#005377"/>
		</linearGradient>
		<rect x="0.1" y="0.2" class="st0" width="150" height="150"/>
	</g>
	<g>
		<defs>
			<rect id="SVGID_4_" x="0.1" y="0.2" width="150" height="150"/>
		</defs>
		<clipPath id="SVGID_5_">
			<use xlink:href="#SVGID_4_"  style="overflow:visible;"/>
		</clipPath>
		<g class="st1">
			<path class="st2" d="M77.4,83.7c-0.5,0.6-0.9,0.9-1.3,1.3c-1.7,1.7-3.7,2.6-6.1,2.6s-4-1.2-4.4-3.5c-0.2-1.4-0.2-3,0.1-4.4
				c0.9-4.8,2-9.5,3-14.4c2.1,0,4.1,0,6.2,0c-0.5,2.5-1,4.9-1.5,7.3c-0.6,2.8-1.2,5.6-1.7,8.4c-0.2,0.8-0.2,1.6,0.5,2.2
				c0.7,0.5,1.6,0.5,2.4,0.1c1.6-0.8,2.5-2.2,2.9-3.9c0.9-4,1.8-8.1,2.6-12.1c0.7-3.3,1.4-6.5,2.1-9.9c2-0.3,4.1-0.6,6.3-0.9
				c-0.7,3.2-1.3,6.4-2,9.7c0.5-0.2,0.9-0.3,1.2-0.5c3.5-1.6,6.6-0.1,7.3,3.6c0.9,5,0,9.6-2.9,13.8c-2.5,3.6-6.1,5-10.5,4.3
				C79.6,87.2,78.2,86.1,77.4,83.7z M86.1,68.9c-0.3,1.2-0.5,2.4-0.8,3.6c-0.6,2.8-1.2,5.6-1.8,8.4c-0.2,0.9,0,1.7,0.7,2.3
				c0.8,0.6,1.8,0.7,2.6,0.2c0.7-0.5,1.4-1.1,1.8-1.9c1.2-1.8,1.8-3.9,2.1-6.1c0.3-1.7,0.4-3.4-0.1-5.1c-0.5-1.8-1.6-2.3-3.4-1.8
				C87,68.5,86.6,68.7,86.1,68.9z"/>
			<path class="st2" d="M59.2,57.8c-1,0.6-2.1,1.3-3,1.9c1.4-3.7,5.6-5.3,10.2-4.7c-2.2,10.5-4.5,20.9-6.8,31.5
				c1.1,0.4,2.1,0.8,3,1.3c1.9,0.9,3.7,2,5.6,2.9c2.2,1.1,4.5,1.9,7,1.7c0.9-0.1,1.8-0.3,2.9-0.4c-0.2,2.2-0.7,4.2-2.3,5.7
				c-1,1-2.2,1-3.5,0.7c-1.8-0.4-3.4-1.4-4.8-2.5c-2.2-1.6-4.3-3.3-6.5-4.9c-1.7-1.2-3.6-2.1-5.6-2.4c-0.7-0.1-1.5-0.1-2.3-0.2
				c2.2-10.1,4.3-20.2,6.5-30.3C59.4,57.9,59.3,57.9,59.2,57.8z"/>
			<path class="st2" d="M76.6,59.4c0,1.9-1.7,3.5-3.6,3.4s-3.4-1.7-3.3-3.5c0.1-1.9,1.6-3.4,3.4-3.4C75,55.9,76.6,57.5,76.6,59.4z"
				/>
		</g>
	</g>
	<g>
		<defs>
			<rect id="SVGID_6_" x="0.1" y="0.2" width="150" height="150"/>
		</defs>
		<clipPath id="SVGID_7_">
			<use xlink:href="#SVGID_6_"  style="overflow:visible;"/>
		</clipPath>
		<rect x="38.8" y="38.7" class="st3" width="71.4" height="71.4"/>
	</g>
	<g>
		<defs>
			<rect id="SVGID_8_" x="0.1" y="0.2" width="150" height="150"/>
		</defs>
		<clipPath id="SVGID_9_">
			<use xlink:href="#SVGID_8_"  style="overflow:visible;"/>
		</clipPath>
		<rect x="38.8" y="-20.9" class="st4" width="71.4" height="52.7"/>
	</g>
	<g>
		<defs>
			<rect id="SVGID_10_" x="0.1" y="0.2" width="150" height="150"/>
		</defs>
		<clipPath id="SVGID_11_">
			<use xlink:href="#SVGID_10_"  style="overflow:visible;"/>
		</clipPath>
		<rect x="38.8" y="117" class="st5" width="71.4" height="52.7"/>
	</g>
	<g>
		<defs>
			<rect id="SVGID_12_" x="0.1" y="0.2" width="150" height="150"/>
		</defs>
		<clipPath id="SVGID_13_">
			<use xlink:href="#SVGID_12_"  style="overflow:visible;"/>
		</clipPath>
		<rect x="116.9" y="-19.5" class="st6" width="71.4" height="88.3"/>
	</g>
	<g>
		<defs>
			<rect id="SVGID_14_" x="0.1" y="0.2" width="150" height="150"/>
		</defs>
		<clipPath id="SVGID_15_">
			<use xlink:href="#SVGID_14_"  style="overflow:visible;"/>
		</clipPath>
		<rect x="116.9" y="75.8" class="st7" width="71.4" height="102.4"/>
	</g>
	<g>
		<defs>
			<rect id="SVGID_16_" x="0.1" y="0.2" width="150" height="150"/>
		</defs>
		<clipPath id="SVGID_17_">
			<use xlink:href="#SVGID_16_"  style="overflow:visible;"/>
		</clipPath>
		<rect x="-39.1" y="-19.5" class="st8" width="71.4" height="88.3"/>
	</g>
	<g>
		<defs>
			<rect id="SVGID_18_" x="0.1" y="0.2" width="150" height="150"/>
		</defs>
		<clipPath id="SVGID_19_">
			<use xlink:href="#SVGID_18_"  style="overflow:visible;"/>
		</clipPath>
		<rect x="-39.1" y="75.8" class="st9" width="71.4" height="102.4"/>
	</g>
	<g>
		<defs>
			<rect id="SVGID_20_" x="0.1" y="0.2" width="150" height="150"/>
		</defs>
		<clipPath id="SVGID_21_">
			<use xlink:href="#SVGID_20_"  style="overflow:visible;"/>
		</clipPath>
		<path class="st10" d="M136.8,150.2H13.4c-7.4,0-13.3-6-13.3-13.3V13.5c0-7.4,6-13.3,13.3-13.3h123.3c7.4,0,13.3,6,13.3,13.3v123.3
			C150.1,144.2,144.1,150.2,136.8,150.2z"/>
	</g>
</g>
</svg>
