<?xml version="1.0" encoding="utf-8"?>
<!-- Generator: Adobe Illustrator 19.1.0, SVG Export Plug-In . SVG Version: 6.00 Build 0)  -->
<!DOCTYPE svg PUBLIC "-//W3C//DTD SVG 1.1//EN" "http://www.w3.org/Graphics/SVG/1.1/DTD/svg11.dtd">
<svg version="1.1" id="Layer_1" xmlns="http://www.w3.org/2000/svg" xmlns:xlink="http://www.w3.org/1999/xlink" x="0px" y="0px"
	 viewBox="0 0 24 24" style="enable-background:new 0 0 24 24;" xml:space="preserve">
<style type="text/css">
	.st0{fill:url(#SVGID_1_);}
	.st1{fill:#FFFFFF;}
</style>
<linearGradient id="SVGID_1_" gradientUnits="userSpaceOnUse" x1="12" y1="24" x2="12" y2="-4.131925e-008">
	<stop  offset="0" style="stop-color:#007C8F"/>
	<stop  offset="0.3707" style="stop-color:#007088"/>
	<stop  offset="1" style="stop-color:#005377"/>
</linearGradient>
<rect x="0" y="0" class="st0" width="24" height="24"/>
<g>
	<path class="st1" d="M13.4,15.1c-0.2,0.2-0.4,0.4-0.5,0.5c-0.7,0.7-1.5,1.1-2.4,1.1c-1,0-1.6-0.5-1.8-1.4c-0.1-0.6-0.1-1.2,0-1.8
		c0.4-1.9,0.8-3.8,1.2-5.8c0.8,0,1.6,0,2.5,0c-0.2,1-0.4,1.9-0.6,2.9c-0.2,1.1-0.5,2.2-0.7,3.4c-0.1,0.3-0.1,0.7,0.2,0.9
		c0.3,0.2,0.6,0.2,1,0c0.7-0.3,1-0.9,1.2-1.5c0.4-1.6,0.7-3.2,1.1-4.9c0.3-1.3,0.6-2.6,0.9-4c0.8-0.1,1.6-0.2,2.5-0.4
		c-0.3,1.3-0.5,2.6-0.8,3.9C17.3,8,17.5,8,17.6,7.9c1.4-0.6,2.6,0,2.9,1.5c0.4,2,0,3.9-1.2,5.5c-1,1.4-2.4,2-4.2,1.7
		C14.3,16.5,13.7,16,13.4,15.1z M16.9,9.1c-0.1,0.5-0.2,1-0.3,1.4c-0.2,1.1-0.5,2.2-0.7,3.4c-0.1,0.4,0,0.7,0.3,0.9
		c0.3,0.2,0.7,0.3,1.1,0.1c0.3-0.2,0.5-0.5,0.7-0.7c0.5-0.7,0.7-1.6,0.9-2.4c0.1-0.7,0.2-1.4,0-2.1c-0.2-0.7-0.7-0.9-1.4-0.7
		C17.3,9,17.1,9.1,16.9,9.1z"/>
	<path class="st1" d="M6.1,4.7C5.7,4.9,5.3,5.2,4.9,5.4C5.5,4,7.2,3.3,9,3.6c-0.9,4.2-1.8,8.4-2.7,12.6c0.4,0.2,0.8,0.3,1.2,0.5
		c0.8,0.4,1.5,0.8,2.3,1.2c0.9,0.4,1.8,0.7,2.8,0.7c0.4,0,0.7-0.1,1.2-0.2c-0.1,0.9-0.3,1.7-0.9,2.3c-0.4,0.4-0.9,0.4-1.4,0.3
		c-0.7-0.2-1.3-0.6-1.9-1c-0.9-0.6-1.7-1.3-2.6-2c-0.7-0.5-1.4-0.8-2.3-1c-0.3,0-0.6-0.1-0.9-0.1c0.9-4.1,1.7-8.1,2.6-12.1
		C6.2,4.8,6.2,4.7,6.1,4.7z"/>
	<path class="st1" d="M13.1,5.3c0,0.8-0.7,1.4-1.4,1.4c-0.7,0-1.3-0.7-1.3-1.4c0-0.7,0.6-1.4,1.4-1.4C12.4,3.9,13.1,4.6,13.1,5.3z"
		/>
</g>
</svg>
