<svg xmlns="http://www.w3.org/2000/svg" xmlns:xlink="http://www.w3.org/1999/xlink" xml:space="preserve" id="Layer_1" x="0" y="0" version="1.1" viewBox="-21 1 150 150"><style>.st4{clip-path:url(#SVGID_2_);fill:none}</style><defs><path id="SVGID_1_" d="M-21 1h150v150H-21z"/></defs><clipPath id="SVGID_2_"><use xlink:href="#SVGID_1_" style="overflow:visible"/></clipPath><path d="M127.8 156H-8.7c-3.7 0-6.8-3-6.8-6.8V12.7c0-3.7 3-6.8 6.8-6.8h136.5c3.7 0 6.7 3 6.7 6.8v136.5c0 3.7-3 6.8-6.7 6.8" style="opacity:.6;clip-path:url(#SVGID_2_);fill:#d1d1d1"/><linearGradient id="SVGID_3_" x1="54" x2="54" y1="151" y2="1" gradientUnits="userSpaceOnUse"><stop offset="0" style="stop-color:#007c8f"/><stop offset=".371" style="stop-color:#007088"/><stop offset="1" style="stop-color:#005377"/></linearGradient><path d="M-21 1h150v150H-21z" style="clip-path:url(#SVGID_2_);fill:url(#SVGID_3_)"/><path d="M90.3 110.9H16.9c-1.7 0-3-1.3-3-3V42.4c0-1.7 1.3-3 3-3h73.4c1.7 0 3 1.3 3 3v65.4c0 1.7-1.3 3.1-3 3.1z" style="clip-path:url(#SVGID_2_);fill:none;stroke:#7addfc;stroke-miterlimit:10"/><path d="M90.3 32.6H16.9c-1.7 0-3-1.3-3-3v-46.7c0-1.7 1.3-3 3-3h73.4c1.7 0 3 1.3 3 3v46.7c0 1.6-1.3 3-3 3zm0 137.9H16.9c-1.7 0-3-1.3-3-3v-46.7c0-1.7 1.3-3 3-3h73.4c1.7 0 3 1.3 3 3v46.7c0 1.6-1.3 3-3 3zm87-100.8h-73.4c-1.7 0-3-1.3-3-3v-82.3c0-1.7 1.3-3 3-3h73.4c1.7 0 3 1.3 3 3v82.3c0 1.6-1.4 3-3 3zm0 109.3h-73.4c-1.7 0-3-1.3-3-3V79.5c0-1.7 1.3-3 3-3h73.4c1.7 0 3 1.3 3 3V176c0 1.6-1.4 3-3 3zM3.8 69.7h-73.4c-1.7 0-3-1.3-3-3v-82.3c0-1.7 1.3-3 3-3H3.8c1.7 0 3 1.3 3 3v82.3c0 1.6-1.4 3-3 3zm0 109.3h-73.4c-1.7 0-3-1.3-3-3V79.5c0-1.7 1.3-3 3-3H3.8c1.7 0 3 1.3 3 3V176c0 1.6-1.4 3-3 3z" style="stroke:#529fdd;stroke-miterlimit:10;clip-path:url(#SVGID_2_);fill:none"/><path d="M115.7 151H-7.7c-7.4 0-13.3-6-13.3-13.3V14.3C-21 7-15 1-7.7 1h123.3C123 1 129 7 129 14.3v123.3c0 7.4-6 13.4-13.3 13.4" class="st4"/><path d="M122.3 151H-14.3c-3.7 0-6.8-3-6.8-6.8V7.8C-21 4-18 1-14.3 1h136.5c3.7 0 6.8 3 6.8 6.8v136.5c0 3.7-3 6.7-6.7 6.7" class="st4"/><path d="M81.4 86.2c.5-.7.9-1.5 1.2-2.2.1-.1.1-.2.1-.4 0-.1.1-.2 0-.2 0-.1-.8-.1-1.1.1-.2.2-1.1 2.7-3.9 5.2-1.6 1.4-3.3 1.9-4.9 1.7-1.2-.1-2.1-.9-2.6-2.2-.5-1.4-.6-3-.2-5.1.8-3.8 1.8-5.7 3.1-5.7.8 0 .9 1.4.1 4.3-.6 2-1.5 3.4-2.5 4.1-.4.2-.5.4-.5.5 0 .2.3.2.8 0q2.85-.75 5.1-2.1c1.5-1 2.5-2 2.8-3 .3-1.2-.1-2.2-1.1-3s-2.4-1.3-4-1.4-3.2.2-4.7.9c0-.1.1-.1.1-.2 2.5-3.9 4.3-7.5 5.3-11.1 1.1-3.5.8-6.1-.9-7.7q-.9-.75-2.7-1.2c-2.3-.6-4.8-1.4-2.9 1.2q.45.75.6 1.5c.4 1.8.3 4.1-.4 6.9s-1.8 5.8-3.2 8.8-2.9 5.8-4.6 8.2-3.3 4.1-4.9 5c-.1-.2-.1-.4-.1-.6V87c0-.5.1-.9.1-1.2.4-2.4.8-5 1.4-7.7s1.1-5.1 1.6-7.3c.4-1.4.6-2.4.7-3.1s0-1.2-.2-1.5-.8-.7-1.6-1.1c-.5-.3-1.1-.6-1.9-1-1.5-.9-1.6-.9-2.1.7-.4 1.4-1.2 3.4-2.3 6.1-1 2.7-2.2 5.4-3.5 8.3s-2.5 5.3-3.7 7.2c-1.2 2-2.1 3-2.9 3q-.3 0-.3-.3c0-.2-.1-.4-.1-.7 0-.5.1-1 .1-1.5.1-.5.2-.9.2-1.2.3-1.6.8-3.5 1.3-5.7.6-2.2 1.2-4.4 1.7-6.5q.9-3.15 1.5-5.4c.6-1.9 1-3.1 1.1-3.8.1-.6-.3-1.2-1-1.6-.6-.3-1.6-.9-2.9-1.7-1-.6-1.4-.5-2.4-.2-2.5.9-4.9 1.9-7.5 3.1-3 1.4-5.6 2.9-7.8 4.3-2.2 1.5-3.6 2.8-4.2 4-.7 1.5-.6 3 .2 4.4.5.8 1.1 1.5 1.9 2.1 3 2.1 2 .9 2.3-1.5.1-.9.4-1.7.8-2.4 1-1.7 2.8-3.6 5.6-5.8 2.7-2.1 5.7-3.9 9-5.2-.6 2.2-1.2 4.6-1.9 7.2s-1.3 5.1-1.9 7.5-1 4.4-1.3 6c-.2.8-.2 1.5-.2 2.2s.3 1.4.7 2.1c.5.7 1.1 1.2 1.8 1.6s1.4.6 2.2.6c1.6-.1 3.1-1.1 4.5-3.1 1.5-2 2.8-4.4 4-7.2s2.3-5.6 3.2-8.4c-.5 2.2-.9 4.4-1.2 6.5-.4 2.1-.6 4-.8 5.6-.1.8-.1 1.5-.1 2.2q.15 1.05.9 2.1c.5.7 1.1 1.2 1.9 1.6.7.4 1.5.6 2.3.7 1.5 0 3.6-1.4 6.3-4.1.6-.7 1.3-1.4 1.9-2.1-.1 1.9.5 3.4 2 4.5 1.7 1.3 3.7 2 6.1 2.1s4.7-.7 6.6-2.1c1.9-.6 3-1.8 3.9-3.1" style="clip-path:url(#SVGID_2_);fill:#fff"/><path d="M122.3 151H-14.3c-3.7 0-6.8-3-6.8-6.8V7.8C-21 4-18 1-14.3 1h136.5c3.7 0 6.8 3 6.8 6.8v136.5c0 3.7-3 6.7-6.7 6.7" class="st4"/><path d="M122.3 151H-14.3c-3.7 0-6.8-3-6.8-6.8V7.8C-21 4-18 1-14.3 1H129v143.3c0 3.7-3 6.7-6.7 6.7" class="st4"/></svg>