<svg xmlns="http://www.w3.org/2000/svg" viewBox="0 348.7 595.3 144.8"><path fill="#D0002E" d="M59.4 350.1H23.7c-6.5 0-12 5.3-12 12h10.7v34.7c.2 2.6 4.1 5.5 12 6.1 6.5.4 12.6-2 14.2-5.7V362c1.4.2 8.9 2 10.3 9.5 0 .4.2.8.2 1.2v36.7H48.5v-5.3c-1.6 2.4-4.9 4.7-7.5 5.3H23.3c-7.3-.4-11.8-5.3-12-12V362c-6 0-11.3 5.3-11.3 11.8v35.7c0 6.5 5.3 12 12 12h35.7c6.5 0 12-5.3 12-12 6.5 0 12-5.3 12-12V362c-.3-6.6-5.6-11.9-12.3-11.9m500.4 12.1c-6.7.2-10.7 0-14.2 5.3-2.4-4.1-7.5-5.1-10.5-5.1v47H546l-.2-33.9c.2-3.9 6.5-6.7 14-6.3 7.9.4 11.8 3.4 12 5.9v34.3h10.5v-35.3c-1-8.2-4.3-12.3-22.5-11.9m-323.8.3c.8 1.6 19.5 39.1 20.9 41.4 1.4 2.2 4.9 5.3 8.3 5.9 1.6.2 6.5.4 8.1 0 .4-.2 14.4-36.7 14.8-37.7.2-.8.8-5.3-4.1-9.3-6.3 15.8-12 31.4-15.8 40.6-6.5-13-12.4-25.5-17.6-34.5-3.2-5.3-7.9-6.3-8.9-6.3 0-.1-5.7-.1-5.7-.1m-54.3.2c-6.7.2-10.7 0-14.2 5.3-2.4-4.1-7.5-5.1-10.5-5.1v47.2h10.9l-.2-33.9c.2-3.9 6.5-6.7 14-6.3 7.9.4 11.8 3.4 12 6.1v34.3h10.5v-35.9c-.8-8.3-4.3-12.4-22.5-11.7m200.5 0c-6.7.2-10.7 0-14.2 5.3-2.4-4.1-7.5-5.1-10.5-5.1v47.2h10.7l-.2-33.9c.2-3.9 6.5-6.7 14-6.3 7.9.4 11.8 3.4 12 6.1v34.3h10.5v-35.9c-.8-8.3-4.1-12.4-22.3-11.7m-154.3-5.1c0 1-.8 1.8-1.8 1.8h-6.9c-1 0-1.8-.8-1.8-1.8v-6.9c0-1 .8-1.8 1.8-1.8h6.9c1 0 1.8.8 1.8 1.8zm203.2 5.3v-14.2H427v2.6c0 6.5-5.3 11.8-11.8 11.8h-2v6.7h7.1v39.9h10.5V370h11.8v-7.1zm80.6 32.8c0 3.9-3.2 7.1-7.1 7.1h-11.8c-3.9 0-7.1-3.2-7.1-7.1v-18.9c0-3.9 3.2-7.1 7.1-7.1h11.8c3.9 0 7.1 3.2 7.1 7.1zm-1.2-33H487c-6.5 0-11.8 5.3-11.8 11.8V398c0 6.5 5.3 11.8 11.8 11.8h23.5c6.5 0 11.8-5.3 11.8-11.8v-23.5c0-6.6-5.3-11.8-11.8-11.8m-195.4 6.6h11.8c3.9 0 7.1 3.2 7.1 7.1v3.6h-26v-3.6c0-4 3-7.1 7.1-7.1m29 17.5h.4v-12.6c0-6.5-5.3-11.8-11.8-11.8h-23.5c-6.5 0-11.8 5.3-11.8 11.8v23.5c0 6.5 4.1 12.6 22.5 12.2 14.8-.2 24.1-1.2 24.7-11.4h-11.2c-.8 1.4-3.6 4.7-13.4 4.3-10.3-.4-12.2-3.9-12.2-7.9v-8.5h36.1zm-116.2 22.9v-35.5c0-6.1-4.7-11.4-10.5-12v47.4h10.5zm-94.7-47.5v34.7c-.6 3.6-6.7 6.3-13.8 5.9-7.9-.4-11.8-3.4-12-6.1v-34.1H96.9v35.5c.8 8.3 4.3 12.4 22.5 12 6.7-.2 10.7 0 14-5.1v4.9H144v-35.7c-.2-6.1-4.9-11.1-10.8-12m329.1-4.6c0 1-.8 1.8-1.8 1.8h-6.9c-1 0-1.8-.8-1.8-1.8v-6.9c0-1 .8-1.8 1.8-1.8h6.9c1 0 1.8.8 1.8 1.8zm0 52.1v-35.5c0-6.1-4.7-11.4-10.5-12v47.4h10.5zM568.5 446c-4.1.2-6.5 0-8.5 3.2-1.4-2.4-4.7-3-6.5-3v28.4h6.5v-20.5c.2-2.2 3.9-4.1 8.3-3.9 4.7.2 7.1 2 7.3 3.6v20.7h6.5V453c-.4-5-2.4-7.4-13.6-7m-63.4 7.9v12.2c0 2.4-1.8 4.3-4.3 4.3h-7.1c-2 0-3.9-1.4-4.3-3.4v-12.8c.2-2.2 3.9-4.1 8.3-3.9 4.9.1 7.2 2 7.4 3.6m6.2-1v-.4c-.6-4.7-2.8-6.9-13.4-6.5-4.1.2-6.5 0-8.5 3.2-1.4-2.4-4.7-3-6.5-3v47.2h6.5v-18.7h14.8c3.9 0 7.1-3.2 7.1-7.1zm-132 15.2v-12.2c0-2.4-1.8-4.3-4.3-4.3h-7c-2 0-3.9 1.4-4.3 3.4v12.8c.2 2.2 3.9 4.1 8.3 3.9 4.9-.2 7.3-2 7.3-3.6m6.5 1v.4c-.6 4.7-2.8 6.9-13.4 6.5-4.1-.2-6.5 0-8.5-3.2-1.4 2.4-4.7 3-6.5 3v-48.9c5.5.2 6.5 4.9 6.5 4.9v15.6h14.8c3.9 0 7.1 3.2 7.1 7.1zm83.8-3.2c0 2.4-1.8 4.3-4.3 4.3h-7.1c-2.4 0-4.3-1.8-4.3-4.3v-11.4c0-2.4 1.8-4.3 4.3-4.3h7.1c2.4 0 4.3 1.8 4.3 4.3zM469 446h-14.2c-3.9 0-7.1 3.2-7.1 7.1v14.2c0 3.9 3.2 7.1 7.1 7.1H469c3.9 0 7.1-3.2 7.1-7.1v-14.2c0-4.1-3.3-7.1-7.1-7.1m59.8 4h7.1c2.4 0 4.3 1.8 4.3 4.3v2.2h-15.6v-2.2c-.1-2.4 1.9-4.3 4.2-4.3m17.6 10.6h.2v-7.5c0-3.9-3.2-7.1-7.1-7.1h-14.2c-3.9 0-7.1 3.2-7.1 7.1v14.2c0 3.9 2.4 7.5 13.6 7.3 8.9-.2 14.6-.8 14.8-6.9h-6.7c-.4.8-2.2 2.8-8.1 2.6-6.3-.2-7.3-2.4-7.3-4.7v-5.1c0 .1 21.9.1 21.9.1m-143.1-8.9h7.1c2.4 0 4.3 1.8 4.3 4.3v2.2H399V456c0-2.5 1.8-4.3 4.3-4.3m17.6 10.5h.2v-7.5c0-3.9-3.2-7.1-7.1-7.1h-14.2c-3.9 0-7.1 3.2-7.1 7.1v14.2c0 3.9 2.4 7.5 13.6 7.3 8.9-.2 14.6-.8 14.8-6.9h-6.7c-.4.8-2.2 2.8-8.1 2.6-6.3-.2-7.3-2.4-7.3-4.7v-5.1c0 .1 21.9.1 21.9.1m167.9 5.3h6.5v7.1h-6.5z"/></svg>