<svg xmlns="http://www.w3.org/2000/svg" xmlns:xlink="http://www.w3.org/1999/xlink" viewBox="0 0 519 128"><defs><style>.a{fill:none;}.b{fill:#285675;}.c{fill:#2e5779;}.d{clip-path:url(#a);}.e{fill:#70c8e1;}.f{fill:#14a6cd;}</style><clipPath id="a"><rect class="a" x="8" y="16.29" width="387.6" height="105.45"/></clipPath></defs><path class="b" d="M148.08,13.32a8.21,8.21,0,0,1-.52,3,6.5,6.5,0,0,1-3.76,3.81,8,8,0,0,1-3,.53h-5.5V6h5.5a8,8,0,0,1,3,.53A6.38,6.38,0,0,1,146.08,8a6.64,6.64,0,0,1,1.48,2.32A8.21,8.21,0,0,1,148.08,13.32Zm-2,0a7.55,7.55,0,0,0-.36-2.42,5.15,5.15,0,0,0-1.05-1.8A4.5,4.5,0,0,0,143,8a5.66,5.66,0,0,0-2.14-.39h-3.5V19.05h3.5a5.66,5.66,0,0,0,2.14-.39,4.48,4.48,0,0,0,1.64-1.12,5.15,5.15,0,0,0,1.05-1.8A7.55,7.55,0,0,0,146,13.32Z"/><path class="b" d="M153.35,7a1.08,1.08,0,0,1-.11.5,1.26,1.26,0,0,1-.28.4,1.37,1.37,0,0,1-.42.29,1.3,1.3,0,0,1-1,0,1.46,1.46,0,0,1-.41-.29,1.26,1.26,0,0,1-.28-.4,1.21,1.21,0,0,1-.1-.5,1.25,1.25,0,0,1,.1-.51,1.34,1.34,0,0,1,.28-.42,1.42,1.42,0,0,1,.41-.28,1.3,1.3,0,0,1,1,0,1.29,1.29,0,0,1,.7.7A1.12,1.12,0,0,1,153.35,7Zm-.41,3.26V20.66h-1.82V10.28Z"/><path class="b" d="M160.68,10.11a4.58,4.58,0,0,1,1.72.32,3.84,3.84,0,0,1,1.37.9,4.08,4.08,0,0,1,.89,1.45,5.55,5.55,0,0,1,.33,2,1.09,1.09,0,0,1-.1.57.36.36,0,0,1-.34.14h-6.91a5.82,5.82,0,0,0,.26,1.72,3.54,3.54,0,0,0,.68,1.21,2.71,2.71,0,0,0,1,.73,3.59,3.59,0,0,0,1.34.24,3.74,3.74,0,0,0,1.18-.16,6.7,6.7,0,0,0,.86-.34,6.94,6.94,0,0,0,.6-.35.86.86,0,0,1,.41-.16.4.4,0,0,1,.35.18l.51.67a3.28,3.28,0,0,1-.81.71,4.5,4.5,0,0,1-1,.49,7,7,0,0,1-1.11.3,7.3,7.3,0,0,1-1.14.09,5.32,5.32,0,0,1-2-.36,4.35,4.35,0,0,1-1.57-1.07,4.86,4.86,0,0,1-1-1.73,7.25,7.25,0,0,1-.37-2.38,5.85,5.85,0,0,1,.34-2,4.94,4.94,0,0,1,1-1.64,4.42,4.42,0,0,1,1.53-1.08A5.07,5.07,0,0,1,160.68,10.11Zm0,1.35a2.8,2.8,0,0,0-2.08.76,3.6,3.6,0,0,0-.94,2.12h5.65a3.59,3.59,0,0,0-.18-1.17,2.62,2.62,0,0,0-.51-.91,2.25,2.25,0,0,0-.83-.59A2.75,2.75,0,0,0,160.72,11.46Z"/><path class="b" d="M185.26,13.25a8,8,0,0,1-.54,3,7.13,7.13,0,0,1-1.53,2.35,6.82,6.82,0,0,1-2.37,1.53,8.33,8.33,0,0,1-3.06.54H172.1V5.84h5.66a8.13,8.13,0,0,1,3.06.55,6.94,6.94,0,0,1,2.37,1.52,7.13,7.13,0,0,1,1.53,2.35A8,8,0,0,1,185.26,13.25Zm-2.82,0a6.81,6.81,0,0,0-.33-2.19,4.78,4.78,0,0,0-.93-1.64,4,4,0,0,0-1.47-1,5.06,5.06,0,0,0-2-.36h-2.88V18.47h2.88a5.06,5.06,0,0,0,2-.36,4,4,0,0,0,1.47-1,4.78,4.78,0,0,0,.93-1.64A6.81,6.81,0,0,0,182.44,13.25Z"/><path class="b" d="M192,10a5.09,5.09,0,0,1,1.83.32,3.89,3.89,0,0,1,1.44.93,4.14,4.14,0,0,1,.95,1.49,5.8,5.8,0,0,1,.33,2,3.18,3.18,0,0,1,0,.47.89.89,0,0,1-.09.3.43.43,0,0,1-.18.15.79.79,0,0,1-.29.05h-6.5a3.69,3.69,0,0,0,.87,2.38,2.75,2.75,0,0,0,2,.76,3.3,3.3,0,0,0,1.06-.15,4.87,4.87,0,0,0,.78-.31l.59-.32a.93.93,0,0,1,.48-.15.47.47,0,0,1,.27.07.44.44,0,0,1,.19.17l.74.92a4.09,4.09,0,0,1-.94.83,5.22,5.22,0,0,1-1.09.53,5.94,5.94,0,0,1-1.16.28,7.46,7.46,0,0,1-1.14.08,5.68,5.68,0,0,1-2-.36,4.43,4.43,0,0,1-1.64-1.08,5,5,0,0,1-1.1-1.76,6.73,6.73,0,0,1-.4-2.43,5.89,5.89,0,0,1,.35-2,4.78,4.78,0,0,1,1-1.65,4.55,4.55,0,0,1,1.59-1.11A5.26,5.26,0,0,1,192,10Zm.06,1.81a2.35,2.35,0,0,0-1.74.63,3.17,3.17,0,0,0-.8,1.77h4.76a3.05,3.05,0,0,0-.13-.92,2.28,2.28,0,0,0-.41-.77,2,2,0,0,0-.7-.52A2.48,2.48,0,0,0,192.09,11.79Z"/><path class="b" d="M201.37,10.14v6.69a2.23,2.23,0,0,0,.45,1.49,1.64,1.64,0,0,0,1.33.53,2.6,2.6,0,0,0,1.23-.3,4.07,4.07,0,0,0,1.09-.8V10.14H208V20.66h-1.54a.62.62,0,0,1-.65-.46l-.17-.84a7.49,7.49,0,0,1-.68.6,4.35,4.35,0,0,1-.74.46,4,4,0,0,1-.86.3,4.31,4.31,0,0,1-1,.1,3.67,3.67,0,0,1-1.53-.29,3,3,0,0,1-1.11-.82,3.61,3.61,0,0,1-.68-1.27,5.44,5.44,0,0,1-.23-1.61V10.14Z"/><path class="b" d="M214.57,20.82a2.74,2.74,0,0,1-2.1-.77,3,3,0,0,1-.74-2.14V12h-1.06a.52.52,0,0,1-.36-.13.54.54,0,0,1-.14-.4v-1l1.69-.27.53-2.87a.5.5,0,0,1,.19-.32.56.56,0,0,1,.37-.11h1.32v3.31H217V12h-2.76v5.7a1.15,1.15,0,0,0,.24.77.85.85,0,0,0,.66.27,1.09,1.09,0,0,0,.39-.05l.28-.12.21-.12a.41.41,0,0,1,.18,0,.36.36,0,0,1,.19,0,.86.86,0,0,1,.15.17l.76,1.23a3.83,3.83,0,0,1-1.27.7A4.64,4.64,0,0,1,214.57,20.82Z"/><path class="b" d="M225.7,12.19a.6.6,0,0,1-.21.23.52.52,0,0,1-.29.07.87.87,0,0,1-.39-.1l-.49-.23a3.8,3.8,0,0,0-.63-.23,3,3,0,0,0-.84-.1,1.93,1.93,0,0,0-1.17.31,1,1,0,0,0-.43.83.77.77,0,0,0,.22.57,1.87,1.87,0,0,0,.58.41,6,6,0,0,0,.83.31l.94.3c.32.11.63.24.94.38a3.26,3.26,0,0,1,.83.53,2.48,2.48,0,0,1,.58.77,2.44,2.44,0,0,1,.22,1.09,3.43,3.43,0,0,1-.28,1.4,3,3,0,0,1-.81,1.11,3.67,3.67,0,0,1-1.31.72,5.55,5.55,0,0,1-1.8.26,6.15,6.15,0,0,1-1.06-.09,7.71,7.71,0,0,1-1-.27,7.13,7.13,0,0,1-.88-.41,4.34,4.34,0,0,1-.71-.52l.58-1a.87.87,0,0,1,.27-.27.75.75,0,0,1,.39-.09.9.9,0,0,1,.45.13l.48.29a5,5,0,0,0,.65.29,2.87,2.87,0,0,0,.95.13,2.3,2.3,0,0,0,.78-.11,1.57,1.57,0,0,0,.53-.28,1.08,1.08,0,0,0,.31-.4,1.36,1.36,0,0,0,.09-.48.81.81,0,0,0-.22-.6,1.72,1.72,0,0,0-.58-.41,6,6,0,0,0-.83-.32l-.95-.3a10.09,10.09,0,0,1-1-.38,3.46,3.46,0,0,1-.83-.56,2.48,2.48,0,0,1-.58-.83,2.87,2.87,0,0,1-.22-1.19A3,3,0,0,1,219.1,12a2.9,2.9,0,0,1,.76-1,3.79,3.79,0,0,1,1.24-.7,5.68,5.68,0,0,1,3.69.1,4.47,4.47,0,0,1,1.49.94Z"/><path class="b" d="M236.22,12.37a1.14,1.14,0,0,1-.22.22.48.48,0,0,1-.31.09.68.68,0,0,1-.38-.12l-.44-.27a3.48,3.48,0,0,0-.61-.27,3.15,3.15,0,0,0-.88-.11,2.72,2.72,0,0,0-1.17.24,2.22,2.22,0,0,0-.83.69,3.13,3.13,0,0,0-.5,1.09,5.85,5.85,0,0,0-.16,1.45,5.71,5.71,0,0,0,.18,1.5,3.29,3.29,0,0,0,.51,1.1,2.32,2.32,0,0,0,.82.68,2.56,2.56,0,0,0,1.09.23,2.69,2.69,0,0,0,1-.15,3.07,3.07,0,0,0,.63-.33l.45-.33a.64.64,0,0,1,.42-.15.5.5,0,0,1,.46.24l.73.92a4.42,4.42,0,0,1-.91.83,5,5,0,0,1-1,.53,5.14,5.14,0,0,1-1.09.28,7.12,7.12,0,0,1-1.12.08,4.75,4.75,0,0,1-1.84-.36,4.37,4.37,0,0,1-1.5-1.06,5.07,5.07,0,0,1-1-1.71,6.56,6.56,0,0,1-.38-2.3,6.51,6.51,0,0,1,.34-2.15,4.75,4.75,0,0,1,1-1.71A4.47,4.47,0,0,1,231,10.39a5.6,5.6,0,0,1,2.2-.41,5.26,5.26,0,0,1,2.06.38,4.9,4.9,0,0,1,1.6,1.09Z"/><path class="b" d="M239,20.66V5.43h2.53v5.85a5.37,5.37,0,0,1,1.35-.94,4,4,0,0,1,1.74-.36,3.82,3.82,0,0,1,1.52.29,3.1,3.1,0,0,1,1.12.82,3.62,3.62,0,0,1,.67,1.26,5.2,5.2,0,0,1,.23,1.62v6.69h-2.53V14a2.28,2.28,0,0,0-.44-1.49,1.64,1.64,0,0,0-1.34-.53,2.6,2.6,0,0,0-1.23.3,3.91,3.91,0,0,0-1.09.81v7.6Z"/><path class="b" d="M255.43,10a5.17,5.17,0,0,1,1.83.32,3.89,3.89,0,0,1,1.44.93,4.12,4.12,0,0,1,.94,1.49,5.58,5.58,0,0,1,.34,2,3,3,0,0,1,0,.47.59.59,0,0,1-.09.3.34.34,0,0,1-.18.15.74.74,0,0,1-.28.05h-6.5a3.59,3.59,0,0,0,.87,2.38,2.72,2.72,0,0,0,2,.76,3.35,3.35,0,0,0,1.06-.15,4.87,4.87,0,0,0,.78-.31l.58-.32a1,1,0,0,1,.49-.15A.5.5,0,0,1,259,18a.6.6,0,0,1,.19.17l.74.92a4.14,4.14,0,0,1-.95.83,5,5,0,0,1-1.09.53,5.77,5.77,0,0,1-1.16.28,7.46,7.46,0,0,1-1.14.08,5.68,5.68,0,0,1-2-.36,4.51,4.51,0,0,1-1.64-1.08,5,5,0,0,1-1.09-1.76,6.73,6.73,0,0,1-.4-2.43,5.89,5.89,0,0,1,.34-2,5.1,5.1,0,0,1,1-1.65,4.74,4.74,0,0,1,1.59-1.11A5.31,5.31,0,0,1,255.43,10Zm0,1.81a2.31,2.31,0,0,0-1.73.63,3,3,0,0,0-.8,1.77h4.75a3.05,3.05,0,0,0-.13-.92,2.12,2.12,0,0,0-.41-.77,2,2,0,0,0-.7-.52A2.45,2.45,0,0,0,255.48,11.79Z"/><path class="b" d="M280,20.66h-2.13a.92.92,0,0,1-.59-.18,1,1,0,0,1-.34-.44l-1.1-3h-6.14l-1.11,3a1.05,1.05,0,0,1-.32.43.91.91,0,0,1-.59.19h-2.15l5.83-14.82h2.82Zm-9.6-5.6h4.73l-1.81-4.93c-.08-.21-.17-.47-.27-.77s-.19-.62-.29-1c-.09.35-.19.67-.28,1s-.18.56-.27.78Z"/><path class="b" d="M281.78,20.66V10.14h1.55a.62.62,0,0,1,.64.47l.18.83a5.42,5.42,0,0,1,.67-.6,4.44,4.44,0,0,1,.75-.46,3.8,3.8,0,0,1,.84-.3,4.37,4.37,0,0,1,1-.1,3.82,3.82,0,0,1,1.52.29,3.1,3.1,0,0,1,1.12.82,3.62,3.62,0,0,1,.67,1.26,5.2,5.2,0,0,1,.23,1.62v6.69h-2.53V14a2.28,2.28,0,0,0-.44-1.49,1.64,1.64,0,0,0-1.34-.53,2.6,2.6,0,0,0-1.23.3,4.06,4.06,0,0,0-1.09.81v7.6Z"/><path class="b" d="M292.56,10.14h2a.83.83,0,0,1,.48.14.56.56,0,0,1,.25.34l1.51,5.61c.08.31.15.61.2.9l.15.89c.07-.3.15-.59.24-.89s.17-.59.27-.9l1.74-5.63a.6.6,0,0,1,.25-.34.69.69,0,0,1,.43-.14h1.12a.78.78,0,0,1,.46.14.63.63,0,0,1,.24.34l1.72,5.73.25.86c.07.28.14.56.2.84.05-.3.11-.59.16-.88s.14-.6.22-.92L306,10.62a.6.6,0,0,1,.25-.34.77.77,0,0,1,.45-.14h1.92L305.3,20.66h-2c-.21,0-.37-.15-.47-.45l-1.89-6.08c-.06-.2-.12-.4-.17-.6s-.1-.4-.13-.6c0,.21-.09.41-.13.61s-.11.41-.17.61l-1.91,6.06a.56.56,0,0,1-.56.45H295.9Z"/><path class="b" d="M318.71,20.66h-1.14a1.24,1.24,0,0,1-.56-.11.67.67,0,0,1-.31-.43l-.22-.75a8.37,8.37,0,0,1-.79.63,5.24,5.24,0,0,1-.79.46,4.39,4.39,0,0,1-.87.27,5.41,5.41,0,0,1-1,.09,4.4,4.4,0,0,1-1.23-.17,2.88,2.88,0,0,1-1-.55,2.4,2.4,0,0,1-.63-.89A3.19,3.19,0,0,1,310,18a2.45,2.45,0,0,1,.31-1.18,3,3,0,0,1,1-1,6.85,6.85,0,0,1,1.94-.78,12.57,12.57,0,0,1,3-.31V14a2.34,2.34,0,0,0-.45-1.57A1.6,1.6,0,0,0,314.5,12a3.37,3.37,0,0,0-1,.14,4.3,4.3,0,0,0-.71.32l-.56.33a1.19,1.19,0,0,1-.56.14.72.72,0,0,1-.44-.13,1.18,1.18,0,0,1-.3-.33l-.46-.81A6.25,6.25,0,0,1,314.82,10a4.24,4.24,0,0,1,1.64.3,3.54,3.54,0,0,1,1.23.84,3.61,3.61,0,0,1,.76,1.29,5,5,0,0,1,.26,1.64Zm-4.92-1.58a3,3,0,0,0,1.34-.28,3.06,3.06,0,0,0,.56-.35,4.85,4.85,0,0,0,.55-.49V16.2a10.56,10.56,0,0,0-1.85.14,4.56,4.56,0,0,0-1.19.36,1.48,1.48,0,0,0-.64.5,1.13,1.13,0,0,0-.19.63,1.11,1.11,0,0,0,.39,1A1.65,1.65,0,0,0,313.79,19.08Z"/><path class="b" d="M324.31,5.43V20.66h-2.53V5.43Z"/><path class="b" d="M331,20.82a2.74,2.74,0,0,1-2.1-.77,3,3,0,0,1-.74-2.14V12h-1.06a.52.52,0,0,1-.36-.13.51.51,0,0,1-.15-.4v-1l1.7-.27.53-2.87A.5.5,0,0,1,329,7a.56.56,0,0,1,.37-.11h1.31v3.31h2.77V12h-2.77v5.7a1.15,1.15,0,0,0,.25.77.84.84,0,0,0,.66.27,1.12,1.12,0,0,0,.39-.05l.28-.12.21-.12a.41.41,0,0,1,.18,0,.36.36,0,0,1,.19,0,1.38,1.38,0,0,1,.15.17l.76,1.23a3.83,3.83,0,0,1-1.27.7A4.69,4.69,0,0,1,331,20.82Z"/><path class="b" d="M342.16,12.19a.68.68,0,0,1-.21.23.52.52,0,0,1-.29.07.87.87,0,0,1-.39-.1l-.49-.23a4.61,4.61,0,0,0-.63-.23,3,3,0,0,0-.84-.1,2,2,0,0,0-1.18.31,1,1,0,0,0-.43.83.81.81,0,0,0,.22.57,2.05,2.05,0,0,0,.59.41,6.41,6.41,0,0,0,.82.31l.95.3c.32.11.63.24.94.38a3,3,0,0,1,.82.53,2.36,2.36,0,0,1,.59.77,2.44,2.44,0,0,1,.22,1.09,3.43,3.43,0,0,1-.28,1.4,3,3,0,0,1-.81,1.11,3.67,3.67,0,0,1-1.31.72,5.59,5.59,0,0,1-1.8.26,6.06,6.06,0,0,1-1.06-.09,7.71,7.71,0,0,1-1-.27,6.51,6.51,0,0,1-.88-.41,4,4,0,0,1-.71-.52l.58-1a.87.87,0,0,1,.27-.27.75.75,0,0,1,.39-.09.87.87,0,0,1,.44.13l.49.29a5,5,0,0,0,.65.29,2.87,2.87,0,0,0,.95.13,2.2,2.2,0,0,0,.77-.11,1.53,1.53,0,0,0,.54-.28,1,1,0,0,0,.3-.4,1.18,1.18,0,0,0,.1-.48.81.81,0,0,0-.22-.6,1.83,1.83,0,0,0-.58-.41,6.55,6.55,0,0,0-.83-.32l-1-.3c-.32-.11-.64-.24-.95-.38a3.46,3.46,0,0,1-.83-.56,2.48,2.48,0,0,1-.58-.83,2.87,2.87,0,0,1-.22-1.19,3,3,0,0,1,.25-1.23,2.79,2.79,0,0,1,.76-1,3.79,3.79,0,0,1,1.24-.7,5.68,5.68,0,0,1,3.69.1,4.57,4.57,0,0,1,1.49.94Z"/><path class="b" d="M345.29,20.66V5.43h2.53v5.85a5.37,5.37,0,0,1,1.35-.94,4,4,0,0,1,1.74-.36,3.82,3.82,0,0,1,1.52.29,3.1,3.1,0,0,1,1.12.82,3.62,3.62,0,0,1,.67,1.26,5.2,5.2,0,0,1,.23,1.62v6.69h-2.53V14a2.28,2.28,0,0,0-.44-1.49,1.64,1.64,0,0,0-1.34-.53,2.6,2.6,0,0,0-1.23.3,4.06,4.06,0,0,0-1.09.81v7.6Z"/><path class="b" d="M361.84,10a5.83,5.83,0,0,1,2.14.38,4.47,4.47,0,0,1,1.63,1.08,4.66,4.66,0,0,1,1.05,1.7,6.38,6.38,0,0,1,.37,2.24,6.42,6.42,0,0,1-.37,2.26,4.78,4.78,0,0,1-1.05,1.71A4.63,4.63,0,0,1,364,20.44a6.37,6.37,0,0,1-4.28,0,4.8,4.8,0,0,1-1.65-1.09A4.93,4.93,0,0,1,357,17.64a6.85,6.85,0,0,1,0-4.5,4.79,4.79,0,0,1,1.05-1.7,4.64,4.64,0,0,1,1.65-1.08A5.86,5.86,0,0,1,361.84,10Zm0,8.89a2.26,2.26,0,0,0,2-.88,4.44,4.44,0,0,0,.63-2.59,4.46,4.46,0,0,0-.63-2.59,2.22,2.22,0,0,0-2-.89,2.27,2.27,0,0,0-2,.89,4.48,4.48,0,0,0-.63,2.59,4.43,4.43,0,0,0,.63,2.58A2.27,2.27,0,0,0,361.84,18.87Z"/><path class="b" d="M372.87,20.82a2.74,2.74,0,0,1-2.1-.77,3,3,0,0,1-.74-2.14V12H369a.52.52,0,0,1-.36-.13.51.51,0,0,1-.15-.4v-1l1.7-.27.53-2.87a.5.5,0,0,1,.19-.32.56.56,0,0,1,.37-.11h1.31v3.31h2.77V12h-2.77v5.7a1.15,1.15,0,0,0,.25.77.84.84,0,0,0,.66.27,1.15,1.15,0,0,0,.39-.05l.28-.12.21-.12a.41.41,0,0,1,.18,0,.36.36,0,0,1,.19,0,1.38,1.38,0,0,1,.15.17l.76,1.23a3.83,3.83,0,0,1-1.27.7A4.69,4.69,0,0,1,372.87,20.82Z"/><path class="b" d="M380.46,5.43V20.66h-2.54V5.43Z"/><path class="b" d="M386.8,7.08a1.39,1.39,0,0,1-.13.61,1.69,1.69,0,0,1-.87.85,1.53,1.53,0,0,1-.64.13,1.47,1.47,0,0,1-.62-.13A2,2,0,0,1,384,8.2a1.82,1.82,0,0,1-.34-.51,1.39,1.39,0,0,1-.13-.61,1.53,1.53,0,0,1,.13-.64,1.82,1.82,0,0,1,.34-.51,1.75,1.75,0,0,1,.51-.34,1.47,1.47,0,0,1,.62-.13,1.64,1.64,0,0,1,1.15.47,1.68,1.68,0,0,1,.36.51A1.53,1.53,0,0,1,386.8,7.08Zm-.38,3.06V20.66h-2.53V10.14Z"/><path class="b" d="M389.69,20.66V10.14h1.55a.64.64,0,0,1,.65.47l.17.83a6.26,6.26,0,0,1,.67-.6,4.87,4.87,0,0,1,.75-.46,3.71,3.71,0,0,1,.85-.3,4.22,4.22,0,0,1,1-.1,3.9,3.9,0,0,1,1.53.29,3.15,3.15,0,0,1,1.11.82,3.46,3.46,0,0,1,.67,1.26,5.2,5.2,0,0,1,.24,1.62v6.69h-2.54V14a2.28,2.28,0,0,0-.44-1.49,1.64,1.64,0,0,0-1.34-.53,2.6,2.6,0,0,0-1.23.3,4.22,4.22,0,0,0-1.09.81v7.6Z"/><path class="b" d="M405.91,10a5.17,5.17,0,0,1,1.83.32,3.89,3.89,0,0,1,1.44.93,4.12,4.12,0,0,1,.94,1.49,5.58,5.58,0,0,1,.34,2,3,3,0,0,1,0,.47.59.59,0,0,1-.09.3.34.34,0,0,1-.18.15.74.74,0,0,1-.28.05h-6.5a3.59,3.59,0,0,0,.87,2.38,2.72,2.72,0,0,0,2,.76,3.35,3.35,0,0,0,1.06-.15,4.87,4.87,0,0,0,.78-.31l.58-.32a1,1,0,0,1,.49-.15.44.44,0,0,1,.26.07.47.47,0,0,1,.2.17l.74.92a4.14,4.14,0,0,1-.95.83,5,5,0,0,1-1.09.53,5.77,5.77,0,0,1-1.16.28,7.46,7.46,0,0,1-1.14.08,5.68,5.68,0,0,1-2-.36,4.51,4.51,0,0,1-1.64-1.08,5,5,0,0,1-1.09-1.76,6.73,6.73,0,0,1-.4-2.43,5.89,5.89,0,0,1,.34-2,5.1,5.1,0,0,1,1-1.65,4.74,4.74,0,0,1,1.59-1.11A5.31,5.31,0,0,1,405.91,10Zm0,1.81a2.31,2.31,0,0,0-1.73.63,3,3,0,0,0-.8,1.77h4.75a3.05,3.05,0,0,0-.13-.92,2.12,2.12,0,0,0-.41-.77,2,2,0,0,0-.7-.52A2.45,2.45,0,0,0,406,11.79Z"/><path class="b" d="M417.45,20.66V5.56h1.82v6.11a5.66,5.66,0,0,1,1.48-1.13,4,4,0,0,1,1.86-.43,3.77,3.77,0,0,1,1.51.29,2.86,2.86,0,0,1,1.08.79,3.64,3.64,0,0,1,.66,1.25,5.44,5.44,0,0,1,.23,1.61v6.61h-1.83V14.05a2.77,2.77,0,0,0-.53-1.83,2,2,0,0,0-1.65-.65,3.06,3.06,0,0,0-1.51.39,5.09,5.09,0,0,0-1.3,1v7.65Z"/><path class="b" d="M433.37,10.11a4.62,4.62,0,0,1,1.72.32,3.81,3.81,0,0,1,1.36.9,4.24,4.24,0,0,1,.9,1.45,5.79,5.79,0,0,1,.32,2,1.23,1.23,0,0,1-.09.57.37.37,0,0,1-.35.14h-6.91a5.8,5.8,0,0,0,.27,1.72,3.38,3.38,0,0,0,.68,1.21,2.56,2.56,0,0,0,1,.73,3.54,3.54,0,0,0,1.33.24,3.81,3.81,0,0,0,1.19-.16,6.52,6.52,0,0,0,.85-.34,6.94,6.94,0,0,0,.6-.35.85.85,0,0,1,.42-.16.41.41,0,0,1,.35.18l.51.67a3.69,3.69,0,0,1-.81.71,4.71,4.71,0,0,1-1,.49,7,7,0,0,1-1.11.3,7.49,7.49,0,0,1-1.14.09,5.29,5.29,0,0,1-2-.36,4.26,4.26,0,0,1-1.57-1.07,4.72,4.72,0,0,1-1-1.73,7,7,0,0,1-.37-2.38,6.09,6.09,0,0,1,.33-2,4.8,4.8,0,0,1,1-1.64,4.42,4.42,0,0,1,1.53-1.08A5,5,0,0,1,433.37,10.11Zm0,1.35a2.79,2.79,0,0,0-2.08.76,3.61,3.61,0,0,0-.95,2.12H436a3.89,3.89,0,0,0-.17-1.17,2.64,2.64,0,0,0-.52-.91,2.21,2.21,0,0,0-.82-.59A2.78,2.78,0,0,0,433.41,11.46Z"/><path class="b" d="M442.85,7a1.22,1.22,0,0,1-.11.5,1.28,1.28,0,0,1-.29.4,1.33,1.33,0,0,1-.41.29,1.24,1.24,0,0,1-.5.1,1.18,1.18,0,0,1-.5-.1,1.33,1.33,0,0,1-.41-.29,1.26,1.26,0,0,1-.28-.4,1.22,1.22,0,0,1-.11-.5,1.26,1.26,0,0,1,.11-.51,1.34,1.34,0,0,1,.28-.42,1.3,1.3,0,0,1,.41-.28,1.18,1.18,0,0,1,.5-.1,1.24,1.24,0,0,1,.5.1,1.3,1.3,0,0,1,.41.28,1.37,1.37,0,0,1,.29.42A1.26,1.26,0,0,1,442.85,7Zm-.41,3.26V20.66h-1.83V10.28Z"/><path class="b" d="M451.47,5.76a5.09,5.09,0,0,1,1.83.3,4,4,0,0,1,1.27.79,3.06,3.06,0,0,1,.75,1A2.79,2.79,0,0,1,455.56,9a2.39,2.39,0,0,1-.22,1,3.13,3.13,0,0,1-.55.78,4.36,4.36,0,0,1-.71.59c-.26.18-.5.34-.72.51a3.29,3.29,0,0,0-.54.5.91.91,0,0,0,.05,1.26,3.42,3.42,0,0,0,.68.5l.88.47a4.09,4.09,0,0,1,.89.6,3,3,0,0,1,.68.88,2.87,2.87,0,0,1,.27,1.32,3.26,3.26,0,0,1-.29,1.43,3.1,3.1,0,0,1-.8,1.06,3.54,3.54,0,0,1-1.21.66,4.54,4.54,0,0,1-1.5.23,4.38,4.38,0,0,1-1.8-.35,5.13,5.13,0,0,1-1.43-.91l.42-.69a.81.81,0,0,1,.2-.21.56.56,0,0,1,.3-.07.69.69,0,0,1,.38.14c.14.1.3.21.49.32a3.81,3.81,0,0,0,.67.32,2.76,2.76,0,0,0,.93.14,2.09,2.09,0,0,0,.81-.14,1.88,1.88,0,0,0,.61-.37,1.68,1.68,0,0,0,.38-.56,1.87,1.87,0,0,0,.13-.71,1.45,1.45,0,0,0-.28-.93,2.71,2.71,0,0,0-.72-.62,6.78,6.78,0,0,0-.93-.48,5,5,0,0,1-.94-.51,2.74,2.74,0,0,1-.71-.73,1.86,1.86,0,0,1-.29-1.1,1.94,1.94,0,0,1,.23-.95,2.83,2.83,0,0,1,.57-.72,5.48,5.48,0,0,1,.75-.6,8.7,8.7,0,0,0,.74-.59,3,3,0,0,0,.57-.67,1.51,1.51,0,0,0,.23-.85,2,2,0,0,0-.12-.67,1.72,1.72,0,0,0-.42-.6,2.29,2.29,0,0,0-.74-.43,3.26,3.26,0,0,0-1.1-.17,3.42,3.42,0,0,0-1.27.22,2.46,2.46,0,0,0-1,.64,3,3,0,0,0-.63,1.08,4.56,4.56,0,0,0-.22,1.5V20.66h-1.83V10.49a5,5,0,0,1,.35-1.93,4.23,4.23,0,0,1,1-1.5,4.36,4.36,0,0,1,1.58-1A5.8,5.8,0,0,1,451.47,5.76Z"/><path class="b" d="M462.11,20.82a2.49,2.49,0,0,1-1.89-.68,2.76,2.76,0,0,1-.67-2V11.8H458.3a.42.42,0,0,1-.27-.09.38.38,0,0,1-.11-.31v-.72l1.7-.22L460,7.25a.36.36,0,0,1,.13-.25.46.46,0,0,1,.29-.09h.92v3.57h3V11.8h-3V18a1.33,1.33,0,0,0,.32,1,1.11,1.11,0,0,0,.82.32,1.44,1.44,0,0,0,.49-.08,2.14,2.14,0,0,0,.37-.17l.26-.17a.32.32,0,0,1,.19-.07.29.29,0,0,1,.25.17l.54.87a3.29,3.29,0,0,1-1.14.69A3.78,3.78,0,0,1,462.11,20.82Z"/><path class="b" d="M473.41,10.28V21.43a3.92,3.92,0,0,1-.16,1.16,2.47,2.47,0,0,1-.52.94,2.32,2.32,0,0,1-.91.63,3.57,3.57,0,0,1-1.34.23,3.76,3.76,0,0,1-.61-.05,3.87,3.87,0,0,1-.56-.15l.08-1a.24.24,0,0,1,.1-.17.61.61,0,0,1,.22,0h.4a1.48,1.48,0,0,0,1.14-.38,1.74,1.74,0,0,0,.34-1.2V10.28ZM473.82,7a1.08,1.08,0,0,1-.11.5,1.26,1.26,0,0,1-.28.4,1.37,1.37,0,0,1-.42.29,1.18,1.18,0,0,1-.5.1,1.21,1.21,0,0,1-.5-.1,1.46,1.46,0,0,1-.41-.29,1.26,1.26,0,0,1-.28-.4,1.21,1.21,0,0,1-.1-.5,1.25,1.25,0,0,1,.1-.51,1.34,1.34,0,0,1,.28-.42,1.42,1.42,0,0,1,.41-.28,1.21,1.21,0,0,1,.5-.1,1.18,1.18,0,0,1,.5.1,1.29,1.29,0,0,1,.7.7A1.12,1.12,0,0,1,473.82,7Z"/><path class="b" d="M481.11,10.11a4.58,4.58,0,0,1,1.72.32,3.84,3.84,0,0,1,1.37.9,4.08,4.08,0,0,1,.89,1.45,5.55,5.55,0,0,1,.33,2,1.2,1.2,0,0,1-.1.57c-.06.1-.17.14-.35.14h-6.9a5.82,5.82,0,0,0,.26,1.72A3.54,3.54,0,0,0,479,18.4a2.71,2.71,0,0,0,1,.73,3.59,3.59,0,0,0,1.34.24,3.78,3.78,0,0,0,1.18-.16,6.7,6.7,0,0,0,.86-.34,6.94,6.94,0,0,0,.6-.35.82.82,0,0,1,.41-.16.4.4,0,0,1,.35.18l.51.67a3.28,3.28,0,0,1-.81.71,4.5,4.5,0,0,1-1,.49,7,7,0,0,1-1.11.3,7.3,7.3,0,0,1-1.14.09,5.32,5.32,0,0,1-2-.36,4.26,4.26,0,0,1-1.57-1.07,4.86,4.86,0,0,1-1-1.73,7.25,7.25,0,0,1-.37-2.38,5.85,5.85,0,0,1,.34-2,4.94,4.94,0,0,1,.95-1.64,4.42,4.42,0,0,1,1.53-1.08A5.07,5.07,0,0,1,481.11,10.11Zm0,1.35a2.8,2.8,0,0,0-2.08.76,3.6,3.6,0,0,0-.94,2.12h5.65a3.59,3.59,0,0,0-.18-1.17,2.62,2.62,0,0,0-.51-.91,2.25,2.25,0,0,0-.83-.59A2.75,2.75,0,0,0,481.15,11.46Z"/><path class="b" d="M491.3,20.82a2.49,2.49,0,0,1-1.89-.68,2.75,2.75,0,0,1-.66-2V11.8H487.5a.43.43,0,0,1-.28-.09.38.38,0,0,1-.11-.31v-.72l1.7-.22.42-3.21a.41.41,0,0,1,.13-.25.46.46,0,0,1,.29-.09h.92v3.57h3V11.8h-3V18a1.33,1.33,0,0,0,.32,1,1.11,1.11,0,0,0,.82.32,1.5,1.5,0,0,0,.5-.08,2,2,0,0,0,.36-.17l.26-.17a.34.34,0,0,1,.19-.07.31.31,0,0,1,.26.17l.53.87a3.11,3.11,0,0,1-1.14.69A3.78,3.78,0,0,1,491.3,20.82Z"/><path class="b" d="M503.46,11.06a1,1,0,0,1-.08.37,1.11,1.11,0,0,1-.18.32l-5.62,7.49h5.67v1.42h-7.82V19.9a.8.8,0,0,1,.07-.31,1.05,1.05,0,0,1,.19-.34l5.64-7.54h-5.58V10.28h7.71Z"/><path class="b" d="M509.24,20.82a2.53,2.53,0,0,1-1.9-.68,2.75,2.75,0,0,1-.66-2V11.8h-1.25a.4.4,0,0,1-.27-.09.39.39,0,0,1-.12-.31v-.72l1.71-.22.42-3.21A.36.36,0,0,1,507.3,7a.44.44,0,0,1,.29-.09h.92v3.57h3V11.8h-3V18a1.29,1.29,0,0,0,.32,1,1.11,1.11,0,0,0,.82.32,1.44,1.44,0,0,0,.49-.08,2.56,2.56,0,0,0,.37-.17l.26-.17a.32.32,0,0,1,.19-.07.29.29,0,0,1,.25.17l.54.87a3.29,3.29,0,0,1-1.14.69A3.78,3.78,0,0,1,509.24,20.82Z"/><path class="c" d="M169.51,75.64a12.11,12.11,0,0,1-3.67,4.61,14.86,14.86,0,0,1-5.58,2.52,30.68,30.68,0,0,1-7.11.78h-5.23V54.48h6a24.43,24.43,0,0,1,6.58.88A16.22,16.22,0,0,1,165.9,58a12.45,12.45,0,0,1,3.61,4.38,13.58,13.58,0,0,1,1.34,6.25,16.64,16.64,0,0,1-1.34,7ZM181.3,57a22.53,22.53,0,0,0-6.71-8.19,27.51,27.51,0,0,0-9.85-4.54,49.22,49.22,0,0,0-11.8-1.39H136.05a.61.61,0,0,0-.61.62V94.56a.61.61,0,0,0,.61.61h18.4a36.35,36.35,0,0,0,11.08-1.68,28.82,28.82,0,0,0,9.36-5,23.87,23.87,0,0,0,6.48-8.14,24.94,24.94,0,0,0,2.41-11.2A27.61,27.61,0,0,0,181.3,57Z"/><path class="c" d="M205.16,73.6,210.46,60l5.37,13.57Zm33.06,20.71L216,43.23a.61.61,0,0,0-.57-.37h-9.3a.62.62,0,0,0-.56.37L183.49,94.31a.62.62,0,0,0,0,.59.59.59,0,0,0,.52.27h12.4a.62.62,0,0,0,.58-.38l4.1-10.44h19l4.24,10.44a.59.59,0,0,0,.56.38h12.71a.6.6,0,0,0,.51-.27.65.65,0,0,0,.05-.59Z"/><path class="c" d="M287.76,43.48V94.56a.61.61,0,0,1-.62.61H275.88a.61.61,0,0,1-.61-.61V73.1H254.65V94.56a.61.61,0,0,1-.62.61H242.77a.61.61,0,0,1-.61-.61V43.48a.61.61,0,0,1,.61-.62H254a.62.62,0,0,1,.62.62V61.91h20.62V43.48a.61.61,0,0,1,.61-.62h11.26a.62.62,0,0,1,.62.62Z"/><g class="d"><path class="c" d="M324,73.6H313.36L318.67,60,324,73.6Zm22.38,20.71L324.21,43.23a.61.61,0,0,0-.57-.37h-9.31a.61.61,0,0,0-.56.37L291.7,94.31a.62.62,0,0,0,0,.59.61.61,0,0,0,.52.27h12.41a.62.62,0,0,0,.58-.38l4.09-10.44h19l4.24,10.44a.6.6,0,0,0,.57.38h12.7a.58.58,0,0,0,.51-.27.6.6,0,0,0,.05-.59Z"/><path class="c" d="M396.69,64.25V91a.62.62,0,0,1-.34.54,41.47,41.47,0,0,1-10.54,3.81,53.92,53.92,0,0,1-11.16,1.16,32.2,32.2,0,0,1-11.25-1.91,26.11,26.11,0,0,1-8.94-5.5,25.14,25.14,0,0,1-5.89-8.7A29.67,29.67,0,0,1,346.48,69a29.72,29.72,0,0,1,2.09-11.35A25.19,25.19,0,0,1,354.46,49a26.2,26.2,0,0,1,8.94-5.5,32.21,32.21,0,0,1,11.25-1.92,42.08,42.08,0,0,1,11.46,1.5,22.9,22.9,0,0,1,9.3,5.23.63.63,0,0,1,0,.87l-7.93,8.66a.61.61,0,0,1-.45.2.6.6,0,0,1-.45-.19,15.19,15.19,0,0,0-5-3.47,18,18,0,0,0-7-1.18,16.21,16.21,0,0,0-6.29,1.18,14.25,14.25,0,0,0-4.81,3.29,14.41,14.41,0,0,0-3.08,5,19.3,19.3,0,0,0,0,12.73,14.56,14.56,0,0,0,3.08,5,14.08,14.08,0,0,0,4.81,3.28,16.17,16.17,0,0,0,6.29,1.18,21,21,0,0,0,6.16-.8,24.89,24.89,0,0,0,3.83-1.48V75.26h-8.56a.61.61,0,0,1-.61-.61V64.25a.61.61,0,0,1,.61-.61h20a.61.61,0,0,1,.61.61Z"/></g><path class="e" d="M39.55,87.77A28.26,28.26,0,0,1,44,46.18a12.2,12.2,0,0,1,3.32-8.75s0,0,0,0a16.49,16.49,0,0,1,5.4-3.75l.07,0a22.35,22.35,0,0,1,8-1.56h-.69a37,37,0,0,0-27.1,61.48c.58.65,1.19,1.28,1.81,1.9a.64.64,0,0,0,.88,0L40.87,90a.61.61,0,0,0,0-.86c-.45-.44-.88-.9-1.3-1.36Z"/><path class="e" d="M88.33,44.43c-.57-.64-1.17-1.26-1.78-1.86a.62.62,0,0,0-.88,0L80.58,48a.6.6,0,0,0,0,.85c.44.44.86.89,1.27,1.35a28.25,28.25,0,0,1-5,42,12.81,12.81,0,0,1-.26,2.22c-1.21,6.72-7.87,10.86-14.6,11.46.27,0,.54,0,.82,0A37,37,0,0,0,88.33,44.43Z"/><path class="f" d="M90.57,99.72A42.82,42.82,0,0,1,21.64,51.48a.61.61,0,0,0-.3-.81L14.6,47.53a.62.62,0,0,0-.82.3,51.5,51.5,0,0,0,82.91,58,.62.62,0,0,0,0-.88l-5.27-5.27a.6.6,0,0,0-.86,0ZM62.37,17.55A51.38,51.38,0,0,0,24.74,32.17a.63.63,0,0,0,0,.88L30,38.32a.6.6,0,0,0,.85,0A42.82,42.82,0,0,1,99.79,86.56a.63.63,0,0,0,.3.81l6.74,3.14a.63.63,0,0,0,.83-.3A51.51,51.51,0,0,0,62.37,17.55Z"/><path class="c" d="M67,78.09l-8.37-5.87C53,68.22,52,66.8,52,64.58a6.94,6.94,0,0,1,2.91-5c1.52,1,6.05,4.14,7.09,4.9,9,6.49,10.51,8.2,5,13.66Zm7.48,5.7C78,80.13,81.3,76.1,81,70.92A12.74,12.74,0,0,0,78.71,64a15.9,15.9,0,0,0-1-1.28l-.08-.11a24.12,24.12,0,0,0-2.78-2.84l-.06,0a41.11,41.11,0,0,0-4.41-3.4l0,0c-.69-.48-7.06-4.5-7.06-4.5l0,0c-1-.61-3-2-3-2C57.4,48.12,54,44.46,57.82,42.1A1.11,1.11,0,0,1,58,42c3.65-1.13,7.84.39,10.68,1.66h0A22.22,22.22,0,0,1,72.45,46a.64.64,0,0,0,.92-.21c.29-.59,4.63-8.69,4.63-8.69a.61.61,0,0,0-.19-.8,20.82,20.82,0,0,0-2.42-1.18c-7-2.88-15.33-4.41-22.55-1.49l-.07,0a16.49,16.49,0,0,0-5.4,3.75s0,0,0,0c-4.25,4.32-4.82,12.56.51,16.45-.19.12-.37.28-.57.41C44.93,56,41,59.52,40.49,64.62A16.46,16.46,0,0,0,40.83,70s0,0,0,.08c1.31,4.2,5.13,6.7,8.37,9.15l.06,0c.59.43,6.66,4.51,6.68,4.52,1.68,1.14,3.46,2.38,5.09,3.68l.05,0c1.66,1.42,3.94,3.06,4,5.11-.25,5.45-7.62,4.26-12.19,1.51l0,0a37.46,37.46,0,0,1-3.78-2.55L49,91.49a.62.62,0,0,0-.85.26c-.31.6-4.87,9.2-4.87,9.2a.68.68,0,0,0,.17.77,41.84,41.84,0,0,0,5.74,2.44A37,37,0,0,0,60,106c7.35.11,15.26-4.16,16.59-11.55a12.13,12.13,0,0,0-2.2-10,.49.49,0,0,1,0-.65Z"/></svg>