<svg xmlns="http://www.w3.org/2000/svg" width="147" height="26"><g fill-rule="evenodd"><path fill-rule="nonzero" d="M7.973 20.88v2.275a.62.62 0 0 1-.946.526L5.97 23l-.253-.142-4.659-2.694-.252-.145A1.6 1.6 0 0 1 0 18.62V7.28c0-.301.085-.595.243-.848.157-.254.384-.462.62-.576L5.457 3.2l.25-.146.254-.145L10.364.367l.257-.152a1.6 1.6 0 0 1 1.676.046l4.58 2.647.254.143 4.656 2.693.254.145a1.6 1.6 0 0 1 .803 1.401l.001 5.158a.62.62 0 0 1-.929.536l-1.976-1.142a.62.62 0 0 1-.31-.536v-3.1L15.608 5.88a9 9 0 0 1-.33-.188l-3.855-2.23-4.01 2.316-.061.04-.284.165-3.853 2.225v9.495L7.24 20.03c.026.013.081.045.338.193l.083.074.068.092a.62.62 0 0 1 .244.491m11.658-5.846c0-.476.515-.774.928-.536l1.976 1.138c.192.11.31.315.31.537v1.884a.62.62 0 0 1-.176.433l-.932.95c-.35.446-.862.624-1.32.36l-7.343-4.257-.002 8.033a.91.91 0 0 1-.335.787l-1.354 1.094a.91.91 0 0 1-1.529-.667l.001-11.108-1.237-.716-.626.36c-.03.02-.02.015-.65.38a.913.913 0 0 1-1.262-.32l-.349-.602-.345-.596a.914.914 0 0 1 .32-1.262l.609-.349L7.82 9.71l.272-.153a.91.91 0 0 1 .984-.046l.343.2 10.21 5.901z"/><path d="M29.435 18.117a.42.42 0 0 1-.305-.13.42.42 0 0 1-.13-.302V6.433q0-.19.13-.312A.43.43 0 0 1 29.435 6h2.433q.19 0 .312.121a.42.42 0 0 1 .122.312V15.4h5.214q.19 0 .32.13.132.13.131.32v1.835q0 .19-.13.311a.45.45 0 0 1-.321.121zm9.314 0a.35.35 0 0 1-.252-.112.35.35 0 0 1-.113-.251q0-.104.018-.156L42.45 6.502Q42.625 6 43.146 6h2.71q.522 0 .696.502L50.6 17.598a.5.5 0 0 1 .017.156.35.35 0 0 1-.113.25.35.35 0 0 1-.252.113h-2.259a.6.6 0 0 1-.59-.38l-.626-1.68h-4.553l-.626 1.68a.6.6 0 0 1-.59.38zm4.206-4.656h3.093l-1.547-4.414zm9.436 4.656a.46.46 0 0 1-.322-.12.4.4 0 0 1-.13-.312V6.45q0-.19.13-.32a.44.44 0 0 1 .322-.13h1.964a.65.65 0 0 1 .625.38l2.99 5.332 3.006-5.331A.65.65 0 0 1 61.6 6h1.964q.192 0 .322.13t.13.32v11.235q0 .19-.13.311a.46.46 0 0 1-.322.121h-2.207a.42.42 0 0 1-.304-.13.42.42 0 0 1-.13-.302v-6.302l-1.877 3.428q-.226.398-.609.398H57.5q-.347 0-.608-.398l-1.86-3.428v6.302q0 .19-.13.311a.46.46 0 0 1-.321.121zm14.424 0a.42.42 0 0 1-.304-.13.42.42 0 0 1-.13-.302V6.45a.45.45 0 0 1 .12-.32.41.41 0 0 1 .314-.13h5.37q2.206 0 3.284.9t1.077 2.562q0 .831-.443 1.437t-.982.883q.713.31 1.2 1.03.486.718.486 1.618 0 1.749-1.156 2.718-1.155.97-3.31.97zm5.004-7.322q.645 0 .991-.346.348-.346.348-.9 0-.538-.34-.874-.338-.338-.999-.338h-2.172v2.458zm.157 4.985q.678 0 1.051-.39.374-.389.374-.96a1.34 1.34 0 0 0-.382-.978q-.383-.39-1.043-.39h-2.329v2.718zm7.125 2.337a.42.42 0 0 1-.304-.13.42.42 0 0 1-.13-.302V6.45a.45.45 0 0 1 .121-.32.41.41 0 0 1 .313-.13h4.57q2.572 0 3.997 1.22t1.495 3.506q.017.502.017 1.333 0 .83-.017 1.315-.174 4.743-5.405 4.743zm4.57-2.596q1.095 0 1.617-.52.52-.52.555-1.661.036-.502.035-1.299t-.035-1.28q-.035-1.11-.599-1.636-.565-.528-1.66-.528h-1.65v6.924zm6.813 2.596a.35.35 0 0 1-.252-.112.35.35 0 0 1-.113-.251.5.5 0 0 1 .017-.156l4.049-11.096Q94.359 6 94.88 6h2.711q.522 0 .695.502l4.05 11.096a.5.5 0 0 1 .016.156.35.35 0 0 1-.112.25.35.35 0 0 1-.252.113h-2.26a.6.6 0 0 1-.59-.38l-.626-1.68h-4.553l-.626 1.68a.6.6 0 0 1-.59.38zm4.205-4.656h3.093l-1.546-4.414zm11.273 4.829a.46.46 0 0 1-.321-.12.4.4 0 0 1-.13-.312V8.995h-3.059a.46.46 0 0 1-.322-.121.4.4 0 0 1-.13-.312V6.623q0-.19.13-.32a.44.44 0 0 1 .322-.13h9.436q.191 0 .322.13.13.13.13.32v1.939q0 .19-.13.312a.46.46 0 0 1-.322.12h-3.058v8.864q0 .19-.13.311a.46.46 0 0 1-.322.121zm8.342 0a.42.42 0 0 1-.304-.13.42.42 0 0 1-.13-.302V6.623a.45.45 0 0 1 .12-.32.41.41 0 0 1 .314-.13h8.202q.191 0 .321.13t.131.32v1.714q0 .19-.13.311a.45.45 0 0 1-.322.122h-5.491v2.198h5.109q.19 0 .321.13.13.13.13.32v1.575a.43.43 0 0 1-.13.32.44.44 0 0 1-.321.13h-5.11v2.25h5.631q.191 0 .322.13.13.13.13.32v1.715q0 .19-.13.311a.46.46 0 0 1-.322.121zm15.327.173q-1.686 0-2.867-.484-1.182-.485-1.79-1.281t-.643-1.731q0-.155.113-.26a.4.4 0 0 1 .269-.104h2.311a.7.7 0 0 1 .34.07q.13.068.286.242.225.415.704.684.477.268 1.277.268.938 0 1.442-.286.504-.285.504-.787a.77.77 0 0 0-.26-.597q-.261-.234-.834-.416a18 18 0 0 0-1.651-.407q-2.103-.415-3.146-1.264-1.042-.848-1.042-2.423 0-1.073.6-1.913.598-.84 1.702-1.307T129.509 6q1.53 0 2.65.528 1.121.528 1.721 1.315.6.789.634 1.55a.38.38 0 0 1-.104.268.34.34 0 0 1-.26.113h-2.433a.67.67 0 0 1-.591-.312q-.105-.363-.54-.614-.433-.251-1.077-.251-.73 0-1.13.26-.399.258-.399.76 0 .503.522.788.52.286 1.946.58 1.633.294 2.598.736.964.441 1.425 1.142.46.702.46 1.775 0 1.177-.677 2.042-.678.866-1.877 1.325-1.2.459-2.746.458m10.097-.173a.45.45 0 0 1-.322-.12.4.4 0 0 1-.13-.312V8.995h-3.059a.45.45 0 0 1-.321-.121.4.4 0 0 1-.13-.312V6.623q0-.19.13-.32a.44.44 0 0 1 .321-.13h9.436q.192 0 .322.13t.13.32v1.939q0 .19-.13.312a.45.45 0 0 1-.322.12h-3.058v8.864q0 .19-.13.311a.45.45 0 0 1-.322.121z"/></g></svg>