<svg xmlns="http://www.w3.org/2000/svg" viewBox="0 0 109 40.5"><path d="M98.6 14.2 93 12.9l-1-.4-25.7.2v12.4l32.3.1z" style="fill:#fff"/><path d="M88.1 24c.3-1 .2-2-.3-2.6s-1.2-1-2.1-1.1l-17.4-.2c-.1 0-.2-.1-.3-.1q-.15-.15 0-.3c.1-.2.2-.3.4-.3l17.5-.2c2.1-.1 4.3-1.8 5.1-3.8l1-2.6c0-.1.1-.2 0-.3-1.1-5.1-5.7-8.9-11.1-8.9-5 0-9.3 3.2-10.8 7.7-1-.7-2.2-1.1-3.6-1-2.4.2-4.3 2.2-4.6 4.6-.1.6 0 1.2.1 1.8-3.9.1-7.1 3.3-7.1 7.3 0 .4 0 .7.1 1.1 0 .2.2.3.3.3h32.1c.2 0 .4-.1.4-.3z" style="fill:#f48120"/><path d="M93.6 12.8h-.5c-.1 0-.2.1-.3.2l-.7 2.4c-.3 1-.2 2 .3 2.6s1.2 1 2.1 1.1l3.7.2c.1 0 .2.1.3.1q.15.15 0 .3c-.1.2-.2.3-.4.3l-3.8.2c-2.1.1-4.3 1.8-5.1 3.8l-.2.9c-.1.1 0 .3.2.3h13.2q.3 0 .3-.3c.2-.8.4-1.7.4-2.6 0-5.2-4.3-9.5-9.5-9.5" style="fill:#faad3f"/><path d="M104.4 30.8c-.5 0-.9-.4-.9-.9s.4-.9.9-.9.9.4.9.9-.4.9-.9.9m0-1.6c-.4 0-.7.3-.7.7s.3.7.7.7.7-.3.7-.7-.3-.7-.7-.7m.4 1.2h-.2l-.2-.3h-.2v.3h-.2v-.9h.5q.3 0 .3.3c0 .1-.1.2-.2.3zm-.3-.5c.1 0 .1 0 .1-.1s-.1-.1-.1-.1h-.3v.3h.3zM14.8 29H17v6h3.8v1.9h-6zm8.3 3.9c0-2.3 1.8-4.1 4.3-4.1s4.2 1.8 4.2 4.1-1.8 4.1-4.3 4.1c-2.4 0-4.2-1.8-4.2-4.1m6.3 0c0-1.2-.8-2.2-2-2.2s-2 1-2 2.1.8 2.1 2 2.1c1.2.2 2-.8 2-2m4.9.5V29h2.2v4.4c0 1.1.6 1.7 1.5 1.7s1.5-.5 1.5-1.6V29h2.2v4.4c0 2.6-1.5 3.7-3.7 3.7-2.3-.1-3.7-1.2-3.7-3.7M45 29h3.1c2.8 0 4.5 1.6 4.5 3.9s-1.7 4-4.5 4h-3V29zm3.1 5.9c1.3 0 2.2-.7 2.2-2s-.9-2-2.2-2h-.9v4zm7.6-5.9H62v1.9h-4.1v1.3h3.7V34h-3.7v2.9h-2.2zm9.4 0h2.2v6h3.8v1.9h-6zm11.7-.1H79l3.4 8H80l-.6-1.4h-3.1l-.6 1.4h-2.3zm2 4.9-.9-2.2-.9 2.2zm6.4-4.8h3.7c1.2 0 2 .3 2.6.9.5.5.7 1.1.7 1.8 0 1.2-.6 2-1.6 2.4l1.9 2.8H90l-1.6-2.4h-1v2.4h-2.2zm3.6 3.8c.7 0 1.2-.4 1.2-.9 0-.6-.5-.9-1.2-.9h-1.4v1.9h1.4zm6.5-3.8h6.4v1.8h-4.2V32h3.8v1.8h-3.8V35h4.3v1.9h-6.5zM10 33.9c-.3.7-1 1.2-1.8 1.2-1.2 0-2-1-2-2.1s.8-2.1 2-2.1c.9 0 1.6.6 1.9 1.3h2.3c-.4-1.9-2-3.3-4.2-3.3-2.4 0-4.3 1.8-4.3 4.1s1.8 4.1 4.2 4.1c2.1 0 3.7-1.4 4.2-3.2z" style="fill:#404041"/></svg>