<svg xmlns="http://www.w3.org/2000/svg" xml:space="preserve" id="Layer_1" x="0" y="0" version="1.1" viewBox="0 0 400 245"><style>.st1{fill:#5c94b8}</style><path d="M96.8 136.2c-3.3 3.2-7.4 4.8-12.2 4.8s-8.9-1.6-12.2-4.8-4.9-7.2-4.9-12 1.6-8.8 4.9-12 7.4-4.8 12.2-4.8 8.9 1.6 12.2 4.8 4.9 7.2 4.9 12c.1 4.8-1.6 8.8-4.9 12m-4-20.3c-2.2-2.3-4.9-3.4-8.2-3.4-3.2 0-6 1.1-8.2 3.4q-3.3 3.45-3.3 8.4t3.3 8.4c2.2 2.3 4.9 3.4 8.2 3.4 3.2 0 6-1.1 8.2-3.4q3.3-3.45 3.3-8.4t-3.3-8.4m29.6-.3c3.3 0 6.2 1.1 8.5 3.4 2.4 2.3 3.5 5.4 3.5 9.2s-1.2 6.9-3.5 9.3-5.1 3.6-8.2 3.6-5.9-1.4-8.4-4.1v12.8h-5.2V116h5.2v4.3c2.1-3.1 4.8-4.7 8.1-4.7m-8.1 12.8c0 2.4.7 4.3 2.1 5.8s3.2 2.3 5.2 2.3 3.8-.7 5.4-2.2c1.5-1.5 2.3-3.4 2.3-5.8s-.7-4.3-2.2-5.9-3.3-2.3-5.4-2.3-3.8.8-5.3 2.3c-1.4 1.5-2.1 3.4-2.1 5.8m50.3 2.2h-19.4c.1 1.8.9 3.3 2.5 4.4 1.5 1.1 3.3 1.7 5.2 1.7 3.1 0 5.5-1 7.1-2.9l3 3.3c-2.7 2.8-6.1 4.1-10.4 4.1-3.5 0-6.4-1.2-8.9-3.5-2.4-2.3-3.7-5.4-3.7-9.3s1.2-7 3.7-9.3 5.4-3.4 8.8-3.4 6.2 1 8.6 3 3.5 4.8 3.5 8.4zm-19.4-4.1h14.2c0-2.1-.7-3.7-2-4.8s-2.9-1.7-4.8-1.7-3.6.6-5.1 1.7c-1.5 1.3-2.3 2.9-2.3 4.8m31.5.8v13.4h-5.2V116h5.2v4.5c.8-1.5 2-2.7 3.5-3.6s3.1-1.3 4.8-1.3c2.8 0 5 .9 6.8 2.6 1.7 1.7 2.6 4.2 2.6 7.4v15.2h-5.2v-13.6c0-4.6-1.9-6.8-5.7-6.8-1.8 0-3.4.6-4.7 1.8q-2.1 1.65-2.1 5.1m48.7-16.2c2.3 1.9 3.4 4.9 3.4 8.9s-1.2 7-3.5 8.8c-2.3 1.9-5.9 2.8-10.7 2.8h-4.3v9.1H203v-32.5h11.5c5 0 8.6 1 10.9 2.9m-5.4 12.8c.9-1 1.3-2.4 1.3-4.3s-.6-3.2-1.7-4-2.9-1.2-5.3-1.2h-4.1v10.9h4.9c2.4.1 4.1-.4 4.9-1.4m41.6 12.5c-3.1 3.1-7 4.6-11.6 4.6s-8.5-1.5-11.6-4.6-4.7-6.9-4.7-11.5 1.6-8.4 4.7-11.5 7-4.6 11.6-4.6 8.5 1.5 11.6 4.6 4.7 6.9 4.7 11.5c0 4.7-1.5 8.5-4.7 11.5m-2.3-11.4c0-2.8-.9-5.1-2.7-7.1s-4-2.9-6.6-2.9-4.8 1-6.6 2.9c-1.8 2-2.7 4.3-2.7 7.1s.9 5.1 2.7 7.1c1.8 1.9 4 2.9 6.6 2.9s4.8-1 6.6-2.9c1.8-2 2.7-4.3 2.7-7.1m22.8 1.9 5.8-18.7h7.6l5.7 18.7 6.5-18.7h7.9l-11.4 32.5h-5.4l-7.1-22.6-7.1 22.6h-5.4l-11.4-32.5h7.9zm61.9-18.7v6.5h-16.2v6.7h14.6v6.2h-14.6v6.7h16.7v6.4h-24v-32.5zm33.4 10.8c0 5.2-2.1 8.6-6.2 10.1l8.2 11.6h-8.9l-7.2-10.4h-5v10.4H351v-32.5h12.3c5.1 0 8.7.9 10.8 2.6 2.2 1.7 3.3 4.4 3.3 8.2m-8.8 3.9c.9-.8 1.4-2.1 1.4-3.8 0-1.8-.5-3-1.4-3.6-.9-.7-2.6-1-4.9-1h-5.4v9.6h5.3c2.4 0 4.1-.4 5-1.2"/><path d="M384.5 117.7v-8h-2.7c-.1 0-.2 0-.2-.1-.1-.1-.1-.1-.1-.2s0-.2.1-.2c.1-.1.1-.1.2-.1h6c.1 0 .2 0 .2.1.1.1.1.1.1.2s0 .2-.1.2c-.1.1-.1.1-.2.1h-2.7v8c0 .1 0 .2-.1.2-.1.1-.1.1-.2.1s-.2 0-.2-.1c-.1 0-.1-.1-.1-.2m12.9 0v-7.4l-2.9 4c-.1.1-.1.1-.3.1-.1 0-.2 0-.3-.1l-2.9-4v7.4c0 .1 0 .2-.1.2-.1.1-.1.1-.2.1s-.2 0-.2-.1c-.1-.1-.1-.1-.1-.2v-8.3c0-.1 0-.2.1-.2.2-.1.3-.1.4.1l3.2 4.4 3.2-4.4c0-.1.1-.1.2-.1h.2c.1.1.1.2.1.3v8.3c0 .1 0 .2-.1.2-.1.1-.1.1-.2.1s-.2 0-.2-.1c.1-.1.1-.2.1-.3" style="fill:#ccc"/><path d="m58.8 106.5-28.4-16-28.4 16v32l28.3 16h.1l28.4-16z" class="st1"/><path d="M2 138.4v.1l28.3 16 .2-31.3z" style="fill:#63abd2"/><path d="m58.7 106.5-28.3-16v32.7z" style="fill:#42dbf1"/><path d="m58.8 106.5-28.4 16.7 28.4 15.3z" style="fill:#42c7e2"/><path d="M30.3 154.5h.1l28.3-16-28.3-15.3z" style="fill:#11b2d6"/><path d="M2 106.5v31.9l28.5-15.2z" class="st1"/><path d="M30.4 90.5 2 106.5l28.4 16.7z" style="fill:#278ab3"/></svg>