<svg xmlns="http://www.w3.org/2000/svg" xmlns:xlink="http://www.w3.org/1999/xlink" xml:space="preserve" id="Layer_1" x="0" y="0" version="1.1" viewBox="-10 12 128 128"><style>.st4{clip-path:url(#SVGID_2_);fill:none}</style><path d="M111.3 139.8H1.2c-3.7 0-6.8-3-6.8-6.8V22.8c0-3.7 3-6.8 6.8-6.8h110.1c3.7 0 6.8 3 6.8 6.8v110.3c-.1 3.7-3.1 6.7-6.8 6.7" style="opacity:.6;fill:#d1d1d1"/><defs><path id="SVGID_1_" d="M107 135.8H-3.3c-3.7 0-6.8-3-6.8-6.8V18.8C-10 15-7 12-3.3 12H107c3.7 0 6.8 3 6.8 6.7V129c0 3.7-3.1 6.8-6.8 6.8"/></defs><clipPath id="SVGID_2_"><use xlink:href="#SVGID_1_" style="overflow:visible"/></clipPath><linearGradient id="SVGID_3_" x1="51.878" x2="51.878" y1="135.756" y2="12" gradientUnits="userSpaceOnUse"><stop offset="0" style="stop-color:#007c8f"/><stop offset=".371" style="stop-color:#007088"/><stop offset="1" style="stop-color:#005377"/></linearGradient><path d="M107 135.8H-3.3c-3.7 0-6.8-3-6.8-6.8V18.8C-10 15-7 12-3.3 12H107c3.7 0 6.8 3 6.8 6.7V129c0 3.7-3.1 6.8-6.8 6.8" style="clip-path:url(#SVGID_2_);fill:url(#SVGID_3_)"/><path d="M81.3 102.6H21.8c-1.7 0-3-1.3-3-3V46.7c0-1.7 1.3-3 3-3h59.5c1.7 0 3 1.3 3 3v52.9c0 1.7-1.3 3-3 3z" style="clip-path:url(#SVGID_2_);fill:none;stroke:#7addfc;stroke-miterlimit:10"/><path d="M81.3 38H21.8c-1.7 0-3-1.3-3-3V-2.4c0-1.7 1.3-3 3-3h59.5c1.7 0 3 1.3 3 3V35c0 1.7-1.3 3-3 3zm0 113.8H21.8c-1.7 0-3-1.3-3-3v-37.5c0-1.7 1.3-3 3-3h59.5c1.7 0 3 1.3 3 3v37.5c0 1.7-1.3 3-3 3zm71.8-83.2H93.5c-1.7 0-3-1.3-3-3V-1.2c0-1.7 1.3-3 3-3H153c1.7 0 3 1.3 3 3v66.9c.1 1.6-1.3 2.9-2.9 2.9zm0 90.2H93.5c-1.7 0-3-1.3-3-3V77.3c0-1.7 1.3-3 3-3H153c1.7 0 3 1.3 3 3v78.5c.1 1.7-1.3 3-2.9 3zM9.9 68.6h-59.5c-1.7 0-3-1.3-3-3V-1.2c0-1.7 1.3-3 3-3H9.9c1.7 0 3 1.3 3 3v66.9c0 1.6-1.3 2.9-3 2.9zm0 90.2h-59.5c-1.7 0-3-1.3-3-3V77.3c0-1.7 1.3-3 3-3H9.9c1.7 0 3 1.3 3 3v78.5c0 1.7-1.3 3-3 3z" style="stroke:#529fdd;stroke-miterlimit:10;clip-path:url(#SVGID_2_);fill:none"/><path d="M100.4 135.8H3.3c-7.4 0-13.3-6-13.3-13.3V25.3C-10 18-4 12 3.3 12h97.1c7.4 0 13.3 6 13.3 13.3v97.1c.1 7.4-5.9 13.4-13.3 13.4" class="st4"/><path d="M107 135.8H-3.3c-3.7 0-6.8-3-6.8-6.8V18.8C-10 15-7 12-3.3 12H107c3.7 0 6.8 3 6.8 6.7V129c0 3.7-3.1 6.8-6.8 6.8" class="st4"/><path d="M74.5 82.3c.4-.6.7-1.2 1-1.8 0-.1.1-.2.1-.3V80c0-.1-.7-.1-.9.1s-.9 2.3-3.2 4.3c-1.3 1.2-2.8 1.5-4.1 1.4-1-.1-1.7-.7-2.2-1.8-.4-1.1-.5-2.5-.1-4.2.7-3.1 1.5-4.7 2.5-4.7.7 0 .7 1.2.1 3.5-.5 1.7-1.2 2.8-2.1 3.4-.3.2-.4.3-.4.4s.3.1.7 0c1.5-.4 3-1 4.2-1.8 1.3-.8 2-1.6 2.3-2.5.2-1-.1-1.8-.9-2.5q-1.35-1.05-3.3-1.2c-1.3-.1-2.6.2-3.9.7l.1-.1c2.1-3.2 3.5-6.2 4.4-9.1s.6-5-.7-6.4c-.5-.4-1.2-.7-2.2-1-1.9-.5-4-1.1-2.4 1 .2.4.4.8.5 1.2.3 1.5.2 3.4-.4 5.7s-1.4 4.8-2.6 7.3-2.4 4.8-3.8 6.7c-1.4 2-2.7 3.3-4 4.1 0-.2-.1-.4-.1-.5v-1.2c0-.4.1-.7.1-1 .3-2 .7-4.1 1.1-6.3.5-2.2.9-4.2 1.4-6 .3-1.1.5-2 .6-2.5s0-1-.2-1.2c-.2-.3-.6-.6-1.3-.9-.4-.2-.9-.5-1.5-.8-1.3-.7-1.3-.7-1.7.6-.3 1.2-1 2.8-1.9 5s-1.8 4.5-2.9 6.8c-1.1 2.4-2.1 4.3-3 6-1 1.6-1.8 2.5-2.4 2.5q-.15 0-.3-.3c0-.1-.1-.3-.1-.6 0-.4 0-.8.1-1.2s.1-.7.2-1c.3-1.3.6-2.9 1.1-4.7s.9-3.6 1.4-5.4.9-3.2 1.3-4.5c.5-1.5.8-2.6.9-3.1s-.2-1-.8-1.3c-.5-.3-1.3-.7-2.4-1.4-.8-.5-1.2-.4-2-.1-2 .7-4.1 1.6-6.1 2.6-2.4 1.2-4.6 2.4-6.4 3.6s-3 2.3-3.5 3.3c-.6 1.2-.5 2.4.2 3.6.4.6.9 1.2 1.5 1.7 2.5 1.7 1.7.7 1.9-1.3.1-.7.3-1.4.7-2 .8-1.4 2.3-3 4.6-4.8s4.7-3.2 7.4-4.3c-.5 1.8-1 3.8-1.6 5.9s-1.1 4.2-1.6 6.2-.8 3.6-1.1 5c-.1.7-.2 1.3-.2 1.8 0 .6.2 1.1.6 1.7.4.5.9 1 1.5 1.3.6.4 1.2.5 1.8.5 1.3-.1 2.5-.9 3.7-2.6q1.8-2.4 3.3-6t2.7-6.9c-.4 1.8-.7 3.6-1 5.3s-.5 3.3-.7 4.6c-.1.7-.1 1.3-.1 1.8 0 .6.3 1.1.7 1.7.4.5.9 1 1.5 1.3s1.2.5 1.9.6c1.3 0 3-1.1 5.2-3.4.5-.5 1.1-1.1 1.6-1.7-.1 1.6.4 2.8 1.6 3.8 1.4 1.1 3.1 1.6 5 1.7 2 .1 3.9-.5 5.5-1.7 1.4-.3 2.4-1.3 3.1-2.4" style="clip-path:url(#SVGID_2_);fill:#fff"/><path d="M107 135.8H-3.3c-3.7 0-6.8-3-6.8-6.8V18.8C-10 15-7 12-3.3 12H107c3.7 0 6.8 3 6.8 6.7V129c0 3.7-3.1 6.8-6.8 6.8" class="st4"/><path d="M107 135.8H-3.3c-3.7 0-6.8-3-6.8-6.8V18.8C-10 15-7 12-3.3 12H107c3.7 0 6.8 3 6.8 6.7V129c0 3.7-3.1 6.8-6.8 6.8" class="st4"/><path d="M107 135.8H-3.3c-3.7 0-6.8-3-6.8-6.8V18.8C-10 15-7 12-3.3 12H107c3.7 0 6.8 3 6.8 6.7V129c0 3.7-3.1 6.8-6.8 6.8" class="st4"/></svg>