<?xml version="1.0" encoding="utf-8"?>
<!-- Generator: Adobe Illustrator 19.1.0, SVG Export Plug-In . SVG Version: 6.00 Build 0)  -->
<!DOCTYPE svg PUBLIC "-//W3C//DTD SVG 1.1//EN" "http://www.w3.org/Graphics/SVG/1.1/DTD/svg11.dtd">
<svg version="1.1" id="Layer_1" xmlns="http://www.w3.org/2000/svg" xmlns:xlink="http://www.w3.org/1999/xlink" x="0px" y="0px"
	 viewBox="-10 12 128 128" style="enable-background:new -10 12 128 128;" xml:space="preserve">
<style type="text/css">
	.st0{opacity:0.6;fill:#D1D1D1;}
	.st1{clip-path:url(#SVGID_2_);fill:url(#SVGID_3_);}
	.st2{clip-path:url(#SVGID_2_);fill:none;stroke:#7ADDFC;stroke-miterlimit:10;}
	.st3{clip-path:url(#SVGID_2_);fill:none;stroke:#529FDD;stroke-miterlimit:10;}
	.st4{clip-path:url(#SVGID_2_);fill:none;}
	.st5{clip-path:url(#SVGID_2_);fill:#FFFFFF;}
</style>
<path class="st0" d="M111.3,139.8H1.2c-3.7,0-6.8-3-6.8-6.8V22.8c0-3.7,3-6.8,6.8-6.8h110.1c3.7,0,6.8,3,6.8,6.8v110.3
	C118,136.8,115,139.8,111.3,139.8z"/>
<g>
	<defs>
		<path id="SVGID_1_" d="M107,135.8H-3.3c-3.7,0-6.8-3-6.8-6.8V18.8C-10,15-7,12-3.3,12H107c3.7,0,6.8,3,6.8,6.7V129
			C113.8,132.7,110.7,135.8,107,135.8z"/>
	</defs>
	<clipPath id="SVGID_2_">
		<use xlink:href="#SVGID_1_"  style="overflow:visible;"/>
	</clipPath>
	<linearGradient id="SVGID_3_" gradientUnits="userSpaceOnUse" x1="51.8779" y1="135.7558" x2="51.8779" y2="12">
		<stop  offset="0" style="stop-color:#007C8F"/>
		<stop  offset="0.3707" style="stop-color:#007088"/>
		<stop  offset="1" style="stop-color:#005377"/>
	</linearGradient>
	<path class="st1" d="M107,135.8H-3.3c-3.7,0-6.8-3-6.8-6.8V18.8C-10,15-7,12-3.3,12H107c3.7,0,6.8,3,6.8,6.7V129
		C113.8,132.7,110.7,135.8,107,135.8z"/>
	<path class="st2" d="M81.3,102.6H21.8c-1.7,0-3-1.3-3-3V46.7c0-1.7,1.3-3,3-3h59.5c1.7,0,3,1.3,3,3v52.9
		C84.3,101.3,83,102.6,81.3,102.6z"/>
	<path class="st3" d="M81.3,38H21.8c-1.7,0-3-1.3-3-3V-2.4c0-1.7,1.3-3,3-3h59.5c1.7,0,3,1.3,3,3V35C84.3,36.7,83,38,81.3,38z"/>
	<path class="st3" d="M81.3,151.8H21.8c-1.7,0-3-1.3-3-3v-37.5c0-1.7,1.3-3,3-3h59.5c1.7,0,3,1.3,3,3v37.5
		C84.3,150.5,83,151.8,81.3,151.8z"/>
	<path class="st3" d="M153.1,68.6H93.5c-1.7,0-3-1.3-3-3V-1.2c0-1.7,1.3-3,3-3h59.5c1.7,0,3,1.3,3,3v66.9
		C156.1,67.3,154.7,68.6,153.1,68.6z"/>
	<path class="st3" d="M153.1,158.8H93.5c-1.7,0-3-1.3-3-3V77.3c0-1.7,1.3-3,3-3h59.5c1.7,0,3,1.3,3,3v78.5
		C156.1,157.5,154.7,158.8,153.1,158.8z"/>
	<path class="st3" d="M9.9,68.6h-59.5c-1.7,0-3-1.3-3-3V-1.2c0-1.7,1.3-3,3-3H9.9c1.7,0,3,1.3,3,3v66.9
		C12.9,67.3,11.6,68.6,9.9,68.6z"/>
	<path class="st3" d="M9.9,158.8h-59.5c-1.7,0-3-1.3-3-3V77.3c0-1.7,1.3-3,3-3H9.9c1.7,0,3,1.3,3,3v78.5
		C12.9,157.5,11.6,158.8,9.9,158.8z"/>
	<path class="st4" d="M100.4,135.8H3.3c-7.4,0-13.3-6-13.3-13.3V25.3C-10,18-4,12,3.3,12h97.1c7.4,0,13.3,6,13.3,13.3v97.1
		C113.8,129.8,107.8,135.8,100.4,135.8z"/>
	<path class="st4" d="M107,135.8H-3.3c-3.7,0-6.8-3-6.8-6.8V18.8C-10,15-7,12-3.3,12H107c3.7,0,6.8,3,6.8,6.7V129
		C113.8,132.7,110.7,135.8,107,135.8z"/>
	<path class="st5" d="M74.5,82.3c0.4-0.6,0.7-1.2,1-1.8c0-0.1,0.1-0.2,0.1-0.3c0-0.1,0-0.1,0-0.2c0-0.1-0.7-0.1-0.9,0.1
		c-0.2,0.2-0.9,2.3-3.2,4.3c-1.3,1.2-2.8,1.5-4.1,1.4c-1-0.1-1.7-0.7-2.2-1.8c-0.4-1.1-0.5-2.5-0.1-4.2c0.7-3.1,1.5-4.7,2.5-4.7
		c0.7,0,0.7,1.2,0.1,3.5c-0.5,1.7-1.2,2.8-2.1,3.4c-0.3,0.2-0.4,0.3-0.4,0.4c0,0.1,0.3,0.1,0.7,0c1.5-0.4,3-1,4.2-1.8
		c1.3-0.8,2-1.6,2.3-2.5c0.2-1-0.1-1.8-0.9-2.5c-0.9-0.7-2-1.1-3.3-1.2c-1.3-0.1-2.6,0.2-3.9,0.7c0,0,0.1-0.1,0.1-0.1
		c2.1-3.2,3.5-6.2,4.4-9.1c0.9-2.9,0.6-5-0.7-6.4c-0.5-0.4-1.2-0.7-2.2-1c-1.9-0.5-4-1.1-2.4,1c0.2,0.4,0.4,0.8,0.5,1.2
		c0.3,1.5,0.2,3.4-0.4,5.7c-0.6,2.3-1.4,4.8-2.6,7.3c-1.2,2.5-2.4,4.8-3.8,6.7c-1.4,2-2.7,3.3-4,4.1c0-0.2-0.1-0.4-0.1-0.5
		c0-0.4,0-0.8,0-1.2c0-0.4,0.1-0.7,0.1-1c0.3-2,0.7-4.1,1.1-6.3c0.5-2.2,0.9-4.2,1.4-6c0.3-1.1,0.5-2,0.6-2.5c0.1-0.5,0-1-0.2-1.2
		c-0.2-0.3-0.6-0.6-1.3-0.9c-0.4-0.2-0.9-0.5-1.5-0.8c-1.3-0.7-1.3-0.7-1.7,0.6c-0.3,1.2-1,2.8-1.9,5c-0.9,2.2-1.8,4.5-2.9,6.8
		c-1.1,2.4-2.1,4.3-3,6c-1,1.6-1.8,2.5-2.4,2.5c-0.1,0-0.2-0.1-0.3-0.3c0-0.1-0.1-0.3-0.1-0.6c0-0.4,0-0.8,0.1-1.2
		c0.1-0.4,0.1-0.7,0.2-1c0.3-1.3,0.6-2.9,1.1-4.7c0.5-1.8,0.9-3.6,1.4-5.4c0.5-1.8,0.9-3.2,1.3-4.5c0.5-1.5,0.8-2.6,0.9-3.1
		c0.1-0.5-0.2-1-0.8-1.3c-0.5-0.3-1.3-0.7-2.4-1.4c-0.8-0.5-1.2-0.4-2-0.1c-2,0.7-4.1,1.6-6.1,2.6c-2.4,1.2-4.6,2.4-6.4,3.6
		c-1.8,1.2-3,2.3-3.5,3.3c-0.6,1.2-0.5,2.4,0.2,3.6c0.4,0.6,0.9,1.2,1.5,1.7c2.5,1.7,1.7,0.7,1.9-1.3c0.1-0.7,0.3-1.4,0.7-2
		c0.8-1.4,2.3-3,4.6-4.8c2.3-1.8,4.7-3.2,7.4-4.3c-0.5,1.8-1,3.8-1.6,5.9c-0.6,2.1-1.1,4.2-1.6,6.2c-0.5,2-0.8,3.6-1.1,5
		c-0.1,0.7-0.2,1.3-0.2,1.8c0,0.6,0.2,1.1,0.6,1.7c0.4,0.5,0.9,1,1.5,1.3c0.6,0.4,1.2,0.5,1.8,0.5c1.3-0.1,2.5-0.9,3.7-2.6
		c1.2-1.6,2.3-3.6,3.3-6c1-2.4,1.9-4.7,2.7-6.9c-0.4,1.8-0.7,3.6-1,5.3c-0.3,1.7-0.5,3.3-0.7,4.6c-0.1,0.7-0.1,1.3-0.1,1.8
		c0,0.6,0.3,1.1,0.7,1.7c0.4,0.5,0.9,1,1.5,1.3c0.6,0.3,1.2,0.5,1.9,0.6c1.3,0,3-1.1,5.2-3.4c0.5-0.5,1.1-1.1,1.6-1.7
		c-0.1,1.6,0.4,2.8,1.6,3.8c1.4,1.1,3.1,1.6,5,1.7c2,0.1,3.9-0.5,5.5-1.7C72.8,84.4,73.8,83.4,74.5,82.3z"/>
	<path class="st4" d="M107,135.8H-3.3c-3.7,0-6.8-3-6.8-6.8V18.8C-10,15-7,12-3.3,12H107c3.7,0,6.8,3,6.8,6.7V129
		C113.8,132.7,110.7,135.8,107,135.8z"/>
	<path class="st4" d="M107,135.8H-3.3c-3.7,0-6.8-3-6.8-6.8V18.8C-10,15-7,12-3.3,12H107c3.7,0,6.8,3,6.8,6.7V129
		C113.8,132.7,110.7,135.8,107,135.8z"/>
	<path class="st4" d="M107,135.8H-3.3c-3.7,0-6.8-3-6.8-6.8V18.8C-10,15-7,12-3.3,12H107c3.7,0,6.8,3,6.8,6.7V129
		C113.8,132.7,110.7,135.8,107,135.8z"/>
</g>
</svg>
