<svg xmlns="http://www.w3.org/2000/svg" xml:space="preserve" viewBox="-62 64 24 24"><linearGradient id="a" x1="-50" x2="-50" y1="88" y2="64" gradientUnits="userSpaceOnUse"><stop offset="0" style="stop-color:#007c8f"/><stop offset=".371" style="stop-color:#007088"/><stop offset="1" style="stop-color:#005377"/></linearGradient><path d="M-39.2 88h-21.7c-.6 0-1.2-.5-1.2-1.2V65.2c0-.6.5-1.2 1.2-1.2h21.7c.6 0 1.2.5 1.2 1.2v21.7c0 .6-.5 1.1-1.2 1.1" style="fill:url(#a)"/><path d="M-40.3 79.8c.2-.2.3-.5.4-.8v-.2h-.4c-.1.1-.4.9-1.3 1.8-.5.5-1.1.6-1.7.6-.4 0-.7-.3-.9-.8s-.2-1-.1-1.7c.3-1.3.6-1.9 1.1-1.9q.45 0 0 1.5c-.2.7-.5 1.2-.9 1.4-.1.1-.2.1-.2.2q0 .15.3 0c.6-.2 1.2-.4 1.8-.7.5-.3.8-.7.9-1 .1-.4 0-.7-.4-1s-.8-.5-1.4-.5-1.1.1-1.6.3v-.1c.9-1.3 1.5-2.6 1.8-3.8.4-1.2.3-2.1-.3-2.6-.2-.2-.5-.3-.9-.4-.8-.2-1.6-.5-1 .4.1.2.2.3.2.5.1.6.1 1.4-.1 2.4s-.6 2-1.1 3-1 2-1.6 2.8-1.1 1.4-1.7 1.7v-1.1c.1-.8.3-1.7.5-2.6s.4-1.8.6-2.5c.1-.5.2-.8.3-1.1 0-.2 0-.4-.1-.5s-.3-.2-.5-.4l-.6-.3c-.5-.3-.6-.3-.7.2s-.4 1.2-.8 2.1-.8 1.9-1.2 2.8c-.4 1-.9 1.8-1.3 2.5s-.7 1-1 1c-.1 0-.1 0-.1-.1v-.7c0-.2.1-.3.1-.4.1-.5.3-1.2.5-1.9s.4-1.5.6-2.2.4-1.3.5-1.8c.2-.6.3-1.1.4-1.3 0-.2-.1-.4-.4-.5-.2-.1-.5-.3-1-.6-.3-.2-.5-.2-.8-.1-.8.3-1.7.7-2.5 1.1-1 .5-1.9 1-2.6 1.5-.8.5-1.2 1-1.4 1.4-.2.5-.2 1 .1 1.5.2.3.4.5.6.7 1 .7.7.3.8-.5 0-.3.1-.6.3-.8.3-.6 1-1.2 1.9-2 .9-.7 2-1.3 3.1-1.8-.2.8-.4 1.6-.7 2.5-.2.9-.5 1.7-.7 2.6-.2.8-.3 1.5-.4 2.1-.1.3-.1.5-.1.8 0 .2.1.5.3.7l.6.6c.2.1.5.2.7.2.5 0 1-.4 1.5-1.1s1-1.5 1.4-2.5.8-1.9 1.1-2.9c-.2.7-.3 1.5-.4 2.2s-.2 1.4-.3 1.9v.8c0 .2.1.5.3.7s.4.4.6.5.5.2.8.2c.5 0 1.2-.5 2.1-1.4.2-.2.4-.5.7-.7 0 .7.2 1.2.7 1.6.6.4 1.3.7 2.1.7s1.6-.2 2.3-.7c.5-.6.9-1 1.2-1.5" style="fill:#fff"/></svg>