<?xml version="1.0" encoding="utf-8"?>
<!-- Generator: Adobe Illustrator 19.1.0, SVG Export Plug-In . SVG Version: 6.00 Build 0)  -->
<!DOCTYPE svg PUBLIC "-//W3C//DTD SVG 1.1//EN" "http://www.w3.org/Graphics/SVG/1.1/DTD/svg11.dtd">
<svg version="1.1" id="Layer_1" xmlns="http://www.w3.org/2000/svg" xmlns:xlink="http://www.w3.org/1999/xlink" x="0px" y="0px"
	 viewBox="-62 64 24 24" style="enable-background:new -62 64 24 24;" xml:space="preserve">
<style type="text/css">
	.st0{fill:url(#SVGID_1_);}
	.st1{fill:#FFFFFF;}
</style>
<linearGradient id="SVGID_1_" gradientUnits="userSpaceOnUse" x1="-50" y1="88" x2="-50" y2="64">
	<stop  offset="0" style="stop-color:#007C8F"/>
	<stop  offset="0.3707" style="stop-color:#007088"/>
	<stop  offset="1" style="stop-color:#005377"/>
</linearGradient>
<path class="st0" d="M-39.2,88h-21.7c-0.6,0-1.2-0.5-1.2-1.2V65.2c0-0.6,0.5-1.2,1.2-1.2h21.7c0.6,0,1.2,0.5,1.2,1.2v21.7
	C-38,87.5-38.5,88-39.2,88z"/>
<path class="st1" d="M-40.3,79.8c0.2-0.2,0.3-0.5,0.4-0.8c0,0,0-0.1,0-0.1c0,0,0-0.1,0-0.1c0,0-0.3,0-0.4,0
	c-0.1,0.1-0.4,0.9-1.3,1.8c-0.5,0.5-1.1,0.6-1.7,0.6c-0.4,0-0.7-0.3-0.9-0.8c-0.2-0.5-0.2-1-0.1-1.7c0.3-1.3,0.6-1.9,1.1-1.9
	c0.3,0,0.3,0.5,0,1.5c-0.2,0.7-0.5,1.2-0.9,1.4c-0.1,0.1-0.2,0.1-0.2,0.2c0,0.1,0.1,0.1,0.3,0c0.6-0.2,1.2-0.4,1.8-0.7
	c0.5-0.3,0.8-0.7,0.9-1c0.1-0.4,0-0.7-0.4-1c-0.4-0.3-0.8-0.5-1.4-0.5c-0.6,0-1.1,0.1-1.6,0.3c0,0,0,0,0-0.1
	c0.9-1.3,1.5-2.6,1.8-3.8c0.4-1.2,0.3-2.1-0.3-2.6c-0.2-0.2-0.5-0.3-0.9-0.4c-0.8-0.2-1.6-0.5-1,0.4c0.1,0.2,0.2,0.3,0.2,0.5
	c0.1,0.6,0.1,1.4-0.1,2.4c-0.2,1-0.6,2-1.1,3c-0.5,1-1,2-1.6,2.8c-0.6,0.8-1.1,1.4-1.7,1.7c0-0.1,0-0.1,0-0.2c0-0.2,0-0.3,0-0.5
	c0-0.2,0-0.3,0-0.4c0.1-0.8,0.3-1.7,0.5-2.6c0.2-0.9,0.4-1.8,0.6-2.5c0.1-0.5,0.2-0.8,0.3-1.1c0-0.2,0-0.4-0.1-0.5
	c-0.1-0.1-0.3-0.2-0.5-0.4c-0.2-0.1-0.4-0.2-0.6-0.3c-0.5-0.3-0.6-0.3-0.7,0.2c-0.1,0.5-0.4,1.2-0.8,2.1c-0.4,0.9-0.8,1.9-1.2,2.8
	c-0.4,1-0.9,1.8-1.3,2.5c-0.4,0.7-0.7,1-1,1c-0.1,0-0.1,0-0.1-0.1c0-0.1,0-0.1,0-0.2c0-0.2,0-0.3,0-0.5c0-0.2,0.1-0.3,0.1-0.4
	c0.1-0.5,0.3-1.2,0.5-1.9s0.4-1.5,0.6-2.2c0.2-0.7,0.4-1.3,0.5-1.8c0.2-0.6,0.3-1.1,0.4-1.3c0-0.2-0.1-0.4-0.4-0.5
	c-0.2-0.1-0.5-0.3-1-0.6c-0.3-0.2-0.5-0.2-0.8-0.1c-0.8,0.3-1.7,0.7-2.5,1.1c-1,0.5-1.9,1-2.6,1.5c-0.8,0.5-1.2,1-1.4,1.4
	c-0.2,0.5-0.2,1,0.1,1.5c0.2,0.3,0.4,0.5,0.6,0.7c1,0.7,0.7,0.3,0.8-0.5c0-0.3,0.1-0.6,0.3-0.8c0.3-0.6,1-1.2,1.9-2
	c0.9-0.7,2-1.3,3.1-1.8c-0.2,0.8-0.4,1.6-0.7,2.5c-0.2,0.9-0.5,1.7-0.7,2.6c-0.2,0.8-0.3,1.5-0.4,2.1c-0.1,0.3-0.1,0.5-0.1,0.8
	c0,0.2,0.1,0.5,0.3,0.7c0.2,0.2,0.4,0.4,0.6,0.6c0.2,0.1,0.5,0.2,0.7,0.2c0.5,0,1-0.4,1.5-1.1c0.5-0.7,1-1.5,1.4-2.5
	c0.4-1,0.8-1.9,1.1-2.9c-0.2,0.7-0.3,1.5-0.4,2.2c-0.1,0.7-0.2,1.4-0.3,1.9c0,0.3,0,0.5,0,0.8c0,0.2,0.1,0.5,0.3,0.7
	c0.2,0.2,0.4,0.4,0.6,0.5c0.2,0.1,0.5,0.2,0.8,0.2c0.5,0,1.2-0.5,2.1-1.4c0.2-0.2,0.4-0.5,0.7-0.7c0,0.7,0.2,1.2,0.7,1.6
	c0.6,0.4,1.3,0.7,2.1,0.7c0.8,0,1.6-0.2,2.3-0.7C-41,80.7-40.6,80.3-40.3,79.8z"/>
</svg>
