<svg xmlns="http://www.w3.org/2000/svg" viewBox="0 0 237.829 208.498"><defs><style>.j{fill:#fff}.k,.l{fill:#333}.l{stroke:#fff;stroke-miterlimit:10;stroke-width:2.81515px}</style></defs><g id="b"><g id="c"><path d="M221.344 26.045v156.408c0 13.597-11.04 24.637-24.638 24.637H41.216c-13.598 0-24.638-11.04-24.638-24.638V26.046c0-13.599 11.04-24.638 24.638-24.638h155.49c13.598 0 24.638 11.04 24.638 24.637Z" class="l"/><rect width="185.348" height="185.366" x="26.287" y="11.566" class="l" rx="14.707" ry="14.707"/><path d="M237.83 85.092v44.159c0 6.031-4.897 10.928-10.928 10.928H10.928C4.896 140.179 0 135.282 0 129.25V85.09c0-6.03 4.896-10.926 10.927-10.926h215.975c6.03 0 10.927 4.896 10.927 10.927" class="k"/><rect width="222.842" height="50.696" x="8.043" y="81.729" class="j" rx="6.937" ry="6.937"/><g id="d"><path id="e" d="M111.826 43.056h-9.705a1.62 1.62 0 0 1-1.305-1.16 2.15 2.15 0 0 1 .869-2.084l.696-.627c.294-.258.58-.54.884-.778l4.311-3.684.647-.538a16 16 0 0 0 1.254-1.079 3.52 3.52 0 0 0 1.044-2.563 2.26 2.26 0 0 0-.796-1.677 3.54 3.54 0 0 0-2.634-.798 5.25 5.25 0 0 0-3.474 1.891 1.302 1.302 0 0 1-2.015-1.649l.008-.01a7.9 7.9 0 0 1 5.237-2.818 6.06 6.06 0 0 1 4.544 1.393 4.84 4.84 0 0 1 1.723 3.554 6.1 6.1 0 0 1-1.771 4.515q-.698.67-1.455 1.27l-.606.485-4.306 3.672-.098.1h6.948a1.302 1.302 0 1 1 0 2.601z" class="j"/><path id="f" d="M136.473 25.439a1.31 1.31 0 1 1-.005 0z" class="j"/><path id="g" d="M121.681 25.42a1.304 1.304 0 1 1 .348 2.586 6.463 6.463 0 0 0 0 12.478 1.298 1.298 0 0 1-.358 2.57h-.024a1.3 1.3 0 0 1-.314-.08 9.074 9.074 0 0 1 0-17.495q.17-.048.348-.049" class="j"/><path id="h" d="M125.844 25.418q.178-.002.347.048a9.073 9.073 0 0 1 0 17.496 1.302 1.302 0 0 1-.699-2.505 6.468 6.468 0 0 0 0-12.479 1.3 1.3 0 0 1 .344-2.556z" class="j"/><path id="i" d="M136.484 43.048a1.3 1.3 0 0 1-1.301-1.293v-9.578a1.302 1.302 0 0 1 2.601 0v9.568a1.293 1.293 0 0 1-1.28 1.304zm6.69-16.643a1.568 1.568 0 1 1-3.137.012 1.55 1.55 0 0 1 1.528-1.57h.046a1.53 1.53 0 0 1 1.562 1.495zm-.258 0a1.276 1.276 0 0 0-1.235-1.315h-.069a1.3 1.3 0 0 0-1.319 1.326 1.312 1.312 0 1 0 2.621.125l.002-.044v-.054a.06.06 0 0 0 0-.036zm-.85.282.392.598h-.383l-.348-.532h-.395v.532h-.38v-1.747h.727c.463 0 .739.243.739.61a.55.55 0 0 1-.352.542m-.41-.233c.247 0 .392-.114.392-.31s-.14-.303-.392-.303h-.329v.616z" class="j"/></g><path d="M50.525 55.367v4.636h6.668v1.634h-6.668v5.376h-1.9V53.715h9.385v1.652zm8.93 4.997c0-3.894 3.001-6.801 7.086-6.801 4.046 0 7.048 2.887 7.048 6.801 0 3.913-3.002 6.8-7.048 6.8-4.085 0-7.086-2.905-7.086-6.8m12.234 0c0-2.945-2.204-5.11-5.148-5.11-2.982 0-5.187 2.165-5.187 5.11 0 2.944 2.205 5.11 5.187 5.11 2.944 0 5.148-2.166 5.148-5.11m3.593 5.129.702-1.481c.989.892 2.679 1.538 4.389 1.538 2.299 0 3.286-.892 3.286-2.052 0-3.248-8.055-1.196-8.055-6.135 0-2.052 1.596-3.8 5.092-3.8 1.558 0 3.172.418 4.275 1.178l-.627 1.52a6.87 6.87 0 0 0-3.648-1.083c-2.26 0-3.23.95-3.23 2.108 0 3.249 8.055 1.216 8.055 6.099 0 2.032-1.633 3.78-5.148 3.78-2.032 0-4.027-.684-5.09-1.672m11.798 0 .702-1.481c.988.892 2.679 1.538 4.389 1.538 2.299 0 3.286-.892 3.286-2.052 0-3.248-8.055-1.196-8.055-6.135 0-2.052 1.596-3.8 5.092-3.8 1.558 0 3.172.418 4.274 1.178l-.626 1.52a6.87 6.87 0 0 0-3.648-1.083c-2.26 0-3.23.95-3.23 2.108 0 3.249 8.055 1.216 8.055 6.099 0 2.032-1.634 3.78-5.148 3.78-2.032 0-4.028-.684-5.091-1.672m26.599-1.805h-7.068l-1.463 3.325h-1.956l6.022-13.298h1.88l6.042 13.298h-1.994zm-.665-1.52-2.87-6.515-2.868 6.516zm24.186-8.453-4.445 13.298h-1.995l-3.628-10.62-3.63 10.62h-2.031l-4.447-13.298h1.957l3.591 10.81 3.742-10.81h1.748l3.666 10.866 3.667-10.866zm10.375 9.973h-7.067l-1.463 3.325h-1.956l6.021-13.298h1.881l6.041 13.298h-1.994zm-.665-1.52-2.87-6.515-2.867 6.516zm14.991 4.845-2.869-4.084c-.265.019-.55.038-.836.038h-3.286v4.046h-1.9V53.715h5.186c3.458 0 5.548 1.748 5.548 4.635 0 2.052-1.064 3.534-2.926 4.199l3.154 4.464zm-.057-8.663c0-1.9-1.273-2.983-3.704-2.983h-3.23v5.985h3.23c2.431 0 3.704-1.102 3.704-3.002m4.979-4.635h5.604c4.274 0 7.181 2.697 7.181 6.65 0 3.95-2.907 6.648-7.181 6.648h-5.604zm5.49 11.645c3.287 0 5.395-2.014 5.395-4.996s-2.108-4.997-5.395-4.997h-3.59v9.993zm8.988.133.702-1.481c.988.892 2.679 1.538 4.389 1.538 2.298 0 3.286-.892 3.286-2.052 0-3.248-8.055-1.196-8.055-6.135 0-2.052 1.596-3.8 5.092-3.8 1.557 0 3.172.418 4.274 1.178l-.627 1.52a6.87 6.87 0 0 0-3.647-1.083c-2.261 0-3.23.95-3.23 2.108 0 3.249 8.055 1.216 8.055 6.099 0 2.032-1.634 3.78-5.148 3.78-2.033 0-4.028-.684-5.091-1.672" class="j"/><path d="M92.318 94.897c0 2.497-1.873 4.05-4.866 4.05h-2.257v3.089h-2.593V90.83h4.85c2.993 0 4.866 1.553 4.866 4.066m-2.626 0c0-1.233-.8-1.953-2.384-1.953h-2.113v3.89h2.113c1.585 0 2.384-.72 2.384-1.937m11.601 7.14-2.161-3.121h-2.385v3.12h-2.594V90.832h4.85c2.994 0 4.867 1.553 4.867 4.066 0 1.68-.849 2.913-2.306 3.537l2.514 3.602zm-2.434-9.092h-2.112v3.906h2.112c1.585 0 2.385-.736 2.385-1.953 0-1.233-.8-1.953-2.385-1.953m6.35 3.49c0-3.33 2.594-5.795 6.13-5.795 3.522 0 6.13 2.45 6.13 5.795s-2.608 5.794-6.13 5.794c-3.536 0-6.13-2.465-6.13-5.794m9.636 0c0-2.129-1.504-3.586-3.505-3.586s-3.506 1.457-3.506 3.586 1.505 3.585 3.506 3.585 3.505-1.457 3.505-3.585m2.748 4.162 1.44-1.73c.609.817 1.28 1.233 2.081 1.233 1.04 0 1.584-.624 1.584-1.857v-5.33h-3.937v-2.08h6.514v7.266c0 2.77-1.392 4.13-4.033 4.13-1.505 0-2.833-.576-3.65-1.632m18.917-.641v2.08h-8.676V90.832h8.468v2.081h-5.89v2.433h5.201v2.017h-5.202v2.593zm1.325-3.521c0-3.378 2.594-5.795 6.083-5.795 1.936 0 3.553.705 4.61 1.985l-1.665 1.537c-.753-.865-1.697-1.313-2.817-1.313-2.097 0-3.586 1.473-3.586 3.586s1.49 3.585 3.586 3.585c1.12 0 2.064-.448 2.817-1.328l1.664 1.536c-1.056 1.297-2.673 2-4.626 2-3.472 0-6.066-2.416-6.066-5.793m14.641-3.49h-3.585v-2.113h9.763v2.113h-3.586v9.092h-2.592zM71.55 121.236l-.015-6.723-3.298 5.539H67.07l-3.281-5.394v6.578h-2.434v-11.204H63.5l4.193 6.962 4.13-6.962h2.13l.031 11.204zm12.463-2.401H78.81l-.993 2.401H75.16l4.994-11.204h2.562l5.01 11.204h-2.721zm-.816-1.968-1.777-4.29-1.776 4.29zm15.969-6.835v11.204h-2.129l-5.586-6.803v6.803H88.89v-11.204h2.145l5.57 6.802v-6.802zm10.03 8.803h-5.2l-.994 2.401h-2.657l4.994-11.204h2.561l5.01 11.204h-2.72zm-.815-1.968-1.778-4.29-1.776 4.29zm13.103-1.409h2.37v4.546c-1.233.928-2.93 1.424-4.53 1.424-3.521 0-6.115-2.417-6.115-5.794s2.594-5.794 6.163-5.794c1.969 0 3.602.672 4.69 1.936l-1.666 1.537c-.815-.864-1.76-1.264-2.896-1.264-2.177 0-3.666 1.456-3.666 3.585 0 2.097 1.49 3.586 3.634 3.586.704 0 1.36-.129 2.016-.48zm13.441 3.697v2.081h-8.676v-11.204h8.468v2.08h-5.89v2.433h5.201v2.017h-5.202v2.593zm12.257 2.081-.016-6.723-3.298 5.539H142.7l-3.281-5.394v6.578h-2.434v-11.204h2.146l4.193 6.962 4.13-6.962h2.129l.032 11.204zm13.758-2.081v2.081h-8.675v-11.204h8.467v2.08h-5.89v2.433h5.202v2.017h-5.202v2.593zm12.337-9.123v11.204h-2.129l-5.586-6.803v6.803h-2.561v-11.204h2.145l5.57 6.802v-6.802zm4.973 2.112h-3.585v-2.112h9.764v2.112h-3.586v9.092h-2.593z" class="k"/><path d="M98.442 146.799v11.899h-2.754v-4.879h-5.405v4.879H87.53v-11.9h2.754v4.693h5.405v-4.692zm2.824 0h2.753v11.899h-2.753zm13.616 5.762h2.515v4.827c-1.308.987-3.11 1.514-4.81 1.514-3.74 0-6.493-2.567-6.493-6.154s2.754-6.153 6.544-6.153c2.09 0 3.825.714 4.98 2.057l-1.767 1.631c-.868-.917-1.87-1.342-3.078-1.342-2.311 0-3.892 1.547-3.892 3.807 0 2.227 1.58 3.808 3.86 3.808.747 0 1.444-.136 2.14-.51zm15.979-5.762v11.899h-2.754v-4.879h-5.405v4.879h-2.754v-11.9h2.754v4.693h5.405v-4.692zm2.824 0h2.753v9.655h5.966v2.244h-8.72zm14.755 7.683v4.216h-2.754v-4.25l-4.607-7.65h2.924l3.179 5.287 3.178-5.286h2.703zm-93.747 24.615-2.295-3.314h-2.532v3.314h-2.754V167.2h5.15c3.18 0 5.168 1.648 5.168 4.317 0 1.785-.9 3.094-2.448 3.757l2.67 3.824zm-2.584-9.654h-2.243v4.147h2.243c1.683 0 2.534-.782 2.534-2.074 0-1.309-.851-2.073-2.534-2.073m16.711 7.444v2.21h-9.213V167.2H68.6v2.21h-6.256v2.583h5.524v2.142h-5.524v2.753zm1.412-3.739c0-3.587 2.754-6.154 6.46-6.154 2.056 0 3.773.748 4.895 2.108l-1.768 1.632c-.799-.918-1.801-1.393-2.992-1.393-2.226 0-3.808 1.563-3.808 3.807s1.582 3.808 3.808 3.808c1.19 0 2.193-.476 2.992-1.411l1.768 1.632c-1.122 1.377-2.839 2.125-4.912 2.125-3.689 0-6.443-2.567-6.443-6.154m12.206 0c0-3.535 2.754-6.154 6.51-6.154 3.74 0 6.51 2.601 6.51 6.154s-2.77 6.154-6.51 6.154c-3.756 0-6.51-2.618-6.51-6.154m10.233 0c0-2.26-1.598-3.807-3.723-3.807s-3.722 1.546-3.722 3.807 1.598 3.808 3.722 3.808c2.125 0 3.723-1.547 3.723-3.808m15.69 5.949-.016-7.139-3.502 5.882h-1.24l-3.486-5.729v6.986h-2.583V167.2h2.277l4.455 7.394 4.384-7.394h2.261l.034 11.898zm16.235 0-.017-7.139-3.502 5.882h-1.24l-3.485-5.729v6.986h-2.583V167.2h2.277l4.454 7.394 4.385-7.394h2.26l.035 11.898zm14.62-2.21v2.21h-9.213V167.2h8.992v2.21h-6.256v2.583h5.525v2.142h-5.525v2.753zm13.107-9.688v11.898h-2.26l-5.933-7.224v7.224h-2.72V167.2h2.277l5.916 7.224V167.2zm2.823 0h5.406c3.892 0 6.561 2.345 6.561 5.95 0 3.603-2.669 5.948-6.561 5.948h-5.406zm5.27 9.638c2.362 0 3.91-1.41 3.91-3.689s-1.548-3.689-3.91-3.689H157.9v7.378zm17.985.05v2.21h-9.213V167.2h8.993v2.21h-6.256v2.583h5.524v2.142h-5.524v2.753zm2.195-9.688H186c3.893 0 6.561 2.345 6.561 5.95 0 3.603-2.668 5.948-6.561 5.948h-5.405zm5.27 9.638c2.361 0 3.908-1.41 3.908-3.689s-1.547-3.689-3.909-3.689h-2.515v7.378z" class="j"/></g></g></svg>