<svg xmlns="http://www.w3.org/2000/svg" id="Layer_1" width="241.66" height="208.579" data-name="Layer 1"><defs><style>.cls-1,.cls-2{fill:#333}.cls-1{stroke:#fff;stroke-miterlimit:10;stroke-width:2.815px}.cls-3{fill:#fff}</style></defs><path d="M223.259 26.086v156.407a24.637 24.637 0 0 1-24.637 24.637H43.132a24.64 24.64 0 0 1-24.638-24.638V26.086A24.64 24.64 0 0 1 43.132 1.448h155.49a24.637 24.637 0 0 1 24.637 24.638Z" class="cls-1"/><rect width="185.348" height="185.366" x="28.202" y="11.607" class="cls-1" rx="14.707"/><path d="M239.742 85.133v44.159a10.93 10.93 0 0 1-10.925 10.927H12.842a10.93 10.93 0 0 1-10.928-10.928V85.132a10.927 10.927 0 0 1 10.928-10.927h215.975a10.93 10.93 0 0 1 10.925 10.928" class="cls-2"/><rect width="222.842" height="50.696" x="9.958" y="81.769" class="cls-3" rx="6.937"/><g id="Group_6414" data-name="Group 6414"><path id="Path_31743" d="M113.741 43.1h-9.7a1.62 1.62 0 0 1-1.305-1.16 2.15 2.15 0 0 1 .868-2.084l.7-.627c.293-.258.58-.539.884-.779l4.311-3.684.646-.538a16 16 0 0 0 1.255-1.078 3.52 3.52 0 0 0 1.043-2.563 2.26 2.26 0 0 0-.8-1.677 3.55 3.55 0 0 0-2.635-.8 5.25 5.25 0 0 0-3.476 1.89 1.3 1.3 0 1 1-2.015-1.649l.008-.01a7.9 7.9 0 0 1 5.238-2.818 6.06 6.06 0 0 1 4.543 1.392 4.84 4.84 0 0 1 1.723 3.555 6.1 6.1 0 0 1-1.771 4.515q-.7.669-1.454 1.27l-.606.484-4.306 3.672-.1.1h6.948a1.3 1.3 0 0 1 .12 2.6h-.12Z" class="cls-3" data-name="Path 31743"/><path id="Path_31744" d="M138.389 25.48a1.31 1.31 0 1 1-.005 0z" class="cls-3" data-name="Path 31744"/><path id="Path_31745" d="M123.6 25.461a1.3 1.3 0 0 1 .347 2.585 6.464 6.464 0 0 0 0 12.479 1.3 1.3 0 1 1-.358 2.57h-.023a1.3 1.3 0 0 1-.314-.081 9.074 9.074 0 0 1 0-17.5 1.4 1.4 0 0 1 .347-.048" class="cls-3" data-name="Path 31745"/><path id="Path_31746" d="M127.76 25.459a1.2 1.2 0 0 1 .346.048 9.072 9.072 0 0 1 0 17.5 1.3 1.3 0 0 1-.7-2.5 6.468 6.468 0 0 0 0-12.479 1.3 1.3 0 0 1 .343-2.556Z" class="cls-3" data-name="Path 31746"/><path id="Path_31747" d="M138.4 43.089a1.3 1.3 0 0 1-1.3-1.293v-9.578a1.3 1.3 0 0 1 2.6 0v9.568a1.294 1.294 0 0 1-1.281 1.3h-.02Zm6.69-16.643a1.569 1.569 0 1 1-3.137.011 1.55 1.55 0 0 1 1.529-1.569h.045a1.53 1.53 0 0 1 1.563 1.495zm-.259 0a1.276 1.276 0 0 0-1.235-1.315h-.068a1.3 1.3 0 0 0-1.319 1.277.1.1 0 0 0 0 .049 1.312 1.312 0 0 0 2.621.124v-.1a.06.06 0 0 0 0-.036Zm-.85.282.392.6h-.383l-.347-.532h-.4v.532h-.38v-1.749h.727c.463 0 .739.242.739.609a.55.55 0 0 1-.352.542m-.41-.232c.248 0 .392-.114.392-.311s-.14-.3-.392-.3h-.328v.613Z" class="cls-3" data-name="Path 31747"/></g><path d="M52.441 55.408v4.636h6.668v1.634h-6.668v5.376h-1.9v-13.3h9.383v1.652Zm8.93 4.997a7.072 7.072 0 1 1 7.086 6.8 6.76 6.76 0 0 1-7.086-6.8m12.234 0a5.168 5.168 0 1 0-5.148 5.11 4.993 4.993 0 0 0 5.148-5.11m3.595 5.129.7-1.482a6.85 6.85 0 0 0 4.389 1.539c2.3 0 3.286-.893 3.286-2.052 0-3.248-8.055-1.2-8.055-6.136 0-2.051 1.6-3.8 5.092-3.8a7.8 7.8 0 0 1 4.274 1.178l-.627 1.519a6.87 6.87 0 0 0-3.647-1.083c-2.261 0-3.23.95-3.23 2.109 0 3.249 8.055 1.216 8.055 6.1 0 2.033-1.634 3.781-5.148 3.781a7.9 7.9 0 0 1-5.089-1.673m11.8 0 .7-1.482a6.84 6.84 0 0 0 4.388 1.539c2.3 0 3.287-.893 3.287-2.052 0-3.248-8.055-1.2-8.055-6.136 0-2.051 1.6-3.8 5.092-3.8a7.8 7.8 0 0 1 4.274 1.178l-.628 1.519a6.9 6.9 0 0 0-3.647-1.083c-2.261 0-3.23.95-3.23 2.109 0 3.249 8.055 1.216 8.055 6.1 0 2.033-1.634 3.781-5.149 3.781A7.9 7.9 0 0 1 89 65.534m26.6-1.805h-7.067l-1.463 3.325h-1.956l6.021-13.3h1.881l6.041 13.3h-1.994Zm-.665-1.52-2.869-6.516-2.868 6.516Zm24.181-8.453-4.445 13.3h-2l-3.628-10.62-3.629 10.62h-2.032l-4.446-13.3h1.964l3.59 10.809 3.742-10.809h1.749l3.666 10.866 3.667-10.866Zm10.375 9.973h-7.067l-1.463 3.325h-1.956l6.021-13.3h1.881l6.041 13.3h-1.994Zm-.665-1.52-2.869-6.516-2.868 6.516Zm14.991 4.845-2.869-4.085c-.265.019-.551.038-.836.038h-3.286v4.047h-1.9v-13.3h5.185c3.458 0 5.548 1.747 5.548 4.635a4.2 4.2 0 0 1-2.926 4.2l3.154 4.465Zm-.057-8.663c0-1.9-1.273-2.983-3.7-2.983h-3.23v5.985h3.23c2.427 0 3.7-1.102 3.7-3.002m4.979-4.635h5.6c4.274 0 7.181 2.7 7.181 6.649s-2.907 6.649-7.181 6.649h-5.6Zm5.49 11.645c3.287 0 5.395-2.014 5.395-5s-2.108-5-5.395-5h-3.59V65.4Zm8.988.133.7-1.482a6.85 6.85 0 0 0 4.389 1.539c2.3 0 3.286-.893 3.286-2.052 0-3.248-8.055-1.2-8.055-6.136 0-2.051 1.6-3.8 5.092-3.8a7.8 7.8 0 0 1 4.274 1.178l-.627 1.519a6.87 6.87 0 0 0-3.647-1.083c-2.261 0-3.23.95-3.23 2.109 0 3.249 8.055 1.216 8.055 6.1 0 2.033-1.634 3.781-5.148 3.781a7.9 7.9 0 0 1-5.089-1.673" class="cls-3"/><path d="M94.234 94.938c0 2.5-1.873 4.049-4.866 4.049h-2.257v3.09h-2.594v-11.2h4.851c2.993-.005 4.866 1.548 4.866 4.061m-2.626 0c0-1.233-.8-1.953-2.385-1.953h-2.112v3.89h2.112c1.585 0 2.385-.721 2.385-1.937m11.6 7.139-2.161-3.121h-2.384v3.121h-2.594v-11.2h4.85c2.994 0 4.867 1.553 4.867 4.066a3.64 3.64 0 0 1-2.306 3.537l2.514 3.6Zm-2.433-9.092h-2.112v3.906h2.112c1.585 0 2.385-.737 2.385-1.953 0-1.233-.8-1.953-2.385-1.953m6.35 3.49a6.14 6.14 0 1 1 6.13 5.794 5.8 5.8 0 0 1-6.13-5.794m9.635 0a3.506 3.506 0 1 0-3.505 3.585 3.42 3.42 0 0 0 3.505-3.585" class="cls-2"/><path d="m119.508 100.636 1.441-1.729a2.57 2.57 0 0 0 2.08 1.233c1.04 0 1.584-.624 1.584-1.857v-5.33h-3.937v-2.081h6.514v7.267c0 2.769-1.392 4.13-4.033 4.13a4.51 4.51 0 0 1-3.649-1.633m18.916-.636v2.081h-8.676v-11.2h8.468v2.081h-5.891v2.433h5.2V97.4h-5.2v2.6Zm1.325-3.525a6.169 6.169 0 0 1 10.692-3.81l-1.664 1.535a3.6 3.6 0 0 0-2.817-1.313 3.586 3.586 0 1 0 0 7.171 3.57 3.57 0 0 0 2.817-1.329l1.664 1.537a6.159 6.159 0 0 1-10.692-3.793Zm14.641-3.49h-3.585v-2.113h9.763v2.113h-3.586v9.092h-2.592Zm-80.924 28.292-.015-6.722-3.3 5.538h-1.166L65.7 114.7v6.579h-2.43v-11.2h2.146l4.193 6.963 4.13-6.963h2.129l.032 11.2Zm12.462-2.401h-5.2l-.993 2.4h-2.658l4.994-11.2h2.561l5.01 11.2h-2.721Zm-.815-1.969-1.778-4.29-1.776 4.29Zm15.969-6.835v11.2h-2.129l-5.586-6.8v6.8h-2.562v-11.2h2.146l5.57 6.8v-6.8Zm10.03 8.804h-5.2l-.994 2.4h-2.658l4.994-11.2h2.562l5.01 11.2h-2.721Zm-.816-1.969-1.777-4.29-1.776 4.29ZM123.4 115.5h2.37v4.546a7.74 7.74 0 0 1-4.53 1.424 5.766 5.766 0 0 1-6.114-5.794c0-3.377 2.593-5.794 6.163-5.794a5.97 5.97 0 0 1 4.689 1.936l-1.665 1.537a3.79 3.79 0 0 0-2.9-1.264 3.586 3.586 0 1 0-.033 7.171 4.1 4.1 0 0 0 2.016-.481Zm13.44 3.7v2.081h-8.676v-11.2h8.468v2.081h-5.891v2.433h5.2v2.005h-5.2v2.6Zm12.26 2.077-.016-6.722-3.3 5.538h-1.168l-3.281-5.4v6.579H138.9v-11.2h2.146l4.193 6.963 4.13-6.963h2.131l.032 11.2Zm13.755-2.077v2.081h-8.675v-11.2h8.467v2.081h-5.89v2.433h5.2v2.005h-5.2v2.6Zm12.337-9.128v11.2h-2.129l-5.585-6.8v6.8h-2.562v-11.2h2.146l5.57 6.8v-6.8Zm4.973 2.114h-3.585v-2.114h9.764v2.114h-3.586v9.091h-2.593Z" class="cls-2"/><path d="M100.358 146.84v11.9H97.6v-4.88h-5.4v4.878h-2.755v-11.9H92.2v4.691h5.4v-4.689Zm2.823 0h2.754v11.9h-2.754Zm13.619 5.76h2.516v4.827a8.2 8.2 0 0 1-4.811 1.512c-3.739 0-6.493-2.566-6.493-6.153s2.754-6.153 6.544-6.153a6.35 6.35 0 0 1 4.981 2.056l-1.768 1.632a4.03 4.03 0 0 0-3.077-1.343 3.809 3.809 0 1 0-.033 7.616 4.4 4.4 0 0 0 2.141-.51Zm15.977-5.76v11.9h-2.754v-4.88h-5.405v4.878h-2.754v-11.9h2.754v4.691h5.405v-4.689Zm2.823 0h2.753v9.66h5.966v2.243H135.6Zm14.755 7.682v4.216H147.6v-4.249l-4.6-7.649h2.924l3.179 5.286 3.178-5.286h2.7Zm-93.746 24.617-2.3-3.315h-2.527v3.315h-2.754v-11.9h5.15c3.179 0 5.167 1.65 5.167 4.319a3.87 3.87 0 0 1-2.447 3.755l2.669 3.826Zm-2.584-9.656h-2.243v4.148h2.243c1.683 0 2.533-.782 2.533-2.073 0-1.31-.85-2.075-2.533-2.075m16.711 7.446v2.21h-9.213v-11.9h8.992v2.21h-6.256v2.584h5.525v2.142h-5.525v2.754Zm1.412-3.74a6.551 6.551 0 0 1 11.352-4.045l-1.767 1.631a3.83 3.83 0 0 0-2.992-1.393 3.808 3.808 0 1 0 0 7.615 3.8 3.8 0 0 0 2.992-1.411l1.767 1.632a6.54 6.54 0 0 1-11.354-4.029Zm12.206 0a6.521 6.521 0 1 1 6.51 6.154 6.16 6.16 0 0 1-6.51-6.154m10.232 0A3.723 3.723 0 1 0 90.864 177a3.63 3.63 0 0 0 3.722-3.811m15.691 5.95L110.26 172l-3.5 5.882h-1.24l-3.485-5.729v6.987H99.45v-11.9h2.277l4.454 7.395 4.385-7.395h2.261l.034 11.9Zm16.235 0L126.5 172l-3.5 5.882h-1.241l-3.485-5.729v6.987h-2.583v-11.9h2.277l4.455 7.395 4.385-7.395h2.261l.034 11.9Zm14.62-2.21v2.21h-9.213v-11.9h8.992v2.21h-6.256v2.584h5.525v2.142h-5.525v2.754Zm13.107-9.69v11.9h-2.26l-5.933-7.225v7.225h-2.72v-11.9h2.274l5.916 7.225v-7.225Zm2.823 0h5.406c3.892 0 6.561 2.346 6.561 5.95s-2.669 5.95-6.561 5.95h-5.406Zm5.27 9.639c2.362 0 3.909-1.411 3.909-3.689s-1.547-3.689-3.909-3.689h-2.516v7.378Zm17.985.051v2.21H171.1v-11.9h9v2.21h-6.256v2.584h5.524v2.142h-5.524v2.754Zm2.195-9.69h5.405c3.893 0 6.562 2.346 6.562 5.95s-2.669 5.95-6.562 5.95h-5.405Zm5.269 9.639c2.363 0 3.909-1.411 3.909-3.689s-1.546-3.689-3.909-3.689h-2.515v7.378Z" class="cls-3"/></svg>