<svg xmlns="http://www.w3.org/2000/svg" xmlns:xlink="http://www.w3.org/1999/xlink" viewBox="0 0 200 300"><defs><radialGradient id="f" cx="-188.9" cy="456.47" r="62.047" gradientTransform="matrix(-.0979 0 0 -.69934 83.203 1239.5)" gradientUnits="userSpaceOnUse"><stop offset="0" style="stop-color:#f6c374"/><stop offset="1" style="stop-color:#b88100"/></radialGradient><radialGradient id="j" cx="-197.15" cy="316.24" r="42.421" gradientTransform="matrix(-1.1182 .05513 -.09068 -2.5015 -764.72 1065.3)" gradientUnits="userSpaceOnUse"><stop offset="0" style="stop-color:#dcac62"/><stop offset="1" style="stop-color:#b88100"/></radialGradient><radialGradient xlink:href="#a" id="c" cx="-273.75" cy="320.53" r="49.711" gradientTransform="matrix(-.61828 -1.9302 1.0465 -.30931 -456.37 425.19)" gradientUnits="userSpaceOnUse"/><radialGradient xlink:href="#a" id="b" cx="-273.75" cy="320.53" r="49.711" gradientTransform="matrix(.61828 -1.9302 -1.0465 -.30931 657.37 425.8)" gradientUnits="userSpaceOnUse"/><radialGradient id="k" cx="-192.94" cy="403.74" r="62.047" gradientTransform="matrix(0 .41682 -.75285 0 403.49 962.84)" gradientUnits="userSpaceOnUse"><stop offset="0" style="stop-color:#fcca77"/><stop offset="1" style="stop-color:#fcca77;stop-opacity:0"/></radialGradient><linearGradient id="a"><stop offset="0" style="stop-color:#e7bc77"/><stop offset="1" style="stop-color:#e7bc77;stop-opacity:0"/></linearGradient><linearGradient id="e" x1="-211.12" x2="-201.02" y1="245.25" y2="389.7" gradientTransform="matrix(.63388 0 0 .60891 221.84 644.83)" gradientUnits="userSpaceOnUse"><stop offset="0" style="stop-color:#b88100"/><stop offset="1" style="stop-color:#fecd7b"/></linearGradient><linearGradient id="l" x1="65.5" x2="64.5" y1="987.36" y2="1039.4" gradientTransform="matrix(.98545 0 0 1.0181 .722 -21.779)" gradientUnits="userSpaceOnUse"><stop offset="0" style="stop-color:#692017"/><stop offset="1" style="stop-color:#46150f"/></linearGradient><linearGradient id="d" x1="107.5" x2="106.5" y1="780.36" y2="788.86" gradientUnits="userSpaceOnUse"><stop offset="0" style="stop-color:#804d00"/><stop offset="1" style="stop-color:#b98304"/></linearGradient><linearGradient id="m" x1="98.5" x2="64.5" y1="993.86" y2="995.36" gradientTransform="matrix(1 0 0 1.2162 0 -213.44)" gradientUnits="userSpaceOnUse"><stop offset="0" style="stop-color:#f0be63"/><stop offset="1" style="stop-color:#b88100"/></linearGradient><filter id="g" width="1.276" height="1.102" x="-.138" y="-.051" color-interpolation-filters="sRGB"><feGaussianBlur stdDeviation="3.252"/></filter><filter id="h" width="1.255" height="1.095" x="-.127" y="-.047" color-interpolation-filters="sRGB"><feGaussianBlur stdDeviation="3.001"/></filter><filter id="i" color-interpolation-filters="sRGB"><feGaussianBlur stdDeviation="2.732"/></filter><filter id="n" width="1.573" height="1.135" x="-.286" y="-.067"><feGaussianBlur stdDeviation="2.148"/></filter><filter id="o" width="1.266" height="9.171" x="-.133" y="-4.085"><feGaussianBlur stdDeviation="9.362"/></filter></defs><g transform="translate(0 -752.36)"><path d="M173.25 767.87a61 61 0 0 0-4.457.19c-2.992.23-5.922.642-8.28 1.123-1.18.24-2.222.49-3.07.761-.85.27-1.451.447-2.12 1.047-1.613 1.446-2.374 3.34-2.714 5.233s-.317 3.827-.317 5.67-.03 3.59-.356 4.985-.857 2.4-1.942 3.16c-.585.409-2.955.64-5.05.418s-3.883-.666-3.883-.666l-.793 2.93s1.98.492 4.338.742 5.131.494 7.25-.99c1.801-1.26 2.738-3.077 3.17-4.928s.416-3.789.416-5.651.007-3.652.277-5.157.765-2.662 1.743-3.539c-.17.153.31-.163.99-.38a27 27 0 0 1 2.715-.686c2.196-.448 5.03-.847 7.883-1.065 2.853-.219 5.735-.238 8.003.019 2.269.257 3.813.951 4.08 1.294 3.547 4.524 4.154 12.335 2.2 21.749s-6.385 20.327-12.262 30.92c-11.754 21.188-31.531 39.04-45.916 43.745l1.01 2.873c16.125-5.275 35.699-23.596 47.679-45.19 5.99-10.797 10.538-21.927 12.579-31.758 2.04-9.831 1.678-18.486-2.773-24.166-1.351-1.724-3.623-2.18-6.22-2.474a37 37 0 0 0-4.18-.209" style="block-progression:tb;text-indent:0;color:#000;text-transform:none;fill:#b88100"/><path d="M174.04 768.48c1.52-.004 2.982.062 4.336.207 2.708.29 5.075.741 6.484 2.445 4.64 5.614 5.017 14.168 2.89 23.885s-6.847 20.717-13.09 31.389c-12.488 21.344-32.828 39.428-49.636 44.642l-1.053-2.84c14.994-4.65 35.525-22.271 47.777-43.212 6.126-10.471 10.744-21.256 12.781-30.562 2.037-9.305 1.404-17.025-2.292-21.497-.28-.339-1.889-1.025-4.253-1.279-2.365-.254-5.368-.235-8.342-.019-2.973.216-5.928.61-8.218 1.053a30 30 0 0 0-2.829.678c-.71.214-1.21.527-1.032.376-1.02.867-1.535 2.01-1.817 3.498-.282 1.487-.269 3.256-.268 5.096 0 1.84-.004 3.757-.455 5.586-.45 1.83-1.426 3.625-3.303 4.871-2.21 1.466-5.099 1.226-7.558.978s-4.521-.733-4.521-.733l.825-2.897s1.863.439 4.047.659 4.656-.01 5.266-.414c1.13-.75 1.704-1.743 2.044-3.122.34-1.38.372-3.106.371-4.928 0-1.821-.044-3.734.31-5.604.355-1.87 1.148-3.743 2.829-5.172.697-.593 1.345-.767 2.23-1.035s1.95-.514 3.18-.752c2.458-.475 5.512-.883 8.63-1.11a67 67 0 0 1 4.667-.188z" style="block-progression:tb;text-indent:0;color:#000;text-transform:none;fill:url(#b)"/><path d="M26.346 767.87a36 36 0 0 0-4.16.21c-2.598.293-4.869.75-6.22 2.473-4.451 5.68-4.813 14.335-2.773 24.166 2.04 9.832 6.569 20.961 12.559 31.758 11.98 21.595 31.574 39.916 47.699 45.19l1.01-2.873c-14.385-4.706-34.162-22.557-45.916-43.744-5.877-10.594-10.308-21.506-12.262-30.921s-1.347-17.225 2.199-21.75c.268-.342 1.812-1.036 4.08-1.293 2.269-.257 5.15-.238 8.003-.02 2.853.22 5.687.618 7.884 1.066 1.099.224 2.033.468 2.714.685.68.218 1.16.534.99.381.979.877 1.473 2.035 1.744 3.54s.258 3.294.257 5.156c0 1.862.004 3.801.436 5.651s1.369 3.668 3.17 4.929c2.118 1.483 4.89 1.24 7.25.99 2.358-.251 4.338-.743 4.338-.743l-.793-2.93s-1.787.443-3.882.666-4.467-.01-5.052-.419c-1.084-.76-1.635-1.763-1.96-3.159s-.358-3.142-.357-4.985c0-1.843.043-3.778-.297-5.67-.34-1.893-1.101-3.787-2.714-5.233-.669-.6-1.29-.776-2.14-1.047-.848-.27-1.871-.52-3.05-.761-2.358-.481-5.288-.894-8.28-1.123a61 61 0 0 0-4.477-.19" style="block-progression:tb;text-indent:0;color:#000;text-transform:none;fill:#b88100"/><path d="M26.954 767.87a40 40 0 0 0-4.336.207c-2.708.29-5.075.741-6.484 2.445-4.64 5.614-5.017 14.168-2.89 23.885s6.847 20.717 13.09 31.389c12.488 21.344 32.828 41.428 49.636 46.642l1.053-2.84c-14.994-4.65-35.525-24.271-47.777-45.212-6.126-10.471-10.744-21.256-12.781-30.562-2.037-9.305-1.405-17.025 2.292-21.497.28-.338 1.889-1.025 4.253-1.279s5.368-.235 8.342-.019c2.973.216 5.928.61 8.218 1.053 1.145.222 2.119.463 2.829.677s1.21.528 1.032.377c1.02.866 1.535 2.01 1.817 3.498.282 1.487.269 3.256.268 5.096 0 1.84.004 3.757.455 5.586.45 1.83 1.426 3.625 3.303 4.871 2.21 1.466 5.099 1.226 7.558.978s4.521-.733 4.521-.733l-.825-2.897s-1.863.438-4.047.659-4.656-.01-5.266-.414c-1.13-.75-1.704-1.743-2.044-3.122-.34-1.38-.372-3.106-.371-4.928 0-1.821.044-3.734-.31-5.604-.355-1.87-1.148-3.743-2.829-5.172-.697-.593-1.345-.767-2.23-1.035s-1.95-.514-3.18-.752c-2.458-.475-5.512-.883-8.63-1.11a67 67 0 0 0-4.667-.188z" style="block-progression:tb;text-indent:0;color:#000;text-transform:none;fill:url(#c)"/><path d="m46.35 1001.9 107.05-.786 4.408 14.147H43.828z" style="stroke-width:0;fill:#310e0a"/><path d="m94.944 783.09.08.19c-5.05.112-10.94.257-14.699.419-8.835.381-26.247 3.691-26.247 3.691l-1.287 3.692s18.718-3.314 28.188-3.692c6.342-.252 14.72-.754 18.838-1.008 4.13.255 12.486.756 18.818 1.008 9.47.378 28.168 3.692 28.168 3.692l-1.268-3.692s-17.411-3.31-26.247-3.691c-3.759-.162-9.65-.307-14.698-.419l.079-.19-4.853.095-4.873-.095z" style="stroke-width:0;fill:url(#d)"/><path d="M97.499 786.18v.19c-13.348.34-25.524-.82-43.421 5.347 0 0-1.422 31.09 3.209 47.971 3.454 12.591 9.336 27.351 19.195 36.287 14.011 10.988 34.003 10.628 46.63 0 9.859-8.936 15.76-23.696 19.215-36.287 4.631-16.88 3.209-47.97 3.209-47.97-17.906-6.17-30.085-5.025-43.441-5.367v-.171c-.774.045-1.535.084-2.298.114-.757-.03-1.53-.07-2.298-.114" style="stroke-width:0;fill:url(#e)"/><path d="m91.761 881.01 1.657 8.002 1.657 18.483-4.971 4.306 3.86 4.934s4.878 23.37-5.455 32.212c-2.353 2.014-2.14-1.175-2.14-1.175l-5.755 3.508-15.368 7.945c10.325 10.323 22.174 8.747 33.911 8.04 11.738.707 23.603 2.283 33.928-8.04l-15.368-7.945-5.754-3.508s.213 3.189-2.14 1.175c-10.333-8.842-5.456-32.212-5.456-32.212l3.86-4.934-4.97-4.307 1.657-18.482 1.657-8.002c-13.445 5.184-4.561 2.208-14.812 0z" style="stroke-width:0;fill:url(#f)"/><path d="m65.764 958.96-12.82.237-3.844 22.136c36.987 1.33 64.854.282 102.33 0l-5.765-22.136c-5.238-.104-17.166.128-12.32-1.237-19.43 10.211-52.627 13.288-67.586 1z" style="stroke-width:0;fill:#3a0704"/><path d="M90.378 945.38c-2.649.725-4.29 1.744-4.29 2.873 0 2.207 6.295 3.996 14.054 3.996s14.036-1.79 14.036-3.996c0-1.129-1.642-2.148-4.29-2.873-.516.443-1.095.854-1.739 1.218 1.2.467 1.924 1.033 1.924 1.655 0 1.56-4.448 2.816-9.93 2.816s-9.931-1.257-9.931-2.816c0-.622.705-1.188 1.905-1.655a11 11 0 0 1-1.739-1.218" style="stroke-width:0;fill:#804d00"/><path d="M-592.13 378.35c-24.342-21.175-40.342-23.958-46.467-141.42l6.06-2.02c.998 55.244-7.933 101.35 40.407 143.44" style="filter:url(#g);stroke-width:0;fill:#804d00" transform="matrix(.63388 0 0 .60891 462.71 647.44)"/><path d="M-561.83 388.45c24.342-21.175 50.443-33.049 56.569-150.51l-6.06-2.02c-.998 55.244-2.168 110.44-50.509 152.53" style="filter:url(#h);stroke-width:0;fill:#804d00" transform="matrix(.63388 0 0 .60891 462.71 647.44)"/><path d="m-614.36 236.18 13.132 83.573 60.609-1.145 10.102-84.718c-29.798-11.819-56.632-3.486-83.843 2.29" style="filter:url(#i);stroke-width:0;fill:url(#j)" transform="matrix(.63388 0 0 .60891 462.71 647.44)"/><path d="m90.579 880.01 1.922 8.092 1.92 18.689-5.764 4.354 4.477 4.99s5.635 21.095-6.992 30.518c-2.876 2.146-2.615-1.252-2.615-1.252l-7.032 3.738-16.66 9.96c11.973 10.438 25.71 8.845 39.32 8.13 13.612.715 27.369 2.309 39.34-8.13l-16.658-9.96-7.032-3.738s.26 3.398-2.615 1.252c-12.627-9.423-6.992-30.518-6.992-30.518l4.476-4.99-5.764-4.354 1.921-18.689 1.922-8.092c-15.59 5.242-5.289 2.233-17.174 0" style="stroke-width:0;fill:url(#k)"/><rect width="101.59" height="28.179" x="49.594" y="980.23" ry=".509" style="stroke-width:0;fill:url(#l)"/><rect width="113.98" height="10.687" x="43.69" y="1014.7" ry="0" style="stroke-width:0;fill:#692017"/><text xml:space="preserve" x="55.365" y="1556.068" style="line-height:0%;font-family:sans-serif;letter-spacing:0;word-spacing:0;opacity:.37560999;fill:#ffc022" transform="scale(1.121 .8921)">            </text><path d="M73.006 984.36c.004.043.033.083.033.126 0 1.994 2.06 3.64-3.04 3.887v6.858c0 .142.232.253.532.253-.3 0-.531.107-.531.252v7.016c5.099.252 3.04 1.942 3.04 3.982 0 .044-.03.083-.034.126h50.682c-.063-.17-.133-.346-.133-.521 0-1.714-.886-3.153 3.444-3.666v-6.937c0-.145-.231-.252-.531-.252.3 0 .531-.11.531-.253v-6.779c-4.33-.502-3.444-1.911-3.444-3.586 0-.172.07-.34.133-.506z" style="stroke-width:0;fill:url(#m)"/><path d="m95.5 194 2.5-11.5 1-16.5-3-4.5 2-3-2.5-26.5c-8.535-2.61-12.614-7.9-14.5-14.5" style="opacity:.22439;filter:url(#n);stroke:#000;stroke-width:1px;fill:none" transform="translate(0 752.36)"/><path d="m13.5 1025.9 31-2.86 114.5-.66 23.5 3.08-20 2.42H49z" style="filter:url(#o);stroke:#000;stroke-width:.66332px;fill:#2d2d2d" transform="matrix(1 0 0 -.3449 -1.414 1382.1)"/><text xml:space="preserve" x="76.428" y="999.746" style="font-style:normal;font-weight:400;font-size:12.03860569px;line-height:1.25;font-family:sans-serif;letter-spacing:0;word-spacing:0;fill:#000;fill-opacity:1;stroke:none;stroke-width:.30096516"><tspan x="76.428" y="999.746" style="stroke-width:.30096516">WEKAN</tspan></text><text xml:space="preserve" x="98.728" y="808.553" style="font-style:normal;font-weight:400;font-size:18.82717323px;line-height:1.25;font-family:sans-serif;letter-spacing:0;word-spacing:0;fill:#000;fill-opacity:1;stroke:none;stroke-width:.47067934"><tspan x="98.728" y="808.553" style="text-align:center;text-anchor:middle;stroke-width:.47067934">HALL</tspan><tspan x="98.728" y="832.087" style="text-align:center;text-anchor:middle;stroke-width:.47067934">OF</tspan><tspan x="98.728" y="855.621" style="text-align:center;text-anchor:middle;stroke-width:.47067934">FAME</tspan></text></g></svg>