<svg xmlns="http://www.w3.org/2000/svg" xml:space="preserve" id="Layer_1" x="0" y="0" version="1.1" viewBox="0 0 131.2 37.8"><style>.st0{fill:#fff}</style><path d="M123.2 27.7c-.3 0-.6.1-.8.3-2.1 5.4-3.7 8.1-4.9 7.9-.4 0-.6-.4-.6-1 0-.9.1-1.7.3-2.5.2-1.1.5-2.1.8-3.2s.6-2.3.9-3.6.6-2.4.8-3.1c.1-.5-.1-1-.5-1.3-.6-.3-1.3-.3-1.9-.1-3.6.8-6.3 3.9-8.3 9.4.6-4.2 1-6.6 1.1-7.2q.3-1.65.6-2.1c-.6-.1-1.2-.1-1.8-.1-1.2 0-2.3.1-3.4.3-1.3.2-1.9.5-2 .9-.2 1.9-.2 3.9-.4 5.9s-.3 3.7-.4 5.3c-.4.6-.8 1.2-1.2 1.7-.5.6-1 .8-1.4.8-1-.2-.4-3 1.5-8.6 1.4-4.3.7-6.2-5.2-6.2-1.9 0-3.8.6-5.5 1.7-2.6 1.6-4.5 4.1-5.3 7-.1.3-.2.6-.2.9-.2.5-.5.9-.8 1.4-.4.7-1 1.4-1.6 1.9-.3.2-.7.4-1.1.3-1-.2-2.3-1-3.7-2.6-1-1.1-2.9-3-3.8-4.1C80 17.5 95.1 15.2 99.5 15.2c1.4 0 1.4-6.2 0-6.2-17.6 0-25.4 14.8-27.1 20 .1-1.7.3-2.7.5-4.9s.4-3.8.5-5.1.3-2.7.4-4.4.3-2.9.4-3.9.2-2 .4-3.1.2-2 .3-2.7V3c.1-.7.1-1.2.2-1.6.2-.5 0-1-.5-1.2-.1 0-.1-.1-.2-.1-.3-.1-.6-.1-.9-.1q-.45 0-.9.3c-.3.2-.6.6-.7.9-2.5 5.8-4.5 14.9-6.1 27.2-.8 2.4-2.3 4.4-4.3 6-1.5 1.3-3.4 1.9-5.3 1.9-1.3-.2-2.5-1.1-2.8-2.4-.6-1.8-.7-3.7-.2-5.5.9-4.1 2-6.2 3.3-6.2.9 0 .9 1.5.1 4.6-.7 2.2-1.6 3.7-2.8 4.4-.4.2-.6.5-.5.6s.4.2.9 0c2-.5 3.8-1.3 5.6-2.3 1.4-.7 2.4-1.9 3-3.3.3-1.2-.2-2.5-1.3-3.2-1.2-1-2.8-1.5-4.3-1.5-1.7-.1-3.5.3-5.1 1l.1-.2c2.5-3.7 4.4-7.8 5.8-12 1.2-3.8.8-6.6-.9-8.3-.9-.6-1.9-1.1-2.9-1.2C51.7 0 48.9-.8 51 1.9c.3.5.5 1 .7 1.6.4 2.5.3 5-.5 7.5-.8 3.3-2 6.5-3.4 9.6s-3.1 6-5 8.8c-1.4 2.1-3.1 4-5.2 5.4-.1-.2-.1-.4-.1-.7v-1.6c0-.4 0-.8.1-1.3.4-2.6.9-5.4 1.5-8.3s1.2-5.6 1.8-7.9c.4-1.5.7-2.6.8-3.3.2-.5.1-1.1-.2-1.6-.5-.5-1-.9-1.7-1.2-.5-.3-1.2-.6-2-1.1-1.7-1-1.8-.9-2.2.8s-1.3 3.7-2.4 6.6C31.9 18 30.7 21 29.3 24c-1.2 2.7-2.5 5.3-4 7.8-1.3 2.2-2.3 3.3-3.1 3.3-.2 0-.3-.2-.3-.3-.1-.2-.1-.5-.1-.7 0-.5.1-1.1.1-1.6.1-.4.1-.8.2-1.3.3-1.7.8-3.8 1.4-6.1s1.2-4.7 1.9-7 1.2-4.2 1.6-5.8c.5-1.3.9-2.7 1.1-4.1.1-.8-.4-1.5-1.1-1.7-.7-.3-1.7-1-3.1-1.8-.7-.5-1.7-.6-2.6-.2-2.7 1-5.3 2.1-8.1 3.4-2.9 1.4-5.7 2.9-8.4 4.7-2.4 1.6-3.9 3-4.6 4.3-.8 1.5-.7 3.3.2 4.8.5.9 1.2 1.6 2 2.2 3.2 2.2 2.2.9 2.5-1.6.1-.9.4-1.8.9-2.6 1.6-2.4 3.6-4.5 6-6.2 3-2.3 6.2-4.2 9.7-5.6-.7 2.4-1.3 5-2.1 7.8s-1.5 5.5-2.1 8.1-1.1 4.8-1.4 6.5c-.2.8-.2 1.6-.2 2.4.1.8.4 1.6.9 2.2.5.7 1.2 1.3 1.9 1.8.7.4 1.5.7 2.3.7 1.7-.1 3.3-1.2 4.9-3.4 1.7-2.4 3.2-5.1 4.4-7.8 1.3-3.1 2.5-6.1 3.5-9-.5 2.4-.9 4.7-1.3 7s-.7 4.3-.9 6.1c-.1.8-.1 1.6-.1 2.4.1.8.5 1.6 1 2.3s1.2 1.3 2 1.7 1.6.7 2.4.7c1.7 0 3.9-1.5 6.8-4.4.7-.7 1.4-1.5 2.1-2.3-.2 1.9.6 3.8 2.1 4.9 1.9 1.4 4.2 2.2 6.6 2.2 2.8.1 5.6-.8 7.7-2.7 1.2-1 2.2-2.2 3.1-3.5-.3 1.7-.3 3.4-.2 5.1 0 .2.6.5 1.8.6 1.2.2 2.4.2 3.5.2s1.7-.1 1.7-.3c-.1-.7-.2-2.2-.3-3.8 2.4 2.5 5.2 4.4 7.4 4.2 1.3-.1 2.8-1.1 4.5-3.1.4-.5.7-1 1.1-1.6.1.9.5 1.7 1.1 2.4 1.1 1.3 2.7 2 4.4 1.9 1.7-.2 3.1-1.6 4.1-4.2.3-.8.7-1.6 1.1-2.4.7-1.1.5-.4.4.1-.3 1.7-.7 4 .3 5.5.5.9 1.5 1.4 2.5 1.3s2.2-1 3.4-2.6q-.15.75 0 1.5c.1.2.6.5 1.6.6.9.1 1.9.2 2.9.2.9 0 1.4-.1 1.4-.3.8-3.5 1.4-6.5 4.3-10.3h.2v.4c0 .2-.1.5-.1.7-.1.2-.1.6-.3 1.1s-.2.9-.3 1.3q-.45 1.8-.3 3.6c.1.8.3 1.6.7 2.3.3.5.8.9 1.3 1.2.5.2 1 .4 1.6.4.5 0 1 0 1.5-.1 1.2-.2 2.4-1.3 3.7-3.1 1.4-2 2.4-4.2 3.1-6.5v-.1c.4-.1.3-.1 0-.1m-28.6 1.8c-1.2 4-2.1 6-2.8 6-.5-.1-.6-.6-.5-1.6.2-1.6.6-3.1 1.1-4.6.4-1.3.8-2.4 1.1-3.2s.6-1.5.9-2.2c.2-.5.5-.9.9-1.3.2-.2.4-.3.7-.3.2 0 .5.1.5.4v.1c-.2 1.7-.6 3.4-1.2 5-.4.8-.6 1.2-.7 1.7" class="st0"/><path d="M104.4 8.8h4.5c.5 0 .9.4.9.9v4.5c0 .5-.4.9-.9.9h-4.5c-.5 0-.9-.4-.9-.9V9.7c0-.5.4-.9.9-.9m9.9 2.3h5.5c.6 0 1.1.5 1.1 1.1v5.5c0 .6-.5 1.1-1.1 1.1h-5.5c-.6 0-1.1-.5-1.1-1.1v-5.5c0-.6.5-1.1 1.1-1.1m9.1-9.5h6.5c.7 0 1.3.6 1.3 1.3v6.5c0 .7-.6 1.3-1.3 1.3h-6.5c-.7 0-1.3-.6-1.3-1.3V2.8c0-.7.6-1.2 1.3-1.2" class="st0"/></svg>