<svg id="Layer_1" data-name="Layer 1" xmlns="http://www.w3.org/2000/svg" xmlns:xlink="http://www.w3.org/1999/xlink" width="77.213" height="33" viewBox="0 0 77.213 33"><defs><style>.cls-1{fill:url(#linear-gradient);}.cls-2{fill:url(#linear-gradient-2);}.cls-3{fill:#333;}</style><linearGradient id="linear-gradient" x1="384.849" y1="-266.514" x2="405.389" y2="-281.655" gradientTransform="matrix(1, 0, 0, -1, -357.393, -256.5)" gradientUnits="userSpaceOnUse"><stop offset="0.005" stop-color="#f26a27"/><stop offset="1" stop-color="#fccb00"/></linearGradient><linearGradient id="linear-gradient-2" x1="392.147" y1="-259.491" x2="415.123" y2="-286.804" gradientTransform="matrix(1, 0, 0, -1, -357.393, -256.5)" gradientUnits="userSpaceOnUse"><stop offset="0" stop-color="#f26a27"/><stop offset="1" stop-color="#fccb00"/></linearGradient></defs><g id="_20i_Logo_20i_Main" data-name="20i Logo_20i Main"><path class="cls-1" d="M38.125,27.907a11.466,11.466,0,0,1,0-22.093,2.306,2.306,0,0,0-1.238-4.443h0a16.071,16.071,0,0,0,0,30.975,2.343,2.343,0,0,0,.618.084h0a2.3,2.3,0,0,0,.62-4.523Z"/><path class="cls-2" d="M45.613,1.371A2.3,2.3,0,0,0,45,1.287h0a2.3,2.3,0,0,0-.613,4.525,11.466,11.466,0,0,1,0,22.094,2.3,2.3,0,0,0,1.23,4.441A16.153,16.153,0,0,0,56.377,12.253,16.4,16.4,0,0,0,45.613,1.371Z"/><path class="cls-3" d="M2.921,32.406a2.856,2.856,0,0,1-2.3-2.048,3.8,3.8,0,0,1,1.533-3.69l1.229-1.105c.515-.457,1.028-.952,1.561-1.381l7.62-6.5,1.135-.953a28.542,28.542,0,0,0,2.22-1.9A6.2,6.2,0,0,0,17.758,10.3a4.005,4.005,0,0,0-1.4-2.964,6.245,6.245,0,0,0-4.659-1.4A9.287,9.287,0,0,0,5.569,9.271,2.3,2.3,0,0,1,2.025,6.338h0a13.967,13.967,0,0,1,9.258-4.991A10.712,10.712,0,0,1,19.312,3.8,8.569,8.569,0,0,1,22.36,10.09a10.8,10.8,0,0,1-3.133,7.972,33.085,33.085,0,0,1-2.571,2.248l-1.067.851-7.805,6.67H20.061a2.3,2.3,0,0,1,2.3,2.3v0A2.271,2.271,0,0,1,20.09,32.4h-.029Z"/><circle class="cls-3" cx="63.621" cy="3.595" r="2.314"/><path class="cls-3" d="M63.641,32.4a2.3,2.3,0,0,1-2.3-2.3V13.186a2.3,2.3,0,1,1,4.6,0V30.091A2.3,2.3,0,0,1,63.659,32.4h-.018Z"/></g><path class="cls-3" d="M75.486,2.991a2.779,2.779,0,1,1-5.558.018A2.747,2.747,0,0,1,72.636.227h.079a2.71,2.71,0,0,1,2.771,2.648C75.487,2.914,75.487,2.953,75.486,2.991Zm-.457,0A2.264,2.264,0,0,0,72.835.66h-.12a2.3,2.3,0,0,0-2.337,2.263v.084a2.326,2.326,0,0,0,4.652.081C75.03,3.055,75.03,3.023,75.029,2.991Zm-1.511.5.693,1.061h-.678l-.614-.944h-.7v.944h-.678v-3.1h1.291c.819,0,1.307.425,1.307,1.079A.966.966,0,0,1,73.518,3.491Zm-.724-.412c.44,0,.693-.2.693-.55s-.253-.538-.693-.538h-.583V3.083Z"/></svg>