<svg xmlns="http://www.w3.org/2000/svg" width="155" height="37"><g transform="translate(0 -27)"><rect width="154.013" height="36.014" x=".493" y="27.493" ry="3.288" style="opacity:1;fill:none;fill-opacity:1;stroke:#03a9f4;stroke-width:.98649561;stroke-miterlimit:4;stroke-dasharray:none;stroke-dashoffset:0;stroke-opacity:1"/><g transform="translate(13.37 105.754)scale(.59473)"><path d="M29.167-109.503c1.2 2.085 1.18 17.183-.027 19.266s-14.291 9.613-16.697 9.61c-2.407-.003-15.472-7.57-16.672-9.656-1.2-2.085-1.18-17.183.026-19.266s14.291-9.613 16.698-9.61 15.471 7.57 16.672 9.656" style="opacity:1;fill:#03a9f4;fill-opacity:1;stroke:none;stroke-width:1.10000002;stroke-miterlimit:4;stroke-dasharray:none;stroke-dashoffset:0;stroke-opacity:1" transform="rotate(-30 10.994 -99.26)"/><rect width="8.743" height="8.743" x="2.221" y="-104.918" ry="2.418" style="opacity:1;fill:#fff;fill-opacity:1;stroke:none;stroke-width:2.29999995;stroke-miterlimit:4;stroke-dasharray:none;stroke-dashoffset:0;stroke-opacity:1"/><g transform="translate(0 .145)"><rect width="8.743" height="8.743" x="9.089" y="-98.734" ry="2.418" style="opacity:1;fill:#fff;fill-opacity:1;stroke:none;stroke-width:2.29999995;stroke-miterlimit:4;stroke-dasharray:none;stroke-dashoffset:0;stroke-opacity:1"/><rect width="8.743" height="8.743" x="9.089" y="-111.39" ry="2.418" style="opacity:1;fill:#fff;fill-opacity:1;stroke:none;stroke-width:2.29999995;stroke-miterlimit:4;stroke-dasharray:none;stroke-dashoffset:0;stroke-opacity:1"/></g></g><g style="fill:#03a9f4;fill-opacity:1"><g style="font-style:normal;font-variant:normal;font-weight:500;font-stretch:normal;font-size:16.17625046px;line-height:100%;font-family:&quot;Maven Pro&quot;;-inkscape-font-specification:&quot;Maven Pro, Medium&quot;;text-align:start;letter-spacing:0;word-spacing:0;writing-mode:lr-tb;text-anchor:start;fill:#03a9f4;fill-opacity:1;stroke:none;stroke-width:1px;stroke-linecap:butt;stroke-linejoin:miter;stroke-opacity:1"><path d="M41.657 62.625c-2.556 0-3.64-1.262-3.64-4.173 0-2.928 1.084-4.174 3.64-4.174 1.164 0 2.216.275 3.122.68v-1.392a8.8 8.8 0 0 0-3.3-.647c-2.281 0-5.015.955-5.015 5.533 0 4.577 2.734 5.532 5.015 5.532a8.8 8.8 0 0 0 3.3-.647v-1.391a7.6 7.6 0 0 1-3.122.679m5.375-9.916v11.145h1.488V52.71zm7.446 2.961c-1.73 0-3.801.727-3.801 4.157 0 3.429 2.07 4.157 3.801 4.157s3.802-.728 3.802-4.157-2.07-4.158-3.802-4.158m0 7.004c-1.213 0-2.313-.34-2.313-2.847s1.1-2.847 2.313-2.847 2.313.34 2.313 2.847-1.1 2.847-2.313 2.847m10.98-6.891v4.789c0 1.472-.598 2.119-1.925 2.119-1.342 0-1.94-.647-1.94-2.12v-4.788H60.12v4.675c0 2.249 1.246 3.543 3.413 3.543 2.168 0 3.414-1.294 3.414-3.543v-4.675zm3.675 3.931c0 3.72 2.232 4.27 3.575 4.27 3.09 0 3.332-2.005 3.332-2.62V52.71h-1.472v3.187a6.2 6.2 0 0 0-1.73-.243c-1.683 0-3.705.712-3.705 4.06m1.472 0c0-2.41 1.084-2.75 2.232-2.75a4.5 4.5 0 0 1 1.731.34v4.157c0 .81-.63 1.214-1.86 1.214-.987 0-2.103-.34-2.103-2.96m9.122-2.363a10.7 10.7 0 0 1 2.443-.34v-1.359c-2.168 0-3.85.777-3.93.809v7.392h1.487zm7.23-1.682c-1.73 0-3.801.727-3.801 4.157 0 3.429 2.07 4.157 3.801 4.157 1.73 0 3.802-.728 3.802-4.157s-2.071-4.158-3.802-4.158m0 7.004c-1.213 0-2.313-.34-2.313-2.847s1.1-2.847 2.313-2.847 2.313.34 2.313 2.847-1.1 2.847-2.313 2.847m7.162 1.181v-6.551a6.3 6.3 0 0 1 1.892-.291c1.618 0 1.828.776 1.828 1.537v5.305h1.489v-5.208c0-1.877-1.214-3.01-3.252-3.01-1.892 0-3.38.81-3.445.842v7.376z" style="font-style:normal;font-variant:normal;font-weight:500;font-stretch:normal;font-size:16.17625046px;line-height:100%;font-family:&quot;Maven Pro&quot;;-inkscape-font-specification:&quot;Maven Pro, Medium&quot;;text-align:start;writing-mode:lr-tb;text-anchor:start;fill:#03a9f4;fill-opacity:1" transform="translate(0 -12.133)"/></g><g style="font-style:normal;font-weight:400;font-size:32.19625854px;line-height:125%;font-family:sans-serif;letter-spacing:0;word-spacing:0;fill:#03a9f4;fill-opacity:1;stroke:none;stroke-width:1px;stroke-linecap:butt;stroke-linejoin:miter;stroke-opacity:1"><path d="M105.244 53.53v-1.352h1.415v1.352zm0 10.313v-8.505h1.415v8.505zm8.992 0V58.45q0-.842-.165-1.305-.165-.464-.526-.668-.362-.205-1.061-.205-1.022 0-1.612.7t-.59 1.941v4.929h-1.414v-6.69q0-1.485-.047-1.815h1.336q.008.04.016.212.008.173.015.4.016.221.032.842h.023q.488-.88 1.124-1.242.645-.37 1.596-.37 1.4 0 2.044.7.652.692.652 2.295v5.668zm9.944-2.35q0 1.202-.912 1.855-.904.652-2.539.652-1.588 0-2.452-.519-.857-.526-1.116-1.635l1.25-.243q.18.683.746 1.006.566.314 1.572.314 1.077 0 1.572-.33.503-.33.503-.99 0-.503-.346-.818-.345-.314-1.116-.519L120.328 60q-1.218-.314-1.737-.613-.51-.307-.802-.739-.29-.432-.29-1.061 0-1.163.825-1.769.833-.613 2.42-.613 1.408 0 2.233.495.833.496 1.054 1.588l-1.274.157q-.118-.566-.637-.864-.51-.307-1.375-.307-.96 0-1.415.291-.456.29-.456.88 0 .362.189.598.188.236.558.4.37.166 1.556.457 1.124.283 1.62.526.495.236.778.527.29.29.448.676.157.377.157.865m4.936 2.286q-.7.189-1.43.189-1.698 0-1.698-1.926v-5.675h-.983v-1.03h1.038l.416-1.902h.944v1.902h1.572v1.03h-1.572v5.368q0 .613.196.865.205.244.7.244.283 0 .817-.11zm3.364.22q-1.28 0-1.925-.676t-.645-1.855q0-1.32.865-2.028.872-.707 2.806-.755l1.91-.031v-.464q0-1.037-.44-1.485t-1.384-.449q-.95 0-1.383.323-.432.322-.519 1.03l-1.478-.134q.362-2.295 3.412-2.295 1.603 0 2.413.738.81.732.81 2.123v3.663q0 .629.165.95.165.315.629.315.204 0 .463-.055v.88q-.534.126-1.092.126-.786 0-1.148-.408-.354-.417-.4-1.297h-.048q-.542.974-1.266 1.383-.715.401-1.745.401m.323-1.061q.778 0 1.383-.354t.951-.967q.354-.62.354-1.273v-.7l-1.548.032q-.999.015-1.518.204-.51.189-.786.582-.275.393-.275 1.03 0 .691.37 1.069.377.377 1.069.377m6.469.904V52.178h1.415v11.665zm3.584 0V52.178h1.415v11.665z" style="font-style:normal;font-variant:normal;font-weight:400;font-stretch:normal;font-size:16.09812927px;line-height:125%;font-family:Arimo;-inkscape-font-specification:&quot;Arimo, Normal&quot;;text-align:start;writing-mode:lr-tb;text-anchor:start;fill:#03a9f4;fill-opacity:1" transform="translate(0 -12.133)"/></g></g></g></svg>