<?xml version="1.0" encoding="utf-8"?>
<!-- Generator: Adobe Illustrator 19.1.0, SVG Export Plug-In . SVG Version: 6.00 Build 0)  -->
<!DOCTYPE svg PUBLIC "-//W3C//DTD SVG 1.1//EN" "http://www.w3.org/Graphics/SVG/1.1/DTD/svg11.dtd">
<svg version="1.1" id="Layer_1" xmlns="http://www.w3.org/2000/svg" xmlns:xlink="http://www.w3.org/1999/xlink" x="0px" y="0px"
	 viewBox="-21 1 150 150" style="enable-background:new -21 1 150 150;" xml:space="preserve">
<style type="text/css">
	.st0{opacity:0.6;clip-path:url(#SVGID_2_);fill:#D1D1D1;}
	.st1{clip-path:url(#SVGID_2_);fill:url(#SVGID_3_);}
	.st2{clip-path:url(#SVGID_2_);fill:none;stroke:#7ADDFC;stroke-miterlimit:10;}
	.st3{clip-path:url(#SVGID_2_);fill:none;stroke:#529FDD;stroke-miterlimit:10;}
	.st4{clip-path:url(#SVGID_2_);fill:none;}
	.st5{clip-path:url(#SVGID_2_);fill:#FFFFFF;}
</style>
<g>
	<defs>
		<rect id="SVGID_1_" x="-21" y="1" width="150" height="150"/>
	</defs>
	<clipPath id="SVGID_2_">
		<use xlink:href="#SVGID_1_"  style="overflow:visible;"/>
	</clipPath>
	<path class="st0" d="M127.8,156H-8.7c-3.7,0-6.8-3-6.8-6.8V12.7c0-3.7,3-6.8,6.8-6.8h136.5c3.7,0,6.7,3,6.7,6.8v136.5
		C134.5,152.9,131.5,156,127.8,156z"/>
	<linearGradient id="SVGID_3_" gradientUnits="userSpaceOnUse" x1="54" y1="151" x2="54" y2="1">
		<stop  offset="0" style="stop-color:#007C8F"/>
		<stop  offset="0.3707" style="stop-color:#007088"/>
		<stop  offset="1" style="stop-color:#005377"/>
	</linearGradient>
	<rect x="-21" y="1" class="st1" width="150" height="150"/>
	<path class="st2" d="M90.3,110.9H16.9c-1.7,0-3-1.3-3-3V42.4c0-1.7,1.3-3,3-3h73.4c1.7,0,3,1.3,3,3v65.4
		C93.3,109.5,92,110.9,90.3,110.9z"/>
	<path class="st3" d="M90.3,32.6H16.9c-1.7,0-3-1.3-3-3v-46.7c0-1.7,1.3-3,3-3h73.4c1.7,0,3,1.3,3,3v46.7
		C93.3,31.2,92,32.6,90.3,32.6z"/>
	<path class="st3" d="M90.3,170.5H16.9c-1.7,0-3-1.3-3-3v-46.7c0-1.7,1.3-3,3-3h73.4c1.7,0,3,1.3,3,3v46.7
		C93.3,169.1,92,170.5,90.3,170.5z"/>
	<path class="st3" d="M177.3,69.7h-73.4c-1.7,0-3-1.3-3-3v-82.3c0-1.7,1.3-3,3-3h73.4c1.7,0,3,1.3,3,3v82.3
		C180.3,68.3,178.9,69.7,177.3,69.7z"/>
	<path class="st3" d="M177.3,179h-73.4c-1.7,0-3-1.3-3-3V79.5c0-1.7,1.3-3,3-3h73.4c1.7,0,3,1.3,3,3V176
		C180.3,177.6,178.9,179,177.3,179z"/>
	<path class="st3" d="M3.8,69.7h-73.4c-1.7,0-3-1.3-3-3v-82.3c0-1.7,1.3-3,3-3H3.8c1.7,0,3,1.3,3,3v82.3C6.8,68.3,5.4,69.7,3.8,69.7
		z"/>
	<path class="st3" d="M3.8,179h-73.4c-1.7,0-3-1.3-3-3V79.5c0-1.7,1.3-3,3-3H3.8c1.7,0,3,1.3,3,3V176C6.8,177.6,5.4,179,3.8,179z"/>
	<path class="st4" d="M115.7,151H-7.7c-7.4,0-13.3-6-13.3-13.3V14.3C-21,7-15,1-7.7,1h123.3C123,1,129,7,129,14.3v123.3
		C129,145,123,151,115.7,151z"/>
	<path class="st4" d="M122.3,151H-14.3c-3.7,0-6.8-3-6.8-6.8V7.8C-21,4-18,1-14.3,1h136.5c3.7,0,6.8,3,6.8,6.8v136.5
		C129,148,126,151,122.3,151z"/>
	<path class="st5" d="M81.4,86.2c0.5-0.7,0.9-1.5,1.2-2.2c0.1-0.1,0.1-0.2,0.1-0.4c0-0.1,0.1-0.2,0-0.2c0-0.1-0.8-0.1-1.1,0.1
		c-0.2,0.2-1.1,2.7-3.9,5.2c-1.6,1.4-3.3,1.9-4.9,1.7c-1.2-0.1-2.1-0.9-2.6-2.2c-0.5-1.4-0.6-3-0.2-5.1c0.8-3.8,1.8-5.7,3.1-5.7
		c0.8,0,0.9,1.4,0.1,4.3c-0.6,2-1.5,3.4-2.5,4.1c-0.4,0.2-0.5,0.4-0.5,0.5c0,0.2,0.3,0.2,0.8,0c1.9-0.5,3.6-1.2,5.1-2.1
		c1.5-1,2.5-2,2.8-3c0.3-1.2-0.1-2.2-1.1-3c-1-0.8-2.4-1.3-4-1.4c-1.6-0.1-3.2,0.2-4.7,0.9c0-0.1,0.1-0.1,0.1-0.2
		c2.5-3.9,4.3-7.5,5.3-11.1c1.1-3.5,0.8-6.1-0.9-7.7c-0.6-0.5-1.5-0.9-2.7-1.2c-2.3-0.6-4.8-1.4-2.9,1.2c0.3,0.5,0.5,1,0.6,1.5
		c0.4,1.8,0.3,4.1-0.4,6.9c-0.7,2.8-1.8,5.8-3.2,8.8c-1.4,3-2.9,5.8-4.6,8.2c-1.7,2.4-3.3,4.1-4.9,5c-0.1-0.2-0.1-0.4-0.1-0.6
		c0-0.5,0-1,0-1.5c0-0.5,0.1-0.9,0.1-1.2c0.4-2.4,0.8-5,1.4-7.7c0.6-2.7,1.1-5.1,1.6-7.3c0.4-1.4,0.6-2.4,0.7-3.1
		c0.1-0.7,0-1.2-0.2-1.5c-0.2-0.3-0.8-0.7-1.6-1.1c-0.5-0.3-1.1-0.6-1.9-1c-1.5-0.9-1.6-0.9-2.1,0.7c-0.4,1.4-1.2,3.4-2.3,6.1
		c-1,2.7-2.2,5.4-3.5,8.3c-1.3,2.9-2.5,5.3-3.7,7.2c-1.2,2-2.1,3-2.9,3c-0.2,0-0.3-0.1-0.3-0.3c0-0.2-0.1-0.4-0.1-0.7
		c0-0.5,0.1-1,0.1-1.5c0.1-0.5,0.2-0.9,0.2-1.2c0.3-1.6,0.8-3.5,1.3-5.7c0.6-2.2,1.2-4.4,1.7-6.5c0.6-2.1,1.1-3.9,1.5-5.4
		c0.6-1.9,1-3.1,1.1-3.8c0.1-0.6-0.3-1.2-1-1.6c-0.6-0.3-1.6-0.9-2.9-1.7c-1-0.6-1.4-0.5-2.4-0.2c-2.5,0.9-4.9,1.9-7.5,3.1
		c-3,1.4-5.6,2.9-7.8,4.3c-2.2,1.5-3.6,2.8-4.2,4c-0.7,1.5-0.6,3,0.2,4.4c0.5,0.8,1.1,1.5,1.9,2.1c3,2.1,2,0.9,2.3-1.5
		c0.1-0.9,0.4-1.7,0.8-2.4c1-1.7,2.8-3.6,5.6-5.8c2.7-2.1,5.7-3.9,9-5.2c-0.6,2.2-1.2,4.6-1.9,7.2c-0.7,2.6-1.3,5.1-1.9,7.5
		c-0.6,2.4-1,4.4-1.3,6c-0.2,0.8-0.2,1.5-0.2,2.2c0,0.7,0.3,1.4,0.7,2.1c0.5,0.7,1.1,1.2,1.8,1.6c0.7,0.4,1.4,0.6,2.2,0.6
		c1.6-0.1,3.1-1.1,4.5-3.1c1.5-2,2.8-4.4,4-7.2c1.2-2.8,2.3-5.6,3.2-8.4c-0.5,2.2-0.9,4.4-1.2,6.5c-0.4,2.1-0.6,4-0.8,5.6
		c-0.1,0.8-0.1,1.5-0.1,2.2c0.1,0.7,0.4,1.4,0.9,2.1c0.5,0.7,1.1,1.2,1.9,1.6c0.7,0.4,1.5,0.6,2.3,0.7c1.5,0,3.6-1.4,6.3-4.1
		c0.6-0.7,1.3-1.4,1.9-2.1c-0.1,1.9,0.5,3.4,2,4.5c1.7,1.3,3.7,2,6.1,2.1c2.4,0.1,4.7-0.7,6.6-2.1C79.4,88.7,80.5,87.5,81.4,86.2z"
		/>
	<path class="st4" d="M122.3,151H-14.3c-3.7,0-6.8-3-6.8-6.8V7.8C-21,4-18,1-14.3,1h136.5c3.7,0,6.8,3,6.8,6.8v136.5
		C129,148,126,151,122.3,151z"/>
	<path class="st4" d="M122.3,151H-14.3c-3.7,0-6.8-3-6.8-6.8V7.8C-21,4-18,1-14.3,1H129v143.3C129,148,126,151,122.3,151z"/>
</g>
</svg>
